<?xml version="1.0" standalone="no"?>
<!DOCTYPE svg PUBLIC "-//W3C//DTD SVG 20010904//EN"
 "http://www.w3.org/TR/2001/REC-SVG-20010904/DTD/svg10.dtd">
<svg version="1.0" xmlns="http://www.w3.org/2000/svg"
 width="1181.000000pt" height="948.000000pt" viewBox="0 0 1181.000000 948.000000"
 preserveAspectRatio="xMidYMid meet">

<g transform="translate(0.000000,948.000000) scale(0.100000,-0.100000)"
fill="#000000" stroke="none">
<path d="M5645 9384 c-189 -34 -370 -116 -515 -233 -228 -184 -383 -469 -406
-750 -6 -66 -3 -84 16 -129 101 -235 435 -181 464 76 31 264 219 483 471 547
78 20 233 20 309 0 259 -68 442 -285 470 -555 18 -175 -59 -383 -193 -520
-126 -129 -268 -189 -456 -194 -160 -4 -221 -36 -271 -141 -23 -48 -24 -58
-23 -264 l1 -213 -73 -40 c-199 -107 -337 -280 -390 -486 -18 -69 -19 -114
-19 -582 l0 -507 -2287 -1769 c-1259 -973 -2312 -1791 -2342 -1819 -128 -120
-254 -329 -305 -507 -37 -128 -50 -268 -36 -386 43 -360 261 -623 615 -741
197 -66 -218 -61 5187 -61 3437 0 4930 3 4984 11 530 73 879 490 851 1013 -8
147 -43 281 -110 420 -54 112 -144 241 -214 307 -21 20 -1095 823 -2388 1785
-1292 961 -2352 1749 -2355 1752 -3 2 -8 236 -11 520 -6 550 -6 554 -58 676
-56 128 -187 278 -308 348 -64 38 -169 82 -220 93 -33 6 -33 7 -33 63 l0 57
90 22 c101 24 248 90 340 153 87 59 212 180 280 271 251 337 300 787 126 1154
-24 52 -67 128 -95 168 -61 88 -202 227 -289 286 -231 156 -541 223 -807 175z
m488 -3211 c8 -162 9 -403 2 -403 -3 0 -75 52 -160 116 l-155 116 -37 -28
c-21 -15 -86 -65 -145 -111 -58 -46 -109 -83 -112 -83 -3 0 -6 119 -6 265 l0
265 303 0 304 0 6 -137z m2254 -2888 c1720 -1280 2550 -1904 2572 -1932 19
-24 45 -71 60 -105 22 -55 26 -77 26 -168 0 -95 -3 -110 -27 -156 -28 -53 -68
-93 -122 -121 -87 -45 153 -43 -5031 -43 -3370 0 -4912 3 -4940 11 -104 27
-162 63 -196 122 -20 35 -24 55 -24 128 0 81 3 91 43 171 34 70 56 99 115 152
125 115 4960 3846 4973 3838 6 -4 1154 -857 2551 -1897z"/>
</g>
</svg>
