<svg version="1.1" id="Layer_1" xmlns="http://www.w3.org/2000/svg" xmlns:xlink="http://www.w3.org/1999/xlink" x="0px" y="0px"
	 width="100%" viewBox="0 0 1517 1207" enable-background="new 0 0 1517 1207" xml:space="preserve">
<path fill="none" opacity="0.000000" stroke="none" 
	d="
M1.000000,426.000000 
	C1.000000,284.000000 1.000000,142.500000 1.000000,1.000000 
	C506.666656,1.000000 1012.333313,1.000000 1518.000000,1.000000 
	C1518.000000,403.333344 1518.000000,805.666687 1518.000000,1208.000000 
	C1012.333313,1208.000000 506.666656,1208.000000 1.000000,1208.000000 
	C1.000000,947.500000 1.000000,687.000000 1.000000,426.000000 
M1392.496582,1196.979370 
	C1392.496582,1196.979370 1392.966187,1196.875610 1393.835571,1197.048218 
	C1395.897217,1196.990601 1397.958984,1196.933105 1400.949097,1196.991211 
	C1434.275024,1196.991211 1467.600952,1196.991211 1500.837891,1196.991211 
	C1500.837891,1164.206421 1500.837891,1132.128296 1500.985474,1099.116821 
	C1500.936279,1087.394165 1500.887085,1075.671631 1500.988525,1063.028931 
	C1500.988525,712.049500 1500.988525,361.070068 1500.988525,10.000009 
	C1499.136108,10.000009 1497.974243,10.000009 1496.812378,10.000009 
	C1258.545776,10.000006 1020.279175,9.999800 782.012573,10.005134 
	C780.682007,10.005163 779.351440,10.082936 777.169250,9.951856 
	C775.436707,10.009373 773.704224,10.066890 771.502991,10.020522 
	C771.502991,10.020522 771.044434,10.162681 770.111877,10.014485 
	C759.395508,10.064100 748.679199,10.113714 737.503540,10.020763 
	C737.503540,10.020763 737.033875,10.124406 736.181458,9.951862 
	C734.447388,10.009377 732.713318,10.066892 730.050842,10.008777 
	C493.495941,10.008777 256.941071,10.008777 20.000000,10.008777 
	C20.000000,12.180033 20.000000,13.974713 20.000000,15.769393 
	C20.000000,366.341919 19.999733,716.914429 20.006781,1067.486938 
	C20.006817,1069.315552 20.109488,1071.144287 20.014608,1073.903198 
	C20.064108,1084.281982 20.113607,1094.660889 20.011507,1105.961182 
	C20.011507,1136.171997 20.011507,1166.382812 20.011507,1196.875610 
	C53.249378,1196.875610 86.114418,1196.875610 119.860130,1197.048218 
	C122.249519,1196.990723 124.638908,1196.933228 127.496788,1196.979614 
	C127.496788,1196.979614 127.955139,1196.837402 128.887756,1196.985474 
	C548.775208,1196.990356 968.662598,1196.995361 1388.550049,1196.993286 
	C1389.712402,1196.993286 1390.874878,1196.891113 1392.496582,1196.979370 
z"/>
<path fill="#00000000" opacity="1.000000" stroke="none" 
	d="
M20.164217,1072.972900 
	C20.109488,1071.144287 20.006817,1069.315552 20.006781,1067.486938 
	C19.999733,716.914429 20.000000,366.341919 20.000000,15.769393 
	C20.000000,13.974713 20.000000,12.180033 20.000000,10.008777 
	C256.941071,10.008777 493.495941,10.008777 730.448242,10.442025 
	C730.496155,11.204735 730.182373,11.770651 729.792053,11.829616 
	C713.195679,14.336596 697.750916,20.054636 683.219055,28.374483 
	C654.223755,44.975010 633.622559,68.877724 620.930115,99.722153 
	C615.910950,111.919495 613.594666,124.702080 611.425903,137.651443 
	C609.420837,149.623077 615.202576,167.661850 630.266174,172.974930 
	C644.422058,177.967865 659.220520,175.667191 668.916443,162.121048 
	C673.528198,155.677917 673.874512,148.011887 675.265808,140.488693 
	C679.041321,120.073105 688.597290,102.721848 705.500000,90.078362 
	C722.767944,77.161644 741.934204,71.075287 763.742310,73.877609 
	C785.939026,76.729866 804.093079,86.558403 817.663757,104.273956 
	C832.669800,123.863472 838.375916,145.944672 832.909668,170.250565 
	C826.916260,196.900940 811.317078,216.519394 787.550049,229.720734 
	C773.683350,237.422974 758.597961,238.563644 743.099731,238.087601 
	C730.696350,237.706635 718.211548,246.489594 714.976746,258.503143 
	C713.163147,265.238495 713.136047,272.573578 713.100464,279.642487 
	C713.040405,291.592987 713.688538,303.546021 713.798401,315.500183 
	C713.809143,316.675232 712.401367,318.442230 711.222900,318.962463 
	C693.678284,326.707581 678.904541,337.922546 667.902527,353.715210 
	C657.847473,368.148529 651.186462,384.027374 651.083496,401.834595 
	C650.828979,445.825592 651.055115,489.819305 650.860657,533.810913 
	C650.849182,536.403381 649.551086,539.890381 647.626831,541.432373 
	C631.609070,554.267639 615.314575,566.757812 599.082153,579.324646 
	C574.078308,598.682068 549.060974,618.022095 524.043152,637.361450 
	C494.702667,660.042297 465.349609,682.706848 436.012878,705.392517 
	C407.985992,727.065247 379.988373,748.775940 351.949188,770.432800 
	C328.889618,788.243347 305.767609,805.972961 282.710999,823.787231 
	C261.748718,839.983459 240.869125,856.286804 219.893204,872.465210 
	C203.114334,885.406494 186.201447,898.174011 169.427521,911.121643 
	C147.412262,928.115173 125.479279,945.215210 103.502480,962.258484 
	C91.334953,971.694458 78.601143,980.486877 67.087135,990.660950 
	C42.826027,1012.098633 27.099522,1038.667603 21.911978,1071.011597 
	C21.795139,1071.739990 20.767170,1072.322388 20.164217,1072.972900 
z"/>
<path fill="#00000000" opacity="1.000000" stroke="none" 
	d="
M778.020874,10.124409 
	C779.351440,10.082936 780.682007,10.005163 782.012573,10.005134 
	C1020.279175,9.999800 1258.545776,10.000006 1496.812378,10.000009 
	C1497.974243,10.000009 1499.136108,10.000009 1500.988525,10.000009 
	C1500.988525,361.070068 1500.988525,712.049500 1500.639160,1063.247314 
	C1499.884033,1062.557983 1499.237427,1061.682983 1499.108276,1060.737549 
	C1496.732666,1043.346436 1490.662720,1027.180176 1481.070923,1012.677917 
	C1474.549438,1002.818054 1467.528687,992.589478 1458.530762,985.208008 
	C1438.067261,968.420593 1416.225952,953.315369 1394.984375,937.473022 
	C1368.035278,917.373901 1341.164307,897.169800 1314.188477,877.106750 
	C1285.219849,855.561646 1256.127686,834.182617 1227.165283,812.629211 
	C1200.194702,792.558105 1173.372437,772.287903 1146.396484,752.224243 
	C1116.099731,729.690735 1085.656738,707.353699 1055.365112,684.813232 
	C1028.394043,664.743713 1001.596802,644.440552 974.625732,624.370850 
	C936.629211,596.097046 898.530640,567.960449 860.550171,539.665283 
	C859.288147,538.725159 858.202637,536.737671 858.108704,535.173828 
	C857.561218,526.065979 857.137085,516.940979 857.034729,507.817719 
	C856.618042,470.703156 856.557739,433.582947 855.868835,396.474060 
	C855.650391,384.707520 851.301025,373.675110 845.613647,363.489594 
	C832.019409,339.143402 811.417358,323.333710 784.874268,315.069641 
	C776.767212,312.545563 776.797974,312.447815 776.999512,303.992615 
	C777.011414,303.492950 776.804260,302.824219 777.051208,302.522614 
	C778.059021,301.291931 779.049561,299.382629 780.321777,299.134430 
	C795.110168,296.249420 808.909058,290.936554 822.035278,283.540497 
	C847.771606,269.039246 867.310242,248.587570 881.124146,222.626923 
	C895.838501,194.974045 900.662109,165.496826 897.058350,134.457672 
	C895.179993,118.279968 890.426025,102.983871 883.147583,88.560715 
	C873.917786,70.270790 861.220947,54.657173 845.252380,41.667198 
	C826.172913,26.146622 804.595581,16.304878 780.441772,11.930159 
	C779.554871,11.769539 778.824280,10.745874 778.020874,10.124409 
z"/>
<path fill="#221F20" opacity="1.000000" stroke="none" 
	d="
M777.595093,10.038134 
	C778.824280,10.745874 779.554871,11.769539 780.441772,11.930159 
	C804.595581,16.304878 826.172913,26.146622 845.252380,41.667198 
	C861.220947,54.657173 873.917786,70.270790 883.147583,88.560715 
	C890.426025,102.983871 895.179993,118.279968 897.058350,134.457672 
	C900.662109,165.496826 895.838501,194.974045 881.124146,222.626923 
	C867.310242,248.587570 847.771606,269.039246 822.035278,283.540497 
	C808.909058,290.936554 795.110168,296.249420 780.321777,299.134430 
	C779.049561,299.382629 778.059021,301.291931 777.051208,302.522614 
	C776.804260,302.824219 777.011414,303.492950 776.999512,303.992615 
	C776.797974,312.447815 776.767212,312.545563 784.874268,315.069641 
	C811.417358,323.333710 832.019409,339.143402 845.613647,363.489594 
	C851.301025,373.675110 855.650391,384.707520 855.868835,396.474060 
	C856.557739,433.582947 856.618042,470.703156 857.034729,507.817719 
	C857.137085,516.940979 857.561218,526.065979 858.108704,535.173828 
	C858.202637,536.737671 859.288147,538.725159 860.550171,539.665283 
	C898.530640,567.960449 936.629211,596.097046 974.625732,624.370850 
	C1001.596802,644.440552 1028.394043,664.743713 1055.365112,684.813232 
	C1085.656738,707.353699 1116.099731,729.690735 1146.396484,752.224243 
	C1173.372437,772.287903 1200.194702,792.558105 1227.165283,812.629211 
	C1256.127686,834.182617 1285.219849,855.561646 1314.188477,877.106750 
	C1341.164307,897.169800 1368.035278,917.373901 1394.984375,937.473022 
	C1416.225952,953.315369 1438.067261,968.420593 1458.530762,985.208008 
	C1467.528687,992.589478 1474.549438,1002.818054 1481.070923,1012.677917 
	C1490.662720,1027.180176 1496.732666,1043.346436 1499.108276,1060.737549 
	C1499.237427,1061.682983 1499.884033,1062.557983 1500.563965,1063.707275 
	C1500.887085,1075.671631 1500.936279,1087.394165 1500.639404,1099.822266 
	C1499.857788,1101.932617 1499.280273,1103.310669 1499.008057,1104.746582 
	C1495.260498,1124.511963 1487.345703,1142.402466 1473.932129,1157.442017 
	C1456.102417,1177.433105 1433.596802,1189.310181 1407.292480,1194.169067 
	C1404.787354,1194.631836 1402.440796,1195.953003 1400.020630,1196.875610 
	C1397.958984,1196.933105 1395.897217,1196.990601 1393.332642,1196.798828 
	C1392.565552,1196.645264 1392.301392,1196.740967 1392.037231,1196.836670 
	C1390.874878,1196.891113 1389.712402,1196.993286 1388.550049,1196.993286 
	C968.662598,1196.995361 548.775208,1196.990356 128.333771,1196.758057 
	C127.529274,1196.645630 127.278778,1196.760620 127.028290,1196.875732 
	C124.638908,1196.933228 122.249519,1196.990723 119.349670,1196.581787 
	C114.435768,1195.079468 110.048889,1193.965820 105.626106,1193.020386 
	C83.552887,1188.302246 64.069191,1178.385010 48.171551,1162.440796 
	C35.065567,1149.296509 26.944567,1133.066162 22.951815,1114.848022 
	C22.225529,1111.533936 21.102814,1108.306885 20.163105,1105.039673 
	C20.113607,1094.660889 20.064108,1084.281982 20.089405,1073.437988 
	C20.767170,1072.322388 21.795139,1071.739990 21.911978,1071.011597 
	C27.099522,1038.667603 42.826027,1012.098633 67.087135,990.660950 
	C78.601143,980.486877 91.334953,971.694458 103.502480,962.258484 
	C125.479279,945.215210 147.412262,928.115173 169.427521,911.121643 
	C186.201447,898.174011 203.114334,885.406494 219.893204,872.465210 
	C240.869125,856.286804 261.748718,839.983459 282.710999,823.787231 
	C305.767609,805.972961 328.889618,788.243347 351.949188,770.432800 
	C379.988373,748.775940 407.985992,727.065247 436.012878,705.392517 
	C465.349609,682.706848 494.702667,660.042297 524.043152,637.361450 
	C549.060974,618.022095 574.078308,598.682068 599.082153,579.324646 
	C615.314575,566.757812 631.609070,554.267639 647.626831,541.432373 
	C649.551086,539.890381 650.849182,536.403381 650.860657,533.810913 
	C651.055115,489.819305 650.828979,445.825592 651.083496,401.834595 
	C651.186462,384.027374 657.847473,368.148529 667.902527,353.715210 
	C678.904541,337.922546 693.678284,326.707581 711.222900,318.962463 
	C712.401367,318.442230 713.809143,316.675232 713.798401,315.500183 
	C713.688538,303.546021 713.040405,291.592987 713.100464,279.642487 
	C713.136047,272.573578 713.163147,265.238495 714.976746,258.503143 
	C718.211548,246.489594 730.696350,237.706635 743.099731,238.087601 
	C758.597961,238.563644 773.683350,237.422974 787.550049,229.720734 
	C811.317078,216.519394 826.916260,196.900940 832.909668,170.250565 
	C838.375916,145.944672 832.669800,123.863472 817.663757,104.273956 
	C804.093079,86.558403 785.939026,76.729866 763.742310,73.877609 
	C741.934204,71.075287 722.767944,77.161644 705.500000,90.078362 
	C688.597290,102.721848 679.041321,120.073105 675.265808,140.488693 
	C673.874512,148.011887 673.528198,155.677917 668.916443,162.121048 
	C659.220520,175.667191 644.422058,177.967865 630.266174,172.974930 
	C615.202576,167.661850 609.420837,149.623077 611.425903,137.651443 
	C613.594666,124.702080 615.910950,111.919495 620.930115,99.722153 
	C633.622559,68.877724 654.223755,44.975010 683.219055,28.374483 
	C697.750916,20.054636 713.195679,14.336596 729.792053,11.829616 
	C730.182373,11.770651 730.496155,11.204735 730.912476,10.499840 
	C732.713318,10.066892 734.447388,10.009377 736.675903,10.201183 
	C737.434509,10.354780 737.698669,10.259056 737.962830,10.163330 
	C748.679199,10.113714 759.395508,10.064100 770.666016,10.241957 
	C771.470642,10.354421 771.721191,10.239412 771.971680,10.124405 
	C773.704224,10.066890 775.436707,10.009373 777.595093,10.038134 
M614.500000,1133.000000 
	C866.129333,1133.000000 1117.758667,1132.999878 1369.388062,1132.999878 
	C1370.721191,1132.999878 1372.067993,1132.876099 1373.385254,1133.020996 
	C1383.045654,1134.084351 1392.461304,1132.757324 1401.692871,1130.010254 
	C1411.909912,1126.969604 1420.858765,1121.991333 1427.470703,1113.245605 
	C1438.180298,1099.079712 1439.245605,1082.968872 1435.494141,1066.729492 
	C1432.377808,1053.239380 1426.306030,1040.619019 1414.692017,1031.895508 
	C1388.074951,1011.903015 1361.332886,992.077148 1334.653442,972.167603 
	C1307.841797,952.159363 1281.075928,932.089905 1254.233154,912.123535 
	C1223.803589,889.489441 1193.281250,866.980103 1162.854858,844.341736 
	C1137.343384,825.360168 1111.955933,806.211670 1086.433594,787.244873 
	C1056.127075,764.722778 1025.697388,742.366333 995.389771,719.845703 
	C961.891663,694.954224 928.474365,669.954102 895.015991,645.009094 
	C865.540771,623.033875 836.067688,601.055603 806.573975,579.105286 
	C789.063416,566.073181 771.514526,553.092529 753.838623,539.981689 
	C752.464661,541.205261 751.297974,542.374084 750.003296,543.377747 
	C732.338867,557.071228 714.658752,570.744446 696.978333,584.417358 
	C664.629761,609.433838 632.290405,634.462402 599.924011,659.455811 
	C576.862122,677.264221 553.762573,695.023743 530.678955,712.803772 
	C509.037994,729.472717 487.391296,746.134155 465.755768,762.810059 
	C449.626129,775.242249 433.493774,787.670898 417.392548,800.139771 
	C395.403412,817.168213 373.462708,834.259216 351.463409,851.274475 
	C333.782074,864.950134 316.015503,878.515625 298.339325,892.197937 
	C276.476746,909.120789 254.689026,926.140320 232.830063,943.067871 
	C216.335907,955.840942 199.768600,968.519470 183.255402,981.268005 
	C161.764114,997.859619 140.574631,1014.859314 118.726990,1030.966919 
	C101.023315,1044.019165 88.264961,1060.005127 84.594070,1082.033203 
	C82.344559,1095.531982 84.371620,1108.329956 94.884171,1118.322021 
	C105.816872,1128.713379 119.564224,1132.844482 134.072800,1132.864136 
	C293.881622,1133.080444 453.690857,1133.000000 614.500000,1133.000000 
M745.473572,465.998993 
	C747.918823,464.051025 750.364136,462.103058 753.157471,459.877808 
	C766.544128,469.778137 779.905212,479.659576 793.171265,489.470764 
	C793.171265,462.581146 793.171265,436.094879 793.171265,409.459229 
	C766.678345,409.459229 741.016602,409.459229 715.390381,409.459229 
	C715.390381,435.778442 715.390381,461.636475 715.390381,488.897827 
	C725.846436,480.956177 735.388000,473.709106 745.473572,465.998993 
z"/>
<path fill="#00000000" opacity="1.000000" stroke="none" 
	d="
M1400.484863,1196.933350 
	C1402.440796,1195.953003 1404.787354,1194.631836 1407.292480,1194.169067 
	C1433.596802,1189.310181 1456.102417,1177.433105 1473.932129,1157.442017 
	C1487.345703,1142.402466 1495.260498,1124.511963 1499.008057,1104.746582 
	C1499.280273,1103.310669 1499.857788,1101.932617 1500.565674,1100.288940 
	C1500.837891,1132.128296 1500.837891,1164.206421 1500.837891,1196.991211 
	C1467.600952,1196.991211 1434.275024,1196.991211 1400.484863,1196.933350 
z"/>
<path fill="#00000000" opacity="1.000000" stroke="none" 
	d="
M20.087305,1105.500488 
	C21.102814,1108.306885 22.225529,1111.533936 22.951815,1114.848022 
	C26.944567,1133.066162 35.065567,1149.296509 48.171551,1162.440796 
	C64.069191,1178.385010 83.552887,1188.302246 105.626106,1193.020386 
	C110.048889,1193.965820 114.435768,1195.079468 118.909332,1196.495605 
	C86.114418,1196.875610 53.249378,1196.875610 20.011507,1196.875610 
	C20.011507,1166.382812 20.011507,1136.171997 20.087305,1105.500488 
z"/>
<path fill="#00000000" opacity="1.000000" stroke="none" 
	d="
M737.733154,10.092048 
	C737.698669,10.259056 737.434509,10.354780 737.102112,10.287455 
	C737.033875,10.124406 737.503540,10.020763 737.733154,10.092048 
z"/>
<path fill="#00000000" opacity="1.000000" stroke="none" 
	d="
M771.737305,10.072462 
	C771.721191,10.239412 771.470642,10.354421 771.132324,10.316055 
	C771.044434,10.162681 771.502991,10.020522 771.737305,10.072462 
z"/>
<path fill="#00000000" opacity="1.000000" stroke="none" 
	d="
M127.262543,1196.927612 
	C127.278778,1196.760620 127.529274,1196.645630 127.867455,1196.684082 
	C127.955139,1196.837402 127.496788,1196.979614 127.262543,1196.927612 
z"/>
<path fill="#00000000" opacity="1.000000" stroke="none" 
	d="
M1392.266846,1196.907959 
	C1392.301392,1196.740967 1392.565552,1196.645264 1392.897949,1196.712524 
	C1392.966187,1196.875610 1392.496582,1196.979370 1392.266846,1196.907959 
z"/>
<path fill="#00000000" opacity="1.000000" stroke="none" 
	d="
M614.000000,1133.000000 
	C453.690857,1133.000000 293.881622,1133.080444 134.072800,1132.864136 
	C119.564224,1132.844482 105.816872,1128.713379 94.884171,1118.322021 
	C84.371620,1108.329956 82.344559,1095.531982 84.594070,1082.033203 
	C88.264961,1060.005127 101.023315,1044.019165 118.726990,1030.966919 
	C140.574631,1014.859314 161.764114,997.859619 183.255402,981.268005 
	C199.768600,968.519470 216.335907,955.840942 232.830063,943.067871 
	C254.689026,926.140320 276.476746,909.120789 298.339325,892.197937 
	C316.015503,878.515625 333.782074,864.950134 351.463409,851.274475 
	C373.462708,834.259216 395.403412,817.168213 417.392548,800.139771 
	C433.493774,787.670898 449.626129,775.242249 465.755768,762.810059 
	C487.391296,746.134155 509.037994,729.472717 530.678955,712.803772 
	C553.762573,695.023743 576.862122,677.264221 599.924011,659.455811 
	C632.290405,634.462402 664.629761,609.433838 696.978333,584.417358 
	C714.658752,570.744446 732.338867,557.071228 750.003296,543.377747 
	C751.297974,542.374084 752.464661,541.205261 753.838623,539.981689 
	C771.514526,553.092529 789.063416,566.073181 806.573975,579.105286 
	C836.067688,601.055603 865.540771,623.033875 895.015991,645.009094 
	C928.474365,669.954102 961.891663,694.954224 995.389771,719.845703 
	C1025.697388,742.366333 1056.127075,764.722778 1086.433594,787.244873 
	C1111.955933,806.211670 1137.343384,825.360168 1162.854858,844.341736 
	C1193.281250,866.980103 1223.803589,889.489441 1254.233154,912.123535 
	C1281.075928,932.089905 1307.841797,952.159363 1334.653442,972.167603 
	C1361.332886,992.077148 1388.074951,1011.903015 1414.692017,1031.895508 
	C1426.306030,1040.619019 1432.377808,1053.239380 1435.494141,1066.729492 
	C1439.245605,1082.968872 1438.180298,1099.079712 1427.470703,1113.245605 
	C1420.858765,1121.991333 1411.909912,1126.969604 1401.692871,1130.010254 
	C1392.461304,1132.757324 1383.045654,1134.084351 1373.385254,1133.020996 
	C1372.067993,1132.876099 1370.721191,1132.999878 1369.388062,1132.999878 
	C1117.758667,1132.999878 866.129333,1133.000000 614.000000,1133.000000 
M591.009949,705.495361 
	C577.308105,716.193787 563.609558,726.896423 549.903748,737.589722 
	C517.923889,762.540588 485.951630,787.501282 453.954956,812.430603 
	C430.056610,831.050171 406.135956,849.641235 382.205139,868.219177 
	C355.659637,888.826904 329.080719,909.391602 302.536346,930.000793 
	C281.482880,946.346802 260.471191,962.746582 239.416382,979.090820 
	C232.354614,984.572754 224.663132,989.374939 218.224091,995.501587 
	C202.564911,1010.401062 195.284317,1028.625610 197.923859,1050.580200 
	C200.811859,1074.601318 217.830780,1092.323120 239.712494,1098.898926 
	C248.771667,1101.621460 258.104736,1101.455933 267.626312,1101.226562 
	C304.562439,1100.336792 341.519836,1100.321289 378.469513,1100.003540 
	C418.918365,1099.655518 459.367523,1099.340698 499.816406,1098.997803 
	C537.932556,1098.674561 576.048523,1098.328369 614.164612,1098.002197 
	C653.947021,1097.661865 693.729492,1097.336060 733.511963,1096.999268 
	C772.461243,1096.669434 811.410278,1096.312622 850.359802,1096.005737 
	C895.641174,1095.648926 940.923096,1095.366211 986.204346,1094.989014 
	C1019.488220,1094.711670 1052.771118,1094.302734 1086.054932,1094.008667 
	C1127.503418,1093.642334 1168.952271,1093.294312 1210.401489,1093.018921 
	C1227.564575,1092.904907 1244.729736,1093.081421 1261.892578,1092.953613 
	C1267.514282,1092.911743 1273.291870,1093.052490 1278.722168,1091.856812 
	C1296.803223,1087.875366 1310.694336,1077.876831 1319.775391,1061.511108 
	C1325.207275,1051.721924 1326.583740,1041.137207 1325.979736,1030.193115 
	C1325.002319,1012.483093 1317.725098,997.724182 1303.683228,986.970032 
	C1282.910278,971.060730 1261.675903,955.754272 1240.655396,940.167603 
	C1218.172119,923.496155 1195.736938,906.759705 1173.229858,890.120422 
	C1147.128174,870.823486 1120.948486,851.632080 1094.845093,832.337463 
	C1072.204346,815.602478 1049.647949,798.753662 1027.009033,782.016174 
	C1001.039978,762.816528 974.993164,743.721863 949.032166,724.511292 
	C926.399597,707.763550 903.873230,690.872314 881.238525,674.127441 
	C855.143066,654.822388 828.970520,635.621338 802.850220,616.349792 
	C787.525208,605.043030 772.183105,593.757812 756.981201,582.287292 
	C754.239746,580.218750 752.166687,580.114014 749.579163,582.181580 
	C744.792480,586.006409 739.890625,589.686707 735.057922,593.454285 
	C715.996582,608.314758 696.942566,623.184631 677.887512,638.053284 
	C663.529785,649.256592 649.203186,660.500183 634.810120,671.657898 
	C620.417786,682.815186 605.960083,693.888123 591.009949,705.495361 
z"/>
<path fill="#00000000" opacity="1.000000" stroke="none" 
	d="
M745.201538,466.230530 
	C735.388000,473.709106 725.846436,480.956177 715.390381,488.897827 
	C715.390381,461.636475 715.390381,435.778442 715.390381,409.459229 
	C741.016602,409.459229 766.678345,409.459229 793.171265,409.459229 
	C793.171265,436.094879 793.171265,462.581146 793.171265,489.470764 
	C779.905212,479.659576 766.544128,469.778137 753.157471,459.877808 
	C750.364136,462.103058 747.918823,464.051025 745.201538,466.230530 
z"/>
<path fill="#221F20" opacity="1.000000" stroke="none" 
	d="
M591.270508,705.246704 
	C605.960083,693.888123 620.417786,682.815186 634.810120,671.657898 
	C649.203186,660.500183 663.529785,649.256592 677.887512,638.053284 
	C696.942566,623.184631 715.996582,608.314758 735.057922,593.454285 
	C739.890625,589.686707 744.792480,586.006409 749.579163,582.181580 
	C752.166687,580.114014 754.239746,580.218750 756.981201,582.287292 
	C772.183105,593.757812 787.525208,605.043030 802.850220,616.349792 
	C828.970520,635.621338 855.143066,654.822388 881.238525,674.127441 
	C903.873230,690.872314 926.399597,707.763550 949.032166,724.511292 
	C974.993164,743.721863 1001.039978,762.816528 1027.009033,782.016174 
	C1049.647949,798.753662 1072.204346,815.602478 1094.845093,832.337463 
	C1120.948486,851.632080 1147.128174,870.823486 1173.229858,890.120422 
	C1195.736938,906.759705 1218.172119,923.496155 1240.655396,940.167603 
	C1261.675903,955.754272 1282.910278,971.060730 1303.683228,986.970032 
	C1317.725098,997.724182 1325.002319,1012.483093 1325.979736,1030.193115 
	C1326.583740,1041.137207 1325.207275,1051.721924 1319.775391,1061.511108 
	C1310.694336,1077.876831 1296.803223,1087.875366 1278.722168,1091.856812 
	C1273.291870,1093.052490 1267.514282,1092.911743 1261.892578,1092.953613 
	C1244.729736,1093.081421 1227.564575,1092.904907 1210.401489,1093.018921 
	C1168.952271,1093.294312 1127.503418,1093.642334 1086.054932,1094.008667 
	C1052.771118,1094.302734 1019.488220,1094.711670 986.204346,1094.989014 
	C940.923096,1095.366211 895.641174,1095.648926 850.359802,1096.005737 
	C811.410278,1096.312622 772.461243,1096.669434 733.511963,1096.999268 
	C693.729492,1097.336060 653.947021,1097.661865 614.164612,1098.002197 
	C576.048523,1098.328369 537.932556,1098.674561 499.816406,1098.997803 
	C459.367523,1099.340698 418.918365,1099.655518 378.469513,1100.003540 
	C341.519836,1100.321289 304.562439,1100.336792 267.626312,1101.226562 
	C258.104736,1101.455933 248.771667,1101.621460 239.712494,1098.898926 
	C217.830780,1092.323120 200.811859,1074.601318 197.923859,1050.580200 
	C195.284317,1028.625610 202.564911,1010.401062 218.224091,995.501587 
	C224.663132,989.374939 232.354614,984.572754 239.416382,979.090820 
	C260.471191,962.746582 281.482880,946.346802 302.536346,930.000793 
	C329.080719,909.391602 355.659637,888.826904 382.205139,868.219177 
	C406.135956,849.641235 430.056610,831.050171 453.954956,812.430603 
	C485.951630,787.501282 517.923889,762.540588 549.903748,737.589722 
	C563.609558,726.896423 577.308105,716.193787 591.270508,705.246704 
M550.988953,1035.504272 
	C552.800537,1035.336182 554.610901,1035.036133 556.423889,1035.019531 
	C595.379211,1034.660645 634.334839,1034.327637 673.290466,1034.002075 
	C714.079346,1033.661255 754.868347,1033.342896 795.657227,1032.997192 
	C833.446228,1032.677002 871.234924,1032.319580 909.024048,1032.004395 
	C950.979431,1031.654419 992.934631,1031.251587 1034.890747,1031.018188 
	C1106.679199,1030.618652 1178.468384,1030.335205 1250.257080,1029.982910 
	C1251.264648,1029.978027 1252.270752,1029.714722 1254.090698,1029.456909 
	C1241.062378,1019.929993 1228.730225,1010.998962 1216.489990,1001.943787 
	C1189.990234,982.339844 1163.560059,962.641724 1137.059692,943.038513 
	C1105.898438,919.987427 1074.673218,897.022522 1043.512085,873.971252 
	C1014.217041,852.300598 984.992859,830.534302 955.694702,808.867920 
	C919.734070,782.274536 883.693359,755.789307 847.754150,729.167114 
	C817.540100,706.785889 787.416382,684.282715 757.273010,661.806213 
	C755.113892,660.196289 753.618408,660.181152 751.262146,662.036133 
	C727.323975,680.881958 703.260742,699.569336 679.178162,718.230835 
	C659.023132,733.848816 638.732422,749.292053 618.615356,764.958496 
	C587.652649,789.071106 556.822266,813.353455 525.869446,837.478699 
	C500.926758,856.919617 475.883148,876.231018 450.889496,895.606506 
	C430.214233,911.634399 409.545624,927.670837 388.875641,943.705505 
	C375.399384,954.159790 361.916626,964.605774 348.453827,975.077393 
	C328.981140,990.223816 309.513641,1005.377014 290.065430,1020.554810 
	C282.942749,1026.113525 275.881439,1031.750977 269.237701,1037.000488 
	C285.793243,1037.000488 302.519348,1037.080811 319.244446,1036.985352 
	C370.366913,1036.693237 421.488770,1036.298584 472.611267,1036.014771 
	C498.440643,1035.871338 524.270935,1035.881104 550.988953,1035.504272 
z"/>
<path fill="#00000000" opacity="1.000000" stroke="none" 
	d="
M550.544861,1035.662964 
	C524.270935,1035.881104 498.440643,1035.871338 472.611267,1036.014771 
	C421.488770,1036.298584 370.366913,1036.693237 319.244446,1036.985352 
	C302.519348,1037.080811 285.793243,1037.000488 269.237701,1037.000488 
	C275.881439,1031.750977 282.942749,1026.113525 290.065430,1020.554810 
	C309.513641,1005.377014 328.981140,990.223816 348.453827,975.077393 
	C361.916626,964.605774 375.399384,954.159790 388.875641,943.705505 
	C409.545624,927.670837 430.214233,911.634399 450.889496,895.606506 
	C475.883148,876.231018 500.926758,856.919617 525.869446,837.478699 
	C556.822266,813.353455 587.652649,789.071106 618.615356,764.958496 
	C638.732422,749.292053 659.023132,733.848816 679.178162,718.230835 
	C703.260742,699.569336 727.323975,680.881958 751.262146,662.036133 
	C753.618408,660.181152 755.113892,660.196289 757.273010,661.806213 
	C787.416382,684.282715 817.540100,706.785889 847.754150,729.167114 
	C883.693359,755.789307 919.734070,782.274536 955.694702,808.867920 
	C984.992859,830.534302 1014.217041,852.300598 1043.512085,873.971252 
	C1074.673218,897.022522 1105.898438,919.987427 1137.059692,943.038513 
	C1163.560059,962.641724 1189.990234,982.339844 1216.489990,1001.943787 
	C1228.730225,1010.998962 1241.062378,1019.929993 1254.090698,1029.456909 
	C1252.270752,1029.714722 1251.264648,1029.978027 1250.257080,1029.982910 
	C1178.468384,1030.335205 1106.679199,1030.618652 1034.890747,1031.018188 
	C992.934631,1031.251587 950.979431,1031.654419 909.024048,1032.004395 
	C871.234924,1032.319580 833.446228,1032.677002 795.657227,1032.997192 
	C754.868347,1033.342896 714.079346,1033.661255 673.290466,1034.002075 
	C634.334839,1034.327637 595.379211,1034.660645 556.423889,1035.019531 
	C554.610901,1035.036133 552.800537,1035.336182 550.544861,1035.662964 
z"/>
</svg>