<svg version="1.1" id="Layer_1" xmlns="http://www.w3.org/2000/svg" xmlns:xlink="http://www.w3.org/1999/xlink" x="0px" y="0px"
	 width="100%" viewBox="0 0 842 596" enable-background="new 0 0 842 596" xml:space="preserve">
<path fill="#FFFFFF" opacity="1.000000" stroke="none" 
	d="
M449.000000,597.000000 
	C299.333344,597.000000 150.166672,597.000000 1.000000,597.000000 
	C1.000000,398.333344 1.000000,199.666672 1.000000,1.000000 
	C281.666656,1.000000 562.333313,1.000000 843.000000,1.000000 
	C843.000000,199.666672 843.000000,398.333344 843.000000,597.000000 
	C711.833313,597.000000 580.666687,597.000000 449.000000,597.000000 
M400.992889,128.315964 
	C386.351135,132.812668 375.903015,145.503845 376.220367,158.677383 
	C380.936737,159.066345 385.677948,159.457352 390.349792,159.842651 
	C393.311981,147.590118 402.230865,140.691391 412.441040,142.416245 
	C423.430145,144.272690 430.292877,153.300293 429.016754,164.220795 
	C427.727264,175.255310 418.320496,182.621750 406.391632,181.925980 
	C404.311981,181.804688 402.235138,181.634735 400.000122,181.476120 
	C400.000122,187.097153 399.802185,192.252090 400.078674,197.381485 
	C400.230438,200.197723 399.557068,201.604050 396.887848,203.045563 
	C388.795563,207.415833 384.991913,214.533112 385.084351,223.778244 
	C385.174347,232.776794 385.283539,241.782288 384.991089,250.771927 
	C384.928375,252.699844 383.655090,255.180893 382.131134,256.378693 
	C363.412262,271.091614 344.536316,285.604553 325.714020,300.186096 
	C299.126892,320.782959 272.488983,341.315094 245.998184,362.035187 
	C234.368149,371.131714 230.593155,386.532257 236.750900,398.144165 
	C242.368668,408.737854 252.110016,411.943970 263.114838,411.954102 
	C361.942291,412.045227 460.769867,412.021881 559.597412,411.986847 
	C573.156494,411.982025 583.636414,404.876434 587.497131,393.395264 
	C591.485901,381.533508 586.902771,367.395020 576.446289,359.601471 
	C530.262756,325.179260 484.041534,290.807434 437.949890,256.262634 
	C436.180176,254.936279 434.741547,252.066360 434.621460,249.836395 
	C434.164917,241.357742 434.022095,232.836685 434.307587,224.349823 
	C434.696594,212.784592 427.056946,203.940216 418.068604,200.903992 
	C416.696045,200.440353 415.716400,198.813461 413.879333,197.091095 
	C416.525726,196.403046 417.654175,196.136749 418.766968,195.816284 
	C436.361053,190.749527 447.251038,171.889526 443.353760,153.924103 
	C440.039978,138.648712 423.518951,123.296326 400.992889,128.315964 
z"/>
<path fill="#252122" opacity="1.000000" stroke="none" 
	d="
M401.390930,128.208862 
	C423.518951,123.296326 440.039978,138.648712 443.353760,153.924103 
	C447.251038,171.889526 436.361053,190.749527 418.766968,195.816284 
	C417.654175,196.136749 416.525726,196.403046 413.879333,197.091095 
	C415.716400,198.813461 416.696045,200.440353 418.068604,200.903992 
	C427.056946,203.940216 434.696594,212.784592 434.307587,224.349823 
	C434.022095,232.836685 434.164917,241.357742 434.621460,249.836395 
	C434.741547,252.066360 436.180176,254.936279 437.949890,256.262634 
	C484.041534,290.807434 530.262756,325.179260 576.446289,359.601471 
	C586.902771,367.395020 591.485901,381.533508 587.497131,393.395264 
	C583.636414,404.876434 573.156494,411.982025 559.597412,411.986847 
	C460.769867,412.021881 361.942291,412.045227 263.114838,411.954102 
	C252.110016,411.943970 242.368668,408.737854 236.750900,398.144165 
	C230.593155,386.532257 234.368149,371.131714 245.998184,362.035187 
	C272.488983,341.315094 299.126892,320.782959 325.714020,300.186096 
	C344.536316,285.604553 363.412262,271.091614 382.131134,256.378693 
	C383.655090,255.180893 384.928375,252.699844 384.991089,250.771927 
	C385.283539,241.782288 385.174347,232.776794 385.084351,223.778244 
	C384.991913,214.533112 388.795563,207.415833 396.887848,203.045563 
	C399.557068,201.604050 400.230438,200.197723 400.078674,197.381485 
	C399.802185,192.252090 400.000122,187.097153 400.000122,181.476120 
	C402.235138,181.634735 404.311981,181.804688 406.391632,181.925980 
	C418.320496,182.621750 427.727264,175.255310 429.016754,164.220795 
	C430.292877,153.300293 423.430145,144.272690 412.441040,142.416245 
	C402.230865,140.691391 393.311981,147.590118 390.349792,159.842651 
	C385.677948,159.457352 380.936737,159.066345 376.220367,158.677383 
	C375.903015,145.503845 386.351135,132.812668 401.390930,128.208862 
M417.505157,259.994934 
	C414.877075,258.064545 412.248962,256.134155 409.678040,254.245773 
	C358.118896,294.121277 307.020142,333.638794 255.930573,373.168182 
	C255.012329,373.878632 254.105728,374.648071 253.360550,375.530792 
	C249.750290,379.807648 247.340149,384.750610 249.526550,390.202393 
	C251.725677,395.685913 257.054382,396.750366 262.429260,396.997833 
	C263.427063,397.043793 264.428802,397.005798 265.428711,397.005798 
	C362.754944,397.005951 460.081177,397.006195 557.407410,397.004974 
	C558.740356,397.004944 560.082825,397.086548 561.404785,396.960938 
	C570.210022,396.124176 575.778748,389.623810 573.361023,381.700195 
	C572.101440,377.572021 569.234253,373.158691 565.808167,370.583893 
	C516.703491,333.679108 467.379364,297.066193 417.505157,259.994934 
M400.901978,241.792068 
	C403.820770,239.714737 406.739563,237.637421 409.630463,235.579926 
	C412.826508,237.834305 415.750519,239.896790 418.952850,242.155594 
	C418.952850,235.461273 418.952850,229.302383 418.952850,223.223907 
	C412.494232,223.223907 406.444824,223.223907 400.194641,223.223907 
	C400.194641,229.510117 400.194641,235.463211 400.901978,241.792068 
z"/>
<path fill="#FAF9FA" opacity="1.000000" stroke="none" 
	d="
M417.806610,260.188995 
	C467.379364,297.066193 516.703491,333.679108 565.808167,370.583893 
	C569.234253,373.158691 572.101440,377.572021 573.361023,381.700195 
	C575.778748,389.623810 570.210022,396.124176 561.404785,396.960938 
	C560.082825,397.086548 558.740356,397.004944 557.407410,397.004974 
	C460.081177,397.006195 362.754944,397.005951 265.428711,397.005798 
	C264.428802,397.005798 263.427063,397.043793 262.429260,396.997833 
	C257.054382,396.750366 251.725677,395.685913 249.526550,390.202393 
	C247.340149,384.750610 249.750290,379.807648 253.360550,375.530792 
	C254.105728,374.648071 255.012329,373.878632 255.930573,373.168182 
	C307.020142,333.638794 358.118896,294.121277 409.678040,254.245773 
	C412.248962,256.134155 414.877075,258.064545 417.806610,260.188995 
M403.498932,387.994720 
	C430.819458,387.817505 458.140076,387.658600 485.460419,387.456024 
	C501.115906,387.339935 516.771240,387.187469 532.425842,386.984528 
	C541.528564,386.866516 548.140198,379.545685 546.781311,371.054993 
	C546.000000,366.173309 542.996948,362.776489 539.080811,359.887726 
	C502.645020,333.010254 466.261169,306.062317 429.860321,279.137482 
	C423.088440,274.128479 416.307922,269.131195 409.544617,264.138245 
	C366.710602,297.430176 324.233124,330.402069 281.824860,363.462830 
	C276.773254,367.400970 275.071259,374.040009 277.052460,379.641296 
	C279.009979,385.175568 284.496948,389.013702 291.067047,388.965454 
	C328.211304,388.692841 365.354858,388.328278 403.498932,387.994720 
z"/>
<path fill="#FAF9FA" opacity="1.000000" stroke="none" 
	d="
M400.548309,241.604187 
	C400.194641,235.463211 400.194641,229.510117 400.194641,223.223907 
	C406.444824,223.223907 412.494232,223.223907 418.952850,223.223907 
	C418.952850,229.302383 418.952850,235.461273 418.952850,242.155594 
	C415.750519,239.896790 412.826508,237.834305 409.630463,235.579926 
	C406.739563,237.637421 403.820770,239.714737 400.548309,241.604187 
z"/>
<path fill="#262223" opacity="1.000000" stroke="none" 
	d="
M402.998779,387.994873 
	C365.354858,388.328278 328.211304,388.692841 291.067047,388.965454 
	C284.496948,389.013702 279.009979,385.175568 277.052460,379.641296 
	C275.071259,374.040009 276.773254,367.400970 281.824860,363.462830 
	C324.233124,330.402069 366.710602,297.430176 409.544617,264.138245 
	C416.307922,269.131195 423.088440,274.128479 429.860321,279.137482 
	C466.261169,306.062317 502.645020,333.010254 539.080811,359.887726 
	C542.996948,362.776489 546.000000,366.173309 546.781311,371.054993 
	C548.140198,379.545685 541.528564,386.866516 532.425842,386.984528 
	C516.771240,387.187469 501.115906,387.339935 485.460419,387.456024 
	C458.140076,387.658600 430.819458,387.817505 402.998779,387.994873 
M299.928314,368.416687 
	C297.894012,370.027252 295.859680,371.637817 292.791290,374.067078 
	C372.265198,373.364899 450.501770,372.673676 530.102722,371.970367 
	C489.262085,341.747559 449.590454,312.389832 409.784180,282.932465 
	C373.237671,311.363647 336.858490,339.664703 299.928314,368.416687 
z"/>
<path fill="#FDFDFD" opacity="1.000000" stroke="none" 
	d="
M300.203796,368.191223 
	C336.858490,339.664703 373.237671,311.363647 409.784180,282.932465 
	C449.590454,312.389832 489.262085,341.747559 530.102722,371.970367 
	C450.501770,372.673676 372.265198,373.364899 292.791290,374.067078 
	C295.859680,371.637817 297.894012,370.027252 300.203796,368.191223 
z"/>
</svg>