<?xml version="1.0" encoding="UTF-8" standalone="no"?>
<svg
   xmlns:dc="http://purl.org/dc/elements/1.1/"
   xmlns:cc="http://creativecommons.org/ns#"
   xmlns:rdf="http://www.w3.org/1999/02/22-rdf-syntax-ns#"
   xmlns:svg="http://www.w3.org/2000/svg"
   xmlns="http://www.w3.org/2000/svg"
   viewBox="0 0 377.95334 377.95334"
   height="377.95334"
   width="377.95334"
   xml:space="preserve"
   id="svg2"
   version="1.1"><metadata
     id="metadata8"><rdf:RDF><cc:Work
         rdf:about=""><dc:format>image/svg+xml</dc:format><dc:type
           rdf:resource="http://purl.org/dc/dcmitype/StillImage" /></cc:Work></rdf:RDF></metadata><defs
     id="defs6"><clipPath
       id="clipPath18"
       clipPathUnits="userSpaceOnUse"><path
         id="path16"
         d="M 0,283.465 H 283.465 V 0 H 0 Z" /></clipPath></defs><g
     transform="matrix(1.3333333,0,0,-1.3333333,0,377.95333)"
     id="g10"><g
       id="g12"><g
         clip-path="url(#clipPath18)"
         id="g14"><g
           transform="translate(113.4291,164.7021)"
           id="g20"><path
             id="path22"
             style="fill:none;stroke:#231f20;stroke-width:7;stroke-linecap:butt;stroke-linejoin:miter;stroke-miterlimit:10;stroke-dasharray:none;stroke-opacity:1"
             d="m 0,0 -31.773,6.011 -16.03,-97.61 c -4.568,-0.27 -7.637,-4.045 -7.226,-7.448 0.297,-2.454 2.393,-4.64 5.222,-5.433 24.331,-4.294 48.662,-8.588 72.993,-12.881 2.955,-1.013 6.003,-0.323 7.341,1.491 1.813,2.458 0.8,7.41 -3.62,9.672 0.859,4.866 2.496,15.675 3.355,20.541" /></g><g
           transform="translate(95.8459,136.221)"
           id="g24"><path
             id="path26"
             style="fill:none;stroke:#231f20;stroke-width:7;stroke-linecap:butt;stroke-linejoin:miter;stroke-miterlimit:10;stroke-dasharray:none;stroke-opacity:1"
             d="M 0,0 -12.302,-69.298" /></g><g
           transform="translate(115.1183,132.5306)"
           id="g28"><path
             id="path30"
             style="fill:none;stroke:#231f20;stroke-width:7;stroke-linecap:butt;stroke-linejoin:miter;stroke-miterlimit:10;stroke-dasharray:none;stroke-opacity:1"
             d="M 0,0 -11.6,-68.888" /></g><g
           transform="translate(127.4198,99.3165)"
           id="g32"><path
             id="path34"
             style="fill:none;stroke:#231f20;stroke-width:7;stroke-linecap:butt;stroke-linejoin:miter;stroke-miterlimit:10;stroke-dasharray:none;stroke-opacity:1"
             d="M 0,0 -5.741,-38.34" /></g><g
           transform="translate(116.3484,153.2381)"
           id="g36"><path
             id="path38"
             style="fill:none;stroke:#231f20;stroke-width:7;stroke-linecap:butt;stroke-linejoin:miter;stroke-miterlimit:10;stroke-dasharray:none;stroke-opacity:1"
             d="M 0,0 -36.513,6.392" /></g><g
           transform="translate(188.7223,183.7868)"
           id="g40"><path
             id="path42"
             style="fill:none;stroke:#231f20;stroke-width:7;stroke-linecap:butt;stroke-linejoin:miter;stroke-miterlimit:10;stroke-dasharray:none;stroke-opacity:1"
             d="m 0,0 34.034,-95.337 c 2.399,0.543 4.781,-0.85 5.45,-3.045 0.596,-1.957 -0.285,-4.171 -2.169,-5.258 -23.92,-8.85 -47.84,-17.701 -71.759,-26.551 -3.297,-1.926 -7.365,-0.412 -8.564,2.546 -1.079,2.664 0.302,6.168 3.438,7.5 -11.345,31.996 -24.378,69.064 -35.723,101.06" /></g><g
           transform="translate(144.8101,134.7086)"
           id="g44"><path
             id="path46"
             style="fill:none;stroke:#231f20;stroke-width:7;stroke-linecap:butt;stroke-linejoin:miter;stroke-miterlimit:10;stroke-dasharray:none;stroke-opacity:1"
             d="M 0,0 22.722,-65.918" /></g><g
           transform="translate(162.9391,139.8416)"
           id="g48"><path
             id="path50"
             style="fill:none;stroke:#231f20;stroke-width:7;stroke-linecap:butt;stroke-linejoin:miter;stroke-miterlimit:10;stroke-dasharray:none;stroke-opacity:1"
             d="M 0,0 22.423,-64.567" /></g><g
           transform="translate(181.3097,147.1358)"
           id="g52"><path
             id="path54"
             style="fill:none;stroke:#231f20;stroke-width:7;stroke-linecap:butt;stroke-linejoin:miter;stroke-miterlimit:10;stroke-dasharray:none;stroke-opacity:1"
             d="M 0,0 23.233,-65.648" /></g><g
           transform="translate(191.2953,176.5792)"
           id="g56"><path
             id="path58"
             style="fill:none;stroke:#231f20;stroke-width:7;stroke-linecap:butt;stroke-linejoin:miter;stroke-miterlimit:10;stroke-dasharray:none;stroke-opacity:1"
             d="m 0,0 13.248,5.677 c 1.285,0.599 3.915,1.606 7.294,1.351 5.01,-0.38 8.242,-3.276 9.185,-4.19 6.844,-17.964 13.688,-35.929 20.532,-53.894 0.87,-2.284 2.86,-7.307 1.249,-12.867 -0.973,-3.355 -2.903,-5.7 -4.146,-6.994 -2.059,-1.741 -4.975,-3.861 -8.783,-5.69 -3.857,-1.852 -7.378,-2.805 -10.046,-3.319" /></g><g
           transform="translate(194.3607,167.0461)"
           id="g60"><path
             id="path62"
             style="fill:none;stroke:#231f20;stroke-width:7;stroke-linecap:butt;stroke-linejoin:miter;stroke-miterlimit:10;stroke-dasharray:none;stroke-opacity:1"
             d="m 0,0 10.182,3.667 c 0.685,0.348 2.801,1.311 5.52,0.826 3.149,-0.562 4.922,-2.677 5.353,-3.222 5.154,-14.581 10.309,-29.161 15.464,-43.742 0.309,-0.774 2.638,-6.848 -0.572,-11.085 -0.437,-0.578 -1.05,-1.217 -1.917,-1.802 -4.034,-1.707 -8.068,-3.413 -12.102,-5.12" /></g><g
           transform="translate(129.041,150.5346)"
           id="g64"><path
             id="path66"
             style="fill:none;stroke:#231f20;stroke-width:7;stroke-linecap:butt;stroke-linejoin:miter;stroke-miterlimit:10;stroke-dasharray:none;stroke-opacity:1"
             d="M 0,0 -9.493,-3.399" /></g><g
           transform="translate(192.4838,173.2501)"
           id="g68"><path
             id="path70"
             style="fill:none;stroke:#231f20;stroke-width:7;stroke-linecap:butt;stroke-linejoin:miter;stroke-miterlimit:10;stroke-dasharray:none;stroke-opacity:1"
             d="M 0,0 -30.676,-10.983" /></g><g
           transform="translate(79.068,154.9565)"
           id="g72"><path
             id="path74"
             style="fill:none;stroke:#231f20;stroke-width:7;stroke-linecap:butt;stroke-linejoin:miter;stroke-miterlimit:10;stroke-dasharray:none;stroke-opacity:1"
             d="m 0,0 -13.593,1.478 c -1.08,0.141 -1.908,-0.026 -2.47,-0.215 -2.572,-0.865 -4.339,-3.784 -4.642,-7.384 -2.243,-14.92 -4.486,-29.839 -6.73,-44.759 -0.147,-1.064 -0.36,-3.685 1.006,-6.526 1.011,-2.103 2.44,-3.396 3.273,-4.044 4.261,-0.571 8.522,-1.141 12.783,-1.712" /></g><g
           transform="translate(80.8025,165.518)"
           id="g76"><path
             id="path78"
             style="fill:none;stroke:#231f20;stroke-width:7;stroke-linecap:butt;stroke-linejoin:miter;stroke-miterlimit:10;stroke-dasharray:none;stroke-opacity:1"
             d="m 0,0 -19.335,2.24 c -1.75,0 -3.41,-0.533 -5.472,-1.621 -5.423,-2.864 -7.24,-8.299 -7.663,-9.703 -2.852,-19.039 -5.703,-38.078 -8.554,-57.118 -0.111,-1.189 -0.381,-5.601 2.578,-9.865 2.764,-3.983 6.613,-5.341 7.808,-5.712 5.613,-0.751 11.226,-1.501 16.838,-2.251" /></g><g
           transform="translate(82.1512,173.706)"
           id="g80"><path
             id="path82"
             style="fill:none;stroke:#231f20;stroke-width:7;stroke-linecap:butt;stroke-linejoin:miter;stroke-miterlimit:10;stroke-dasharray:none;stroke-opacity:1"
             d="m 0,0 c 1.977,12.791 12.45,15.929 22.906,15.204 6.941,-0.481 9.601,-0.957 17.511,-9.029" /></g><g
           transform="translate(122.568,177.7696)"
           id="g84"><path
             id="path86"
             style="fill:none;stroke:#231f20;stroke-width:7;stroke-linecap:butt;stroke-linejoin:round;stroke-miterlimit:10;stroke-dasharray:none;stroke-opacity:1"
             d="m 0,0 c -6.189,-7.043 -8.502,-13.499 -6.408,-15.95 0.324,-0.38 1.879,-1.981 7.277,-0.692 0.632,2.113 2.65,3.315 4.347,2.981 2.012,-0.397 3.555,-2.947 2.608,-5.465 -1.337,-5.823 2.68,-10.762 6.582,-11.053 3.802,-0.284 8.391,3.777 8.197,9.563 5.196,-7.981 12.713,-10.392 15.66,-8.334 2.672,1.866 2.974,8.377 -0.384,15.04 -3.072,3.313 -3.269,7.392 -1.49,9.191 1.235,1.25 3.213,1.185 3.982,1.117 3.112,0.144 7.559,0.706 12.535,2.608 3.917,1.498 6.984,3.374 9.191,4.968 2.278,0.307 3.63,0.988 4.057,2.043 C 67.199,8.6 62.7,13.425 52.658,20.492 51.077,20.928 44.729,22.484 38.003,19.126 32.676,16.466 30.08,12.207 29.185,10.556 27.893,10.897 23.388,11.915 18.381,9.687 13.441,7.489 11.183,3.542 10.556,2.348 Z" /></g><g
           transform="translate(79.8356,245.6431)"
           id="g88"><path
             id="path90"
             style="fill:none;stroke:#231f20;stroke-width:7;stroke-linecap:butt;stroke-linejoin:miter;stroke-miterlimit:10;stroke-dasharray:none;stroke-opacity:1"
             d="m 0,0 c 0,-4.438 -3.598,-8.035 -8.035,-8.035 -4.438,0 -8.036,3.597 -8.036,8.035 0,4.438 3.598,8.035 8.036,8.035 C -3.598,8.035 0,4.438 0,0 Z" /></g><g
           transform="translate(102.2623,214.9999)"
           id="g92"><path
             id="path94"
             style="fill:none;stroke:#231f20;stroke-width:7;stroke-linecap:butt;stroke-linejoin:miter;stroke-miterlimit:10;stroke-dasharray:none;stroke-opacity:1"
             d="m 0,0 c 0,-4.898 -3.97,-8.868 -8.868,-8.868 -4.898,0 -8.868,3.97 -8.868,8.868 0,4.898 3.97,8.868 8.868,8.868 C -3.97,8.868 0,4.898 0,0 Z" /></g><g
           transform="translate(158.7941,220.7213)"
           id="g96"><path
             id="path98"
             style="fill:none;stroke:#231f20;stroke-width:7;stroke-linecap:butt;stroke-linejoin:miter;stroke-miterlimit:10;stroke-dasharray:none;stroke-opacity:1"
             d="m 0,0 c 0,-7.723 -6.261,-13.984 -13.984,-13.984 -7.723,0 -13.984,6.261 -13.984,13.984 0,7.723 6.261,13.984 13.984,13.984 C -6.261,13.984 0,7.723 0,0 Z" /></g><g
           transform="translate(182.8542,242.8873)"
           id="g100"><path
             id="path102"
             style="fill:none;stroke:#231f20;stroke-width:7;stroke-linecap:butt;stroke-linejoin:miter;stroke-miterlimit:10;stroke-dasharray:none;stroke-opacity:1"
             d="m 0,0 c -1.522,-3.689 -5.747,-5.446 -9.436,-3.924 -3.689,1.522 -5.446,5.746 -3.924,9.436 1.522,3.689 5.747,5.446 9.436,3.924 C -0.235,7.914 1.522,3.689 0,0 Z" /></g></g></g></g></svg>