<?xml version="1.0" encoding="UTF-8"?>
<svg xmlns="http://www.w3.org/2000/svg" xmlns:xlink="http://www.w3.org/1999/xlink" width="283.465pt" height="283.465pt" viewBox="0 0 283.465 283.465" version="1.1">
<defs>
<clipPath id="clip1">
  <path d="M 0 0 L 283.464844 0 L 283.464844 283.464844 L 0 283.464844 Z M 0 0 "/>
</clipPath>
<clipPath id="clip2">
  <path d="M 6 0 L 283.464844 0 L 283.464844 278 L 6 278 Z M 6 0 "/>
</clipPath>
<clipPath id="clip3">
  <path d="M 58 0 L 283.464844 0 L 283.464844 278 L 58 278 Z M 58 0 "/>
</clipPath>
<clipPath id="clip4">
  <path d="M 0 11 L 218 11 L 218 283.464844 L 0 283.464844 Z M 0 11 "/>
</clipPath>
<clipPath id="clip5">
  <path d="M 0 11 L 269 11 L 269 283.464844 L 0 283.464844 Z M 0 11 "/>
</clipPath>
<clipPath id="clip6">
  <path d="M 6 11 L 283.464844 11 L 283.464844 283.464844 L 6 283.464844 Z M 6 11 "/>
</clipPath>
<clipPath id="clip7">
  <path d="M 58 11 L 283.464844 11 L 283.464844 283.464844 L 58 283.464844 Z M 58 11 "/>
</clipPath>
<clipPath id="clip8">
  <path d="M 0 60 L 218 60 L 218 283.464844 L 0 283.464844 Z M 0 60 "/>
</clipPath>
<clipPath id="clip9">
  <path d="M 0 60 L 269 60 L 269 283.464844 L 0 283.464844 Z M 0 60 "/>
</clipPath>
<clipPath id="clip10">
  <path d="M 6 60 L 283.464844 60 L 283.464844 283.464844 L 6 283.464844 Z M 6 60 "/>
</clipPath>
</defs>
<g id="surface1">
<g clip-path="url(#clip1)" clip-rule="nonzero">
<path style="fill:none;stroke-width:10.247;stroke-linecap:butt;stroke-linejoin:miter;stroke:rgb(13.729858%,12.159729%,12.548828%);stroke-opacity:1;stroke-miterlimit:10;" d="M -0.00130625 -0.00055625 L -187.177087 -0.00055625 C -196.419275 -0.00055625 -203.911462 7.491631 -203.911462 16.733819 L -203.911462 212.979912 C -203.911462 222.2221 -196.419275 229.714287 -187.177087 229.714287 L -0.00130625 229.714287 C 9.240881 229.714287 16.733069 222.2221 16.733069 212.979912 L 16.733069 16.733819 C 16.733069 7.491631 9.240881 -0.00055625 -0.00130625 -0.00055625 Z M -0.00130625 -0.00055625 " transform="matrix(1,0,0,-1,232.5599,263.9721)"/>
</g>
<path style="fill:none;stroke-width:10.247;stroke-linecap:round;stroke-linejoin:miter;stroke:rgb(13.729858%,12.159729%,12.548828%);stroke-opacity:1;stroke-miterlimit:10;" d="M 0.0014375 -0.001425 L 41.712375 -0.001425 " transform="matrix(1,0,0,-1,28.647,83.8267)"/>
<path style="fill:none;stroke-width:10.247;stroke-linecap:round;stroke-linejoin:miter;stroke:rgb(13.729858%,12.159729%,12.548828%);stroke-opacity:1;stroke-miterlimit:10;" d="M 0.001875 -0.001425 L -178.935625 -0.001425 " transform="matrix(1,0,0,-1,249.295,83.8267)"/>
<path style="fill:none;stroke-width:10.247;stroke-linecap:round;stroke-linejoin:miter;stroke:rgb(13.729858%,12.159729%,12.548828%);stroke-opacity:1;stroke-miterlimit:10;" d="M -0.00168125 0.00074375 L -18.150119 0.00074375 C -19.958713 0.00074375 -21.423556 1.465587 -21.423556 3.274181 L -21.423556 21.422619 C -21.423556 23.231212 -19.958713 24.696056 -18.150119 24.696056 L -0.00168125 24.696056 C 1.806912 24.696056 3.271756 23.231212 3.271756 21.422619 L 3.271756 3.274181 C 3.271756 1.465587 1.806912 0.00074375 -0.00168125 0.00074375 Z M -0.00168125 0.00074375 " transform="matrix(1,0,0,-1,69.2634,132.6609)"/>
<path style="fill:none;stroke-width:10.247;stroke-linecap:round;stroke-linejoin:miter;stroke:rgb(13.729858%,12.159729%,12.548828%);stroke-opacity:1;stroke-miterlimit:10;" d="M -0.00126875 0.00074375 L -18.149706 0.00074375 C -19.9583 0.00074375 -21.423144 1.465587 -21.423144 3.274181 L -21.423144 21.422619 C -21.423144 23.231212 -19.9583 24.696056 -18.149706 24.696056 L -0.00126875 24.696056 C 1.807325 24.696056 3.272169 23.231212 3.272169 21.422619 L 3.272169 3.274181 C 3.272169 1.465587 1.807325 0.00074375 -0.00126875 0.00074375 Z M -0.00126875 0.00074375 " transform="matrix(1,0,0,-1,120.5833,132.6609)"/>
<g clip-path="url(#clip2)" clip-rule="nonzero">
<path style="fill:none;stroke-width:10.247;stroke-linecap:round;stroke-linejoin:miter;stroke:rgb(13.729858%,12.159729%,12.548828%);stroke-opacity:1;stroke-miterlimit:10;" d="M 0.0012 0.00074375 L -18.151144 0.00074375 C -19.959738 0.00074375 -21.424581 1.465587 -21.424581 3.274181 L -21.424581 21.422619 C -21.424581 23.231212 -19.959738 24.696056 -18.151144 24.696056 L 0.0012 24.696056 C 1.805887 24.696056 3.274637 23.231212 3.274637 21.422619 L 3.274637 3.274181 C 3.274637 1.465587 1.805887 0.00074375 0.0012 0.00074375 Z M 0.0012 0.00074375 " transform="matrix(1,0,0,-1,173.1863,132.6609)"/>
</g>
<g clip-path="url(#clip3)" clip-rule="nonzero">
<path style="fill:none;stroke-width:10.247;stroke-linecap:round;stroke-linejoin:miter;stroke:rgb(13.729858%,12.159729%,12.548828%);stroke-opacity:1;stroke-miterlimit:10;" d="M 0.001225 0.00074375 L -18.151119 0.00074375 C -19.959713 0.00074375 -21.424556 1.465587 -21.424556 3.274181 L -21.424556 21.422619 C -21.424556 23.231212 -19.959713 24.696056 -18.151119 24.696056 L 0.001225 24.696056 C 1.805912 24.696056 3.274662 23.231212 3.274662 21.422619 L 3.274662 3.274181 C 3.274662 1.465587 1.805912 0.00074375 0.001225 0.00074375 Z M 0.001225 0.00074375 " transform="matrix(1,0,0,-1,224.8269,132.6609)"/>
</g>
<g clip-path="url(#clip4)" clip-rule="nonzero">
<path style="fill:none;stroke-width:10.247;stroke-linecap:round;stroke-linejoin:miter;stroke:rgb(13.729858%,12.159729%,12.548828%);stroke-opacity:1;stroke-miterlimit:10;" d="M 0.001275 -0.00079375 L -18.151069 -0.00079375 C -19.959662 -0.00079375 -21.424506 1.46405 -21.424506 3.272644 L -21.424506 21.424987 C -21.424506 23.233581 -19.959662 24.698425 -18.151069 24.698425 L 0.001275 24.698425 C 1.805963 24.698425 3.274713 23.233581 3.274713 21.424987 L 3.274713 3.272644 C 3.274713 1.46405 1.805963 -0.00079375 0.001275 -0.00079375 Z M 0.001275 -0.00079375 " transform="matrix(1,0,0,-1,69.3581,181.4953)"/>
</g>
<g clip-path="url(#clip5)" clip-rule="nonzero">
<path style="fill:none;stroke-width:10.247;stroke-linecap:round;stroke-linejoin:miter;stroke:rgb(13.729858%,12.159729%,12.548828%);stroke-opacity:1;stroke-miterlimit:10;" d="M 0.0016875 -0.00079375 L -18.150656 -0.00079375 C -19.95925 -0.00079375 -21.424094 1.46405 -21.424094 3.272644 L -21.424094 21.424987 C -21.424094 23.233581 -19.95925 24.698425 -18.150656 24.698425 L 0.0016875 24.698425 C 1.806375 24.698425 3.271219 23.233581 3.271219 21.424987 L 3.271219 3.272644 C 3.271219 1.46405 1.806375 -0.00079375 0.0016875 -0.00079375 Z M 0.0016875 -0.00079375 " transform="matrix(1,0,0,-1,120.678,181.4953)"/>
</g>
<g clip-path="url(#clip6)" clip-rule="nonzero">
<path style="fill:none;stroke-width:10.247;stroke-linecap:round;stroke-linejoin:miter;stroke:rgb(13.729858%,12.159729%,12.548828%);stroke-opacity:1;stroke-miterlimit:10;" d="M 0.00025 -0.00079375 L -18.152094 -0.00079375 C -19.960688 -0.00079375 -21.425531 1.46405 -21.425531 3.272644 L -21.425531 21.424987 C -21.425531 23.233581 -19.960688 24.698425 -18.152094 24.698425 L 0.00025 24.698425 C 1.808844 24.698425 3.273687 23.233581 3.273687 21.424987 L 3.273687 3.272644 C 3.273687 1.46405 1.808844 -0.00079375 0.00025 -0.00079375 Z M 0.00025 -0.00079375 " transform="matrix(1,0,0,-1,173.281,181.4953)"/>
</g>
<g clip-path="url(#clip7)" clip-rule="nonzero">
<path style="fill:none;stroke-width:10.247;stroke-linecap:round;stroke-linejoin:miter;stroke:rgb(13.729858%,12.159729%,12.548828%);stroke-opacity:1;stroke-miterlimit:10;" d="M 0.000275 -0.00079375 L -18.152069 -0.00079375 C -19.960663 -0.00079375 -21.425506 1.46405 -21.425506 3.272644 L -21.425506 21.424987 C -21.425506 23.233581 -19.960663 24.698425 -18.152069 24.698425 L 0.000275 24.698425 C 1.808869 24.698425 3.273712 23.233581 3.273712 21.424987 L 3.273712 3.272644 C 3.273712 1.46405 1.808869 -0.00079375 0.000275 -0.00079375 Z M 0.000275 -0.00079375 " transform="matrix(1,0,0,-1,224.9216,181.4953)"/>
</g>
<g clip-path="url(#clip8)" clip-rule="nonzero">
<path style="fill:none;stroke-width:10.247;stroke-linecap:round;stroke-linejoin:miter;stroke:rgb(13.729858%,12.159729%,12.548828%);stroke-opacity:1;stroke-miterlimit:10;" d="M 0.001275 0.001375 L -18.151069 0.001375 C -19.959662 0.001375 -21.424506 1.466219 -21.424506 3.274812 L -21.424506 21.42325 C -21.424506 23.231844 -19.959662 24.696687 -18.151069 24.696687 L 0.001275 24.696687 C 1.805963 24.696687 3.274713 23.231844 3.274713 21.42325 L 3.274713 3.274812 C 3.274713 1.466219 1.805963 0.001375 0.001275 0.001375 Z M 0.001275 0.001375 " transform="matrix(1,0,0,-1,69.3581,230.3295)"/>
</g>
<g clip-path="url(#clip9)" clip-rule="nonzero">
<path style="fill:none;stroke-width:10.247;stroke-linecap:round;stroke-linejoin:miter;stroke:rgb(13.729858%,12.159729%,12.548828%);stroke-opacity:1;stroke-miterlimit:10;" d="M 0.0016875 0.001375 L -18.150656 0.001375 C -19.95925 0.001375 -21.424094 1.466219 -21.424094 3.274812 L -21.424094 21.42325 C -21.424094 23.231844 -19.95925 24.696687 -18.150656 24.696687 L 0.0016875 24.696687 C 1.806375 24.696687 3.271219 23.231844 3.271219 21.42325 L 3.271219 3.274812 C 3.271219 1.466219 1.806375 0.001375 0.0016875 0.001375 Z M 0.0016875 0.001375 " transform="matrix(1,0,0,-1,120.678,230.3295)"/>
</g>
<g clip-path="url(#clip10)" clip-rule="nonzero">
<path style="fill:none;stroke-width:10.247;stroke-linecap:round;stroke-linejoin:miter;stroke:rgb(13.729858%,12.159729%,12.548828%);stroke-opacity:1;stroke-miterlimit:10;" d="M 0.00025 0.001375 L -18.152094 0.001375 C -19.960688 0.001375 -21.425531 1.466219 -21.425531 3.274812 L -21.425531 21.42325 C -21.425531 23.231844 -19.960688 24.696687 -18.152094 24.696687 L 0.00025 24.696687 C 1.808844 24.696687 3.273687 23.231844 3.273687 21.42325 L 3.273687 3.274812 C 3.273687 1.466219 1.808844 0.001375 0.00025 0.001375 Z M 0.00025 0.001375 " transform="matrix(1,0,0,-1,173.281,230.3295)"/>
</g>
<path style="fill:none;stroke-width:10.247;stroke-linecap:round;stroke-linejoin:round;stroke:rgb(13.729858%,12.159729%,12.548828%);stroke-opacity:1;stroke-miterlimit:10;" d="M 0.001875 -0.00115 L -48.779375 -46.508963 L -220.220781 -48.075369 " transform="matrix(1,0,0,-1,249.295,202.9051)"/>
<path style="fill:none;stroke-width:10.247;stroke-linecap:round;stroke-linejoin:round;stroke:rgb(13.729858%,12.159729%,12.548828%);stroke-opacity:1;stroke-miterlimit:10;" d="M 0.0006875 0.0005375 L -33.358687 0.0005375 C -34.604781 -0.233838 -38.108687 -1.05415 -41.057906 -4.171338 C -44.589156 -7.905713 -44.8665 -12.339306 -44.905562 -13.472119 C -45.011031 -25.979931 -45.120406 -38.49165 -45.225875 -50.999463 " transform="matrix(1,0,0,-1,245.7415,198.4146)"/>
<path style="fill:none;stroke-width:10.247;stroke-linecap:round;stroke-linejoin:round;stroke:rgb(13.729858%,12.159729%,12.548828%);stroke-opacity:1;stroke-miterlimit:10;" d="M 0.0000375 0.00154375 L 0.0000375 12.1617 C -1.249962 17.528887 -6.30465 20.69295 -10.726525 19.732012 C -14.074181 19.009356 -16.781212 15.985919 -17.4609 12.1617 C -17.42965 2.333575 -17.3984 -7.49455 -17.36715 -17.322675 C -16.999962 -22.865644 -12.0859 -26.709394 -7.382775 -26.037519 " transform="matrix(1,0,0,-1,77.6484,28.7867)"/>
<path style="fill:none;stroke-width:10.247;stroke-linecap:round;stroke-linejoin:round;stroke:rgb(13.729858%,12.159729%,12.548828%);stroke-opacity:1;stroke-miterlimit:10;" d="M 0.00165625 -0.00054375 L 0.00165625 12.163519 C -1.25225 17.530706 -6.303031 20.690862 -10.728813 19.733831 C -14.072563 19.007269 -16.7835 15.987737 -17.459281 12.163519 C -17.428031 2.335394 -17.396781 -7.496638 -17.365531 -17.324763 C -16.998344 -22.863825 -12.084281 -26.711481 -7.385063 -26.0357 " transform="matrix(1,0,0,-1,215.846,31.1518)"/>
</g>
</svg>
