<?xml version="1.0" encoding="UTF-8" standalone="no"?>
<svg
   xmlns:dc="http://purl.org/dc/elements/1.1/"
   xmlns:cc="http://creativecommons.org/ns#"
   xmlns:rdf="http://www.w3.org/1999/02/22-rdf-syntax-ns#"
   xmlns:svg="http://www.w3.org/2000/svg"
   xmlns="http://www.w3.org/2000/svg"
   viewBox="0 0 377.95334 377.95334"
   height="377.95334"
   width="377.95334"
   xml:space="preserve"
   id="svg2"
   version="1.1"><metadata
     id="metadata8"><rdf:RDF><cc:Work
         rdf:about=""><dc:format>image/svg+xml</dc:format><dc:type
           rdf:resource="http://purl.org/dc/dcmitype/StillImage" /></cc:Work></rdf:RDF></metadata><defs
     id="defs6"><clipPath
       id="clipPath18"
       clipPathUnits="userSpaceOnUse"><path
         id="path16"
         d="M 0,0 H 283.465 V 283.465 H 0 Z" /></clipPath><clipPath
       id="clipPath38"
       clipPathUnits="userSpaceOnUse"><path
         id="path36"
         d="M 0,0 H 283.465 V 283.465 H 0 Z" /></clipPath><clipPath
       id="clipPath94"
       clipPathUnits="userSpaceOnUse"><path
         id="path92"
         d="M 0,0 H 283.465 V 283.465 H 0 Z" /></clipPath></defs><g
     transform="matrix(1.3333333,0,0,-1.3333333,0,377.95333)"
     id="g10"><g
       id="g12"><g
         clip-path="url(#clipPath18)"
         id="g14"><g
           transform="translate(232.5599,19.4929)"
           id="g20"><path
             id="path22"
             style="fill:none;stroke:#231f20;stroke-width:10.24699974;stroke-linecap:butt;stroke-linejoin:miter;stroke-miterlimit:10;stroke-dasharray:none;stroke-opacity:1"
             d="m 0,0 h -187.177 c -9.243,0 -16.736,7.492 -16.736,16.735 V 212.98 c 0,9.243 7.493,16.736 16.736,16.736 H 0 c 9.242,0 16.735,-7.493 16.735,-16.736 V 16.735 C 16.735,7.492 9.242,0 0,0 Z" /></g></g></g><g
       transform="translate(28.647,199.6383)"
       id="g24"><path
         id="path26"
         style="fill:none;stroke:#231f20;stroke-width:10.24699974;stroke-linecap:round;stroke-linejoin:miter;stroke-miterlimit:10;stroke-dasharray:none;stroke-opacity:1"
         d="M 0,0 H 41.712" /></g><g
       transform="translate(249.295,199.6383)"
       id="g28"><path
         id="path30"
         style="fill:none;stroke:#231f20;stroke-width:10.24699974;stroke-linecap:round;stroke-linejoin:miter;stroke-miterlimit:10;stroke-dasharray:none;stroke-opacity:1"
         d="M 0,0 H -178.936" /></g><g
       id="g32"><g
         clip-path="url(#clipPath38)"
         id="g34"><g
           transform="translate(69.2634,150.8041)"
           id="g40"><path
             id="path42"
             style="fill:none;stroke:#231f20;stroke-width:10.24699974;stroke-linecap:round;stroke-linejoin:miter;stroke-miterlimit:10;stroke-dasharray:none;stroke-opacity:1"
             d="m 0,0 h -18.151 c -1.808,0 -3.273,1.465 -3.273,3.273 v 18.151 c 0,1.808 1.465,3.274 3.273,3.274 H 0 c 1.807,0 3.273,-1.466 3.273,-3.274 V 3.273 C 3.273,1.465 1.807,0 0,0 Z" /></g><g
           transform="translate(120.5833,150.8041)"
           id="g44"><path
             id="path46"
             style="fill:none;stroke:#231f20;stroke-width:10.24699974;stroke-linecap:round;stroke-linejoin:miter;stroke-miterlimit:10;stroke-dasharray:none;stroke-opacity:1"
             d="m 0,0 h -18.151 c -1.808,0 -3.273,1.465 -3.273,3.273 v 18.151 c 0,1.808 1.465,3.274 3.273,3.274 H 0 c 1.807,0 3.273,-1.466 3.273,-3.274 V 3.273 C 3.273,1.465 1.807,0 0,0 Z" /></g><g
           transform="translate(173.1863,150.8041)"
           id="g48"><path
             id="path50"
             style="fill:none;stroke:#231f20;stroke-width:10.24699974;stroke-linecap:round;stroke-linejoin:miter;stroke-miterlimit:10;stroke-dasharray:none;stroke-opacity:1"
             d="m 0,0 h -18.151 c -1.808,0 -3.273,1.465 -3.273,3.273 v 18.151 c 0,1.808 1.465,3.274 3.273,3.274 H 0 c 1.807,0 3.273,-1.466 3.273,-3.274 V 3.273 C 3.273,1.465 1.807,0 0,0 Z" /></g><g
           transform="translate(224.8269,150.8041)"
           id="g52"><path
             id="path54"
             style="fill:none;stroke:#231f20;stroke-width:10.24699974;stroke-linecap:round;stroke-linejoin:miter;stroke-miterlimit:10;stroke-dasharray:none;stroke-opacity:1"
             d="m 0,0 h -18.151 c -1.808,0 -3.273,1.465 -3.273,3.273 v 18.151 c 0,1.808 1.465,3.274 3.273,3.274 H 0 c 1.807,0 3.273,-1.466 3.273,-3.274 V 3.273 C 3.273,1.465 1.807,0 0,0 Z" /></g><g
           transform="translate(69.3581,101.9697)"
           id="g56"><path
             id="path58"
             style="fill:none;stroke:#231f20;stroke-width:10.24699974;stroke-linecap:round;stroke-linejoin:miter;stroke-miterlimit:10;stroke-dasharray:none;stroke-opacity:1"
             d="m 0,0 h -18.151 c -1.808,0 -3.273,1.465 -3.273,3.273 v 18.151 c 0,1.808 1.465,3.274 3.273,3.274 H 0 c 1.807,0 3.273,-1.466 3.273,-3.274 V 3.273 C 3.273,1.465 1.807,0 0,0 Z" /></g><g
           transform="translate(120.678,101.9697)"
           id="g60"><path
             id="path62"
             style="fill:none;stroke:#231f20;stroke-width:10.24699974;stroke-linecap:round;stroke-linejoin:miter;stroke-miterlimit:10;stroke-dasharray:none;stroke-opacity:1"
             d="m 0,0 h -18.151 c -1.808,0 -3.273,1.465 -3.273,3.273 v 18.151 c 0,1.808 1.465,3.274 3.273,3.274 H 0 c 1.807,0 3.273,-1.466 3.273,-3.274 V 3.273 C 3.273,1.465 1.807,0 0,0 Z" /></g><g
           transform="translate(173.281,101.9697)"
           id="g64"><path
             id="path66"
             style="fill:none;stroke:#231f20;stroke-width:10.24699974;stroke-linecap:round;stroke-linejoin:miter;stroke-miterlimit:10;stroke-dasharray:none;stroke-opacity:1"
             d="m 0,0 h -18.151 c -1.808,0 -3.273,1.465 -3.273,3.273 v 18.151 c 0,1.808 1.465,3.274 3.273,3.274 H 0 c 1.807,0 3.273,-1.466 3.273,-3.274 V 3.273 C 3.273,1.465 1.807,0 0,0 Z" /></g><g
           transform="translate(224.9216,101.9697)"
           id="g68"><path
             id="path70"
             style="fill:none;stroke:#231f20;stroke-width:10.24699974;stroke-linecap:round;stroke-linejoin:miter;stroke-miterlimit:10;stroke-dasharray:none;stroke-opacity:1"
             d="m 0,0 h -18.151 c -1.808,0 -3.273,1.465 -3.273,3.273 v 18.151 c 0,1.808 1.465,3.274 3.273,3.274 H 0 c 1.807,0 3.273,-1.466 3.273,-3.274 V 3.273 C 3.273,1.465 1.807,0 0,0 Z" /></g><g
           transform="translate(69.3581,53.1355)"
           id="g72"><path
             id="path74"
             style="fill:none;stroke:#231f20;stroke-width:10.24699974;stroke-linecap:round;stroke-linejoin:miter;stroke-miterlimit:10;stroke-dasharray:none;stroke-opacity:1"
             d="m 0,0 h -18.151 c -1.808,0 -3.273,1.465 -3.273,3.273 v 18.151 c 0,1.808 1.465,3.274 3.273,3.274 H 0 c 1.807,0 3.273,-1.466 3.273,-3.274 V 3.273 C 3.273,1.465 1.807,0 0,0 Z" /></g><g
           transform="translate(120.678,53.1355)"
           id="g76"><path
             id="path78"
             style="fill:none;stroke:#231f20;stroke-width:10.24699974;stroke-linecap:round;stroke-linejoin:miter;stroke-miterlimit:10;stroke-dasharray:none;stroke-opacity:1"
             d="m 0,0 h -18.151 c -1.808,0 -3.273,1.465 -3.273,3.273 v 18.151 c 0,1.808 1.465,3.274 3.273,3.274 H 0 c 1.807,0 3.273,-1.466 3.273,-3.274 V 3.273 C 3.273,1.465 1.807,0 0,0 Z" /></g><g
           transform="translate(173.281,53.1355)"
           id="g80"><path
             id="path82"
             style="fill:none;stroke:#231f20;stroke-width:10.24699974;stroke-linecap:round;stroke-linejoin:miter;stroke-miterlimit:10;stroke-dasharray:none;stroke-opacity:1"
             d="m 0,0 h -18.151 c -1.808,0 -3.273,1.465 -3.273,3.273 v 18.151 c 0,1.808 1.465,3.274 3.273,3.274 H 0 c 1.807,0 3.273,-1.466 3.273,-3.274 V 3.273 C 3.273,1.465 1.807,0 0,0 Z" /></g></g></g><g
       transform="translate(249.295,80.5599)"
       id="g84"><path
         id="path86"
         style="fill:none;stroke:#231f20;stroke-width:10.24699974;stroke-linecap:round;stroke-linejoin:round;stroke-miterlimit:10;stroke-dasharray:none;stroke-opacity:1"
         d="m 0,0 -48.78,-46.509 -171.442,-1.567" /></g><g
       id="g88"><g
         clip-path="url(#clipPath94)"
         id="g90"><g
           transform="translate(245.7415,85.0504)"
           id="g96"><path
             id="path98"
             style="fill:none;stroke:#231f20;stroke-width:10.24699974;stroke-linecap:round;stroke-linejoin:round;stroke-miterlimit:10;stroke-dasharray:none;stroke-opacity:1"
             d="m 0,0 h -33.358 c -1.245,-0.232 -4.75,-1.053 -7.698,-4.17 -3.534,-3.736 -3.811,-8.171 -3.849,-9.301 -0.107,-12.509 -0.214,-25.019 -0.32,-37.528" /></g><g
           transform="translate(77.6484,254.6783)"
           id="g100"><path
             id="path102"
             style="fill:none;stroke:#231f20;stroke-width:10.24699974;stroke-linecap:round;stroke-linejoin:round;stroke-miterlimit:10;stroke-dasharray:none;stroke-opacity:1"
             d="m 0,0 v 12.163 c -1.251,5.366 -6.304,8.528 -10.727,7.57 -3.346,-0.724 -6.055,-3.747 -6.734,-7.57 0.032,-9.829 0.064,-19.658 0.095,-29.487 0.366,-5.54 5.281,-9.387 9.982,-8.712" /></g><g
           transform="translate(215.846,252.3132)"
           id="g104"><path
             id="path106"
             style="fill:none;stroke:#231f20;stroke-width:10.24699974;stroke-linecap:round;stroke-linejoin:round;stroke-miterlimit:10;stroke-dasharray:none;stroke-opacity:1"
             d="m 0,0 v 12.163 c -1.251,5.366 -6.304,8.528 -10.727,7.57 -3.346,-0.725 -6.055,-3.747 -6.734,-7.57 0.032,-9.829 0.064,-19.658 0.095,-29.487 0.366,-5.54 5.281,-9.387 9.982,-8.712" /></g></g></g><g
       transform="translate(39.2869,185.5574)"
       id="g108"><path
         id="path110"
         style="fill:#FFFFFF00;fill-opacity:1;fill-rule:nonzero;stroke:none"
         d="m 0,0 h 195.781 v -89.873 h -48.102 v -47.258 l 0.422,-4.641 H 0 Z" /></g></g></svg>