<?xml version="1.0" encoding="UTF-8" standalone="no"?>
<svg
   xmlns:dc="http://purl.org/dc/elements/1.1/"
   xmlns:cc="http://creativecommons.org/ns#"
   xmlns:rdf="http://www.w3.org/1999/02/22-rdf-syntax-ns#"
   xmlns:svg="http://www.w3.org/2000/svg"
   xmlns="http://www.w3.org/2000/svg"
   viewBox="0 0 436.66666 414.19461"
   height="414.19461"
   width="436.66666"
   xml:space="preserve"
   id="svg2"
   version="1.1"><metadata
     id="metadata8"><rdf:RDF><cc:Work
         rdf:about=""><dc:format>image/svg+xml</dc:format><dc:type
           rdf:resource="http://purl.org/dc/dcmitype/StillImage" /></cc:Work></rdf:RDF></metadata><defs
     id="defs6"><clipPath
       id="clipPath14"
       clipPathUnits="userSpaceOnUse"><path
         id="path12"
         d="M 0,0 H 841.89001 V 595.276 H 0 Z" /></clipPath><clipPath
       id="clipPath22"
       clipPathUnits="userSpaceOnUse"><path
         id="path20"
         d="M 0,595.276 H 841.89 V 0 H 0 Z" /></clipPath></defs><g
     clip-path="url(#clipPath14)"
     transform="matrix(1.3333333,0,0,-1.3333333,-332.25334,592.51465)"
     id="g10"><g
       id="g16"><g
         clip-path="url(#clipPath22)"
         id="g18"><g
           transform="translate(505.5761,168.5997)"
           id="g24"><path
             id="path26"
             style="fill:none;stroke:#231f20;stroke-width:15;stroke-linecap:butt;stroke-linejoin:miter;stroke-miterlimit:10;stroke-dasharray:none;stroke-opacity:1"
             d="m 0,0 h -212.3 c -18.565,0 -33.614,15.05 -33.614,33.614 v 181.993 c 0,18.565 15.049,33.614 33.614,33.614 H 0 c 18.565,0 33.614,-15.049 33.614,-33.614 V 33.614 C 33.614,15.05 18.565,0 0,0 Z" /></g><g
           transform="translate(317.5795,434.9066)"
           id="g28"><path
             id="path30"
             style="fill:none;stroke:#231f20;stroke-width:15;stroke-linecap:round;stroke-linejoin:miter;stroke-miterlimit:10;stroke-dasharray:none;stroke-opacity:1"
             d="M 0,0 V -31.234" /></g><g
           transform="translate(400.5969,433.4382)"
           id="g32"><path
             id="path34"
             style="fill:none;stroke:#231f20;stroke-width:15;stroke-linecap:round;stroke-linejoin:miter;stroke-miterlimit:10;stroke-dasharray:none;stroke-opacity:1"
             d="M 0,0 V -31.234" /></g><g
           transform="translate(483.6143,433.4382)"
           id="g36"><path
             id="path38"
             style="fill:none;stroke:#231f20;stroke-width:15;stroke-linecap:round;stroke-linejoin:miter;stroke-miterlimit:10;stroke-dasharray:none;stroke-opacity:1"
             d="M 0,0 V -31.234" /></g><g
           transform="translate(259.6616,357.5586)"
           id="g40"><path
             id="path42"
             style="fill:none;stroke:#231f20;stroke-width:15;stroke-linecap:round;stroke-linejoin:miter;stroke-miterlimit:10;stroke-dasharray:none;stroke-opacity:1"
             d="M 0,0 H 279.529" /></g><g
           transform="translate(532.3855,391.2494)"
           id="g44"><path
             id="path46"
             style="fill:none;stroke:#231f20;stroke-width:15;stroke-linecap:butt;stroke-linejoin:miter;stroke-miterlimit:10;stroke-dasharray:none;stroke-opacity:1"
             d="m 0,0 c 18.565,0 33.614,-15.05 33.614,-33.614 v -181.993 c 0,-18.565 -15.049,-33.614 -33.614,-33.614 h -212.3 c -18.565,0 -33.614,15.049 -33.614,33.614" /></g></g></g></g></svg>