<?xml version="1.0" encoding="UTF-8" standalone="no"?>
<svg
   xmlns:dc="http://purl.org/dc/elements/1.1/"
   xmlns:cc="http://creativecommons.org/ns#"
   xmlns:rdf="http://www.w3.org/1999/02/22-rdf-syntax-ns#"
   xmlns:svg="http://www.w3.org/2000/svg"
   xmlns="http://www.w3.org/2000/svg"
   viewBox="0 0 377.95334 377.95334"
   height="377.95334"
   width="377.95334"
   xml:space="preserve"
   id="svg2"
   version="1.1"><metadata
     id="metadata8"><rdf:RDF><cc:Work
         rdf:about=""><dc:format>image/svg+xml</dc:format><dc:type
           rdf:resource="http://purl.org/dc/dcmitype/StillImage" /></cc:Work></rdf:RDF></metadata><defs
     id="defs6"><clipPath
       id="clipPath18"
       clipPathUnits="userSpaceOnUse"><path
         id="path16"
         d="M 0,283.465 H 283.465 V 0 H 0 Z" /></clipPath></defs><g
     transform="matrix(1.3333333,0,0,-1.3333333,0,377.95333)"
     id="g10"><g
       id="g12"><g
         clip-path="url(#clipPath18)"
         id="g14"><g
           transform="translate(201.0876,224.021)"
           id="g20"><path
             id="path22"
             style="fill:none;stroke:#231f20;stroke-width:15;stroke-linecap:round;stroke-linejoin:round;stroke-miterlimit:10;stroke-dasharray:none;stroke-opacity:1"
             d="m 0,0 c -11.871,5.879 -34.725,15.22 -64.751,15.289 -25.225,0.057 -45.03,-6.452 -56.658,-11.297 -18.885,11.859 -37.771,23.719 -56.657,35.578 v -150.187 c 13.647,-54.642 62.847,-93.283 118.711,-93.529 54.734,-0.241 103.529,36.431 118.71,89.469 V 39.57 Z" /></g><g
           transform="translate(95.8668,140.7171)"
           id="g24"><path
             id="path26"
             style="fill:none;stroke:#231f20;stroke-width:15;stroke-linecap:round;stroke-linejoin:round;stroke-miterlimit:10;stroke-dasharray:none;stroke-opacity:1"
             d="m 0,0 c 0,-7.634 -4.832,-13.823 -10.792,-13.823 -5.96,0 -10.792,6.189 -10.792,13.823 0,7.634 4.832,13.823 10.792,13.823 C -4.832,13.823 0,7.634 0,0 Z" /></g><g
           transform="translate(207.3829,136.5732)"
           id="g28"><path
             id="path30"
             style="fill:none;stroke:#231f20;stroke-width:15;stroke-linecap:round;stroke-linejoin:round;stroke-miterlimit:10;stroke-dasharray:none;stroke-opacity:1"
             d="m 0,0 c 0,-7.634 -4.832,-13.823 -10.792,-13.823 -5.96,0 -10.792,6.189 -10.792,13.823 0,7.634 4.832,13.823 10.792,13.823 C -4.832,13.823 0,7.634 0,0 Z" /></g><g
           transform="translate(121.6476,109.5282)"
           id="g32"><path
             id="path34"
             style="fill:#231f20;fill-opacity:1;fill-rule:nonzero;stroke:none"
             d="M 0,0 C 4.449,1.161 10.14,2.214 16.787,2.412 25.493,2.671 32.791,1.372 38.055,0 37.151,-2.275 35.294,-6.067 31.609,-9.602 26.796,-14.219 21.527,-15.845 19.028,-16.444 16.97,-16.163 11.245,-15.106 6.221,-10.318 2.147,-6.435 0.589,-2.057 0,0" /></g><g
           transform="translate(121.6476,109.5282)"
           id="g36"><path
             id="path38"
             style="fill:none;stroke:#231f20;stroke-width:10;stroke-linecap:round;stroke-linejoin:round;stroke-miterlimit:10;stroke-dasharray:none;stroke-opacity:1"
             d="M 0,0 C 4.449,1.161 10.14,2.214 16.787,2.412 25.493,2.671 32.791,1.372 38.055,0 37.151,-2.275 35.294,-6.067 31.609,-9.602 26.796,-14.219 21.527,-15.845 19.028,-16.444 16.97,-16.163 11.245,-15.106 6.221,-10.318 2.147,-6.435 0.589,-2.057 0,0 Z" /></g></g></g></g></svg>