<?xml version="1.0" encoding="UTF-8" standalone="no"?>
<svg
   xmlns:dc="http://purl.org/dc/elements/1.1/"
   xmlns:cc="http://creativecommons.org/ns#"
   xmlns:rdf="http://www.w3.org/1999/02/22-rdf-syntax-ns#"
   xmlns:svg="http://www.w3.org/2000/svg"
   xmlns="http://www.w3.org/2000/svg"
   viewBox="0 0 377.95334 377.95334"
   height="377.95334"
   width="377.95334"
   xml:space="preserve"
   id="svg2"
   version="1.1"><metadata
     id="metadata8"><rdf:RDF><cc:Work
         rdf:about=""><dc:format>image/svg+xml</dc:format><dc:type
           rdf:resource="http://purl.org/dc/dcmitype/StillImage" /></cc:Work></rdf:RDF></metadata><defs
     id="defs6"><clipPath
       id="clipPath18"
       clipPathUnits="userSpaceOnUse"><path
         id="path16"
         d="M 0,0 H 283.465 V 283.465 H 0 Z" /></clipPath></defs><g
     transform="matrix(1.3333333,0,0,-1.3333333,0,377.95333)"
     id="g10"><g
       id="g12"><g
         clip-path="url(#clipPath18)"
         id="g14"><g
           transform="translate(222.181,150.48)"
           id="g20"><path
             id="path22"
             style="fill:none;stroke:#231f20;stroke-width:9.11800003;stroke-linecap:butt;stroke-linejoin:miter;stroke-miterlimit:10;stroke-dasharray:none;stroke-opacity:1"
             d="m 0,0 c 0,-45.16 -36.609,-81.768 -81.768,-81.768 -45.16,0 -81.769,36.608 -81.769,81.768 0,45.16 36.609,81.768 81.769,81.768 C -36.609,81.768 0,45.16 0,0 Z" /></g><g
           transform="translate(140.4125,232.2485)"
           id="g24"><path
             id="path26"
             style="fill:none;stroke:#231f20;stroke-width:6.079;stroke-linecap:butt;stroke-linejoin:miter;stroke-miterlimit:10;stroke-dasharray:none;stroke-opacity:1"
             d="m 0,0 c -38.519,-10.743 -54.033,-41.353 -52.4,-80.221 1.527,-36.366 16.444,-73.359 52.4,-83.316" /></g><g
           transform="translate(140.4125,232.2485)"
           id="g28"><path
             id="path30"
             style="fill:none;stroke:#231f20;stroke-width:6.079;stroke-linecap:butt;stroke-linejoin:miter;stroke-miterlimit:10;stroke-dasharray:none;stroke-opacity:1"
             d="M 0,0 C -4.213,-3.116 -23.214,-23.097 -23.936,-72.335 -24.685,-123.397 -3.807,-160.72 0,-163.537" /></g><g
           transform="translate(140.4125,232.2485)"
           id="g32"><path
             id="path34"
             style="fill:none;stroke:#231f20;stroke-width:6.079;stroke-linecap:butt;stroke-linejoin:miter;stroke-miterlimit:10;stroke-dasharray:none;stroke-opacity:1"
             d="M 0,0 C 8.616,-22.085 17.186,-49.792 17.186,-75.288 17.186,-108.832 6.02,-140.267 0,-163.537" /></g><g
           transform="translate(142.22,68.7116)"
           id="g36"><path
             id="path38"
             style="fill:none;stroke:#231f20;stroke-width:6.079;stroke-linecap:butt;stroke-linejoin:miter;stroke-miterlimit:10;stroke-dasharray:none;stroke-opacity:1"
             d="M 0,0 C 31.21,17.229 47.919,49.381 46.286,88.248 44.759,124.614 29.535,150.39 0,163.537" /></g><g
           transform="translate(60.4515,145.6217)"
           id="g40"><path
             id="path42"
             style="fill:none;stroke:#231f20;stroke-width:6.079;stroke-linecap:butt;stroke-linejoin:miter;stroke-miterlimit:10;stroke-dasharray:none;stroke-opacity:1"
             d="M 0,0 C 19.598,5.538 46.563,11.014 78.874,11.324 113.936,11.662 143.007,5.8 163.537,0" /></g><g
           transform="translate(69.8269,109.1826)"
           id="g44"><path
             id="path46"
             style="fill:none;stroke:#231f20;stroke-width:6.079;stroke-linecap:butt;stroke-linejoin:miter;stroke-miterlimit:10;stroke-dasharray:none;stroke-opacity:1"
             d="M 0,0 C 11.613,6.295 36.617,17.841 70.304,17.905 104.31,17.97 129.548,6.3 141.17,0" /></g><g
           transform="translate(96.9818,81.1929)"
           id="g48"><path
             id="path50"
             style="fill:none;stroke:#231f20;stroke-width:6.079;stroke-linecap:butt;stroke-linejoin:miter;stroke-miterlimit:10;stroke-dasharray:none;stroke-opacity:1"
             d="M 0,0 C 6.095,3.665 22.584,12.473 45.016,11.178 64.146,10.073 77.818,2.184 83.84,-1.811" /></g><g
           transform="translate(65.1438,178.2054)"
           id="g52"><path
             id="path54"
             style="fill:none;stroke:#231f20;stroke-width:6.079;stroke-linecap:butt;stroke-linejoin:miter;stroke-miterlimit:10;stroke-dasharray:none;stroke-opacity:1"
             d="m 0,0 c 17.388,5.115 41.961,10.326 71.628,10.31 33.94,-0.018 61.545,-6.87 80.002,-13.021" /></g><g
           transform="translate(90.4704,215.223)"
           id="g56"><path
             id="path58"
             style="fill:none;stroke:#231f20;stroke-width:6.079;stroke-linecap:butt;stroke-linejoin:miter;stroke-miterlimit:10;stroke-dasharray:none;stroke-opacity:1"
             d="m 0,0 c 9.689,-2.493 32.953,-5.212 48.431,-5.239 16.317,-0.03 42.427,1.843 52.405,4.496" /></g><g
           transform="translate(40.9975,103.8042)"
           id="g60"><path
             id="path62"
             style="fill:#231f20;fill-opacity:1;fill-rule:nonzero;stroke:none"
             d="m 0,0 1.014,-25.196 c 0.296,-0.961 0.754,-2.074 1.48,-3.214 2.308,-3.631 5.799,-5.145 7.35,-5.702 4.607,-0.372 9.214,-0.743 13.82,-1.115 L 9.561,-35.635 c -0.914,-0.162 -1.883,-0.473 -2.827,-1.02 -4.377,-2.535 -4.885,-8.194 -4.947,-9.031 -0.053,-7.277 0.233,-20.396 0.18,-27.673 l -1.594,27.595 c -0.344,1.508 -1.453,5.374 -5.025,8.088 -1.159,0.881 -2.316,1.441 -3.298,1.806 -4.868,0.157 -9.737,0.314 -14.606,0.471 l 14.449,2.12 c 1.977,1.046 4.995,2.545 6.753,6.204 0.31,0.645 0.539,1.279 0.707,1.884 C -0.094,-17.54 -0.554,-7.651 0,0" /></g><g
           transform="translate(40.9975,103.8042)"
           id="g64"><path
             id="path66"
             style="fill:none;stroke:#231f20;stroke-width:3.03900003;stroke-linecap:butt;stroke-linejoin:round;stroke-miterlimit:10;stroke-dasharray:none;stroke-opacity:1"
             d="m 0,0 1.014,-25.196 c 0.296,-0.961 0.754,-2.074 1.48,-3.214 2.308,-3.631 5.799,-5.145 7.35,-5.702 4.607,-0.372 9.214,-0.743 13.82,-1.115 L 9.561,-35.635 c -0.914,-0.162 -1.883,-0.473 -2.827,-1.02 -4.377,-2.535 -4.885,-8.194 -4.947,-9.031 -0.053,-7.277 0.233,-20.396 0.18,-27.673 l -1.594,27.595 c -0.344,1.508 -1.453,5.374 -5.025,8.088 -1.159,0.881 -2.316,1.441 -3.298,1.806 -4.868,0.157 -9.737,0.314 -14.606,0.471 l 14.449,2.12 c 1.977,1.046 4.995,2.545 6.753,6.204 0.31,0.645 0.539,1.279 0.707,1.884 C -0.094,-17.54 -0.554,-7.651 0,0 Z" /></g><g
           transform="translate(66.1813,51.9322)"
           id="g68"><path
             id="path70"
             style="fill:#231f20;fill-opacity:1;fill-rule:nonzero;stroke:none"
             d="m 0,0 0.526,-13.08 c 0.154,-0.499 0.392,-1.077 0.769,-1.669 1.198,-1.885 3.011,-2.671 3.816,-2.96 2.391,-0.193 4.782,-0.386 7.174,-0.579 L 4.963,-18.499 C 4.489,-18.584 3.986,-18.745 3.496,-19.029 1.223,-20.345 0.96,-23.283 0.928,-23.717 0.9,-27.495 1.049,-34.306 1.021,-38.084 l -0.827,14.326 c -0.179,0.782 -0.754,2.79 -2.609,4.199 -0.602,0.457 -1.203,0.748 -1.713,0.937 -2.526,0.082 -5.054,0.164 -7.582,0.245 l 7.501,1.1 c 1.027,0.543 2.593,1.322 3.506,3.221 0.161,0.335 0.28,0.664 0.367,0.979 C -0.049,-9.105 -0.288,-3.972 0,0" /></g><g
           transform="translate(66.1813,51.9322)"
           id="g72"><path
             id="path74"
             style="fill:none;stroke:#231f20;stroke-width:3.03900003;stroke-linecap:butt;stroke-linejoin:round;stroke-miterlimit:10;stroke-dasharray:none;stroke-opacity:1"
             d="m 0,0 0.526,-13.08 c 0.154,-0.499 0.392,-1.077 0.769,-1.669 1.198,-1.885 3.011,-2.671 3.816,-2.96 2.391,-0.193 4.782,-0.386 7.174,-0.579 L 4.963,-18.499 C 4.489,-18.584 3.986,-18.745 3.496,-19.029 1.223,-20.345 0.96,-23.283 0.928,-23.717 0.9,-27.495 1.049,-34.306 1.021,-38.084 l -0.827,14.326 c -0.179,0.782 -0.754,2.79 -2.609,4.199 -0.602,0.457 -1.203,0.748 -1.713,0.937 -2.526,0.082 -5.054,0.164 -7.582,0.245 l 7.501,1.1 c 1.027,0.543 2.593,1.322 3.506,3.221 0.161,0.335 0.28,0.664 0.367,0.979 C -0.049,-9.105 -0.288,-3.972 0,0 Z" /></g><g
           transform="translate(231.7886,267.9802)"
           id="g76"><path
             id="path78"
             style="fill:#231f20;fill-opacity:1;fill-rule:nonzero;stroke:none"
             d="m 0,0 0.964,-23.94 c 0.281,-0.913 0.716,-1.97 1.406,-3.054 2.193,-3.45 5.51,-4.888 6.984,-5.418 4.377,-0.353 8.754,-0.706 13.13,-1.059 l -13.4,-0.388 c -0.868,-0.154 -1.788,-0.45 -2.686,-0.969 -4.159,-2.409 -4.641,-7.786 -4.7,-8.58 -0.05,-6.914 0.221,-19.381 0.171,-26.294 l -1.514,26.219 c -0.328,1.433 -1.381,5.105 -4.776,7.685 -1.1,0.836 -2.2,1.369 -3.133,1.716 -4.626,0.149 -9.252,0.298 -13.878,0.447 l 13.729,2.015 c 1.879,0.993 4.746,2.418 6.416,5.894 0.296,0.614 0.513,1.216 0.672,1.791 C -0.089,-16.666 -0.526,-7.27 0,0" /></g><g
           transform="translate(231.7886,267.9802)"
           id="g80"><path
             id="path82"
             style="fill:none;stroke:#231f20;stroke-width:3.03900003;stroke-linecap:butt;stroke-linejoin:round;stroke-miterlimit:10;stroke-dasharray:none;stroke-opacity:1"
             d="m 0,0 0.964,-23.94 c 0.281,-0.913 0.716,-1.97 1.406,-3.054 2.193,-3.45 5.51,-4.888 6.984,-5.418 4.377,-0.353 8.754,-0.706 13.13,-1.059 l -13.4,-0.388 c -0.868,-0.154 -1.788,-0.45 -2.686,-0.969 -4.159,-2.409 -4.641,-7.786 -4.7,-8.58 -0.05,-6.914 0.221,-19.381 0.171,-26.294 l -1.514,26.219 c -0.328,1.433 -1.381,5.105 -4.776,7.685 -1.1,0.836 -2.2,1.369 -3.133,1.716 -4.626,0.149 -9.252,0.298 -13.878,0.447 l 13.729,2.015 c 1.879,0.993 4.746,2.418 6.416,5.894 0.296,0.614 0.513,1.216 0.672,1.791 C -0.089,-16.666 -0.526,-7.27 0,0 Z" /></g></g></g><g
       transform="translate(87.9402,154.21)"
       id="g84"><path
         id="path86"
         style="fill:#231f20;fill-opacity:1;fill-rule:nonzero;stroke:none"
         d="M 0,0 3.38,30.209 28.516,33.496 26.214,2.75 Z" /></g><g
       transform="translate(87.9402,154.21)"
       id="g88"><path
         id="path90"
         style="fill:none;stroke:#231f20;stroke-width:3.03900003;stroke-linecap:butt;stroke-linejoin:round;stroke-miterlimit:10;stroke-dasharray:none;stroke-opacity:1"
         d="M 0,0 3.38,30.209 28.516,33.496 26.214,2.75 Z" /></g><g
       transform="translate(90.4704,215.223)"
       id="g92"><path
         id="path94"
         style="fill:#231f20;fill-opacity:1;fill-rule:nonzero;stroke:none"
         d="M 0,0 14.576,-2.62 0.849,-30.803 -25.326,-37.018 Z" /></g><g
       transform="translate(90.4704,215.223)"
       id="g96"><path
         id="path98"
         style="fill:none;stroke:#231f20;stroke-width:3.03900003;stroke-linecap:butt;stroke-linejoin:round;stroke-miterlimit:10;stroke-dasharray:none;stroke-opacity:1"
         d="M 0,0 14.576,-2.62 0.849,-30.803 -25.326,-37.018 Z" /></g><g
       transform="translate(188.6155,153.3526)"
       id="g100"><path
         id="path102"
         style="fill:#231f20;fill-opacity:1;fill-rule:nonzero;stroke:none"
         d="M 0,0 33.452,-7.195 22.381,-42.14 -4.501,-32.88 Z" /></g><g
       transform="translate(188.6155,153.3526)"
       id="g104"><path
         id="path106"
         style="fill:none;stroke:#231f20;stroke-width:3.03900003;stroke-linecap:butt;stroke-linejoin:round;stroke-miterlimit:10;stroke-dasharray:none;stroke-opacity:1"
         d="M 0,0 33.452,-7.195 22.381,-42.14 -4.501,-32.88 Z" /></g><g
       transform="translate(93.3581,119.3912)"
       id="g108"><path
         id="path110"
         style="fill:#231f20;fill-opacity:1;fill-rule:nonzero;stroke:none"
         d="m 0,0 16.99,-31.798 13.689,4.906 -5.11,34.588 z" /></g><g
       transform="translate(93.3581,119.3912)"
       id="g112"><path
         id="path114"
         style="fill:none;stroke:#231f20;stroke-width:3.03900003;stroke-linecap:butt;stroke-linejoin:round;stroke-miterlimit:10;stroke-dasharray:none;stroke-opacity:1"
         d="m 0,0 16.99,-31.798 13.689,4.906 -5.11,34.588 z" /></g><g
       transform="translate(149.8113,202.9843)"
       id="g116"><path
         id="path118"
         style="fill:#231f20;fill-opacity:1;fill-rule:nonzero;stroke:none"
         d="M 0,0 3.301,-12.609 34.303,-20.299 21.457,5.139 -0.805,7.759 Z" /></g><g
       transform="translate(149.8113,202.9843)"
       id="g120"><path
         id="path122"
         style="fill:none;stroke:#231f20;stroke-width:3.03900003;stroke-linecap:butt;stroke-linejoin:round;stroke-miterlimit:10;stroke-dasharray:none;stroke-opacity:1"
         d="M 0,0 3.301,-12.609 34.303,-20.299 21.457,5.139 -0.805,7.759 Z" /></g></g></svg>