<?xml version="1.0" encoding="UTF-8" standalone="no"?>
<svg
   xmlns:dc="http://purl.org/dc/elements/1.1/"
   xmlns:cc="http://creativecommons.org/ns#"
   xmlns:rdf="http://www.w3.org/1999/02/22-rdf-syntax-ns#"
   xmlns:svg="http://www.w3.org/2000/svg"
   xmlns="http://www.w3.org/2000/svg"
   viewBox="0 0 377.95334 377.95334"
   height="377.95334"
   width="377.95334"
   xml:space="preserve"
   id="svg2"
   version="1.1"><metadata
     id="metadata8"><rdf:RDF><cc:Work
         rdf:about=""><dc:format>image/svg+xml</dc:format><dc:type
           rdf:resource="http://purl.org/dc/dcmitype/StillImage" /></cc:Work></rdf:RDF></metadata><defs
     id="defs6"><clipPath
       id="clipPath18"
       clipPathUnits="userSpaceOnUse"><path
         id="path16"
         d="M 0,283.465 H 283.465 V 0 H 0 Z" /></clipPath></defs><g
     transform="matrix(1.3333333,0,0,-1.3333333,0,377.95333)"
     id="g10"><g
       id="g12"><g
         clip-path="url(#clipPath18)"
         id="g14"><g
           transform="translate(225.445,189.97)"
           id="g20"><path
             id="path22"
             style="fill:none;stroke:#231f20;stroke-width:15;stroke-linecap:round;stroke-linejoin:miter;stroke-miterlimit:10;stroke-dasharray:none;stroke-opacity:1"
             d="m 0,0 v -76.129 c -5.332,-41.975 -40.442,-73.891 -81.633,-75.213 -43.158,-1.384 -81.497,31.185 -87.136,75.213 V 0" /></g><g
           transform="translate(54.6643,111.2441)"
           id="g24"><path
             id="path26"
             style="fill:none;stroke:#231f20;stroke-width:15;stroke-linecap:round;stroke-linejoin:miter;stroke-miterlimit:10;stroke-dasharray:none;stroke-opacity:1"
             d="m 0,0 c -18.783,8.969 -32.789,24.059 -35.5,29.685 -14.941,31.002 7.651,70.271 30.672,90.016 16.759,14.375 34.884,19.38 44.675,21.338 h 97.351 c 10.598,-3.647 29.406,-11.7 46.009,-29.339 2.99,-3.177 44.869,-48.786 26.671,-84.016 C 207.405,22.896 195.829,7.564 174.524,0" /></g><g
           transform="translate(123.005,101.7122)"
           id="g28"><path
             id="path30"
             style="fill:#231f20;fill-opacity:1;fill-rule:nonzero;stroke:none"
             d="M 0,0 C 4.856,1.085 10.854,2.007 17.747,2.158 26.411,2.349 33.815,1.264 39.478,0 c -0.333,-1.83 -1.712,-8.131 -7.49,-13.02 -4.927,-4.169 -10.254,-4.942 -12.249,-5.131 -2.074,0.31 -7.63,1.421 -12.673,6.068 C 2.049,-7.458 0.484,-2.043 0,0" /></g><g
           transform="translate(123.005,101.7122)"
           id="g32"><path
             id="path34"
             style="fill:none;stroke:#231f20;stroke-width:15;stroke-linecap:round;stroke-linejoin:round;stroke-miterlimit:10;stroke-dasharray:none;stroke-opacity:1"
             d="M 0,0 C 4.856,1.085 10.854,2.007 17.747,2.158 26.411,2.349 33.815,1.264 39.478,0 c -0.333,-1.83 -1.712,-8.131 -7.49,-13.02 -4.927,-4.169 -10.254,-4.942 -12.249,-5.131 -2.074,0.31 -7.63,1.421 -12.673,6.068 C 2.049,-7.458 0.484,-2.043 0,0 Z" /></g><g
           transform="translate(108.8973,151.0908)"
           id="g36"><path
             id="path38"
             style="fill:#231f20;fill-opacity:1;fill-rule:nonzero;stroke:none"
             d="m 0,0 c 0,-5.071 -4.111,-14.428 -9.182,-14.428 -5.071,0 -9.181,9.357 -9.181,14.428 0,5.071 4.11,9.182 9.181,9.182 C -4.111,9.182 0,5.071 0,0" /></g><g
           transform="translate(108.8973,151.0908)"
           id="g40"><path
             id="path42"
             style="fill:none;stroke:#231f20;stroke-width:15;stroke-linecap:round;stroke-linejoin:round;stroke-miterlimit:10;stroke-dasharray:none;stroke-opacity:1"
             d="m 0,0 c 0,-5.071 -4.111,-14.428 -9.182,-14.428 -5.071,0 -9.181,9.357 -9.181,14.428 0,5.071 4.11,9.182 9.181,9.182 C -4.111,9.182 0,5.071 0,0 Z" /></g><g
           transform="translate(194.7521,151.0908)"
           id="g44"><path
             id="path46"
             style="fill:#231f20;fill-opacity:1;fill-rule:nonzero;stroke:none"
             d="m 0,0 c 0,-5.071 -4.111,-14.428 -9.182,-14.428 -5.071,0 -9.181,9.357 -9.181,14.428 0,5.071 4.11,9.182 9.181,9.182 C -4.111,9.182 0,5.071 0,0" /></g><g
           transform="translate(194.7521,151.0908)"
           id="g48"><path
             id="path50"
             style="fill:none;stroke:#231f20;stroke-width:15;stroke-linecap:round;stroke-linejoin:round;stroke-miterlimit:10;stroke-dasharray:none;stroke-opacity:1"
             d="m 0,0 c 0,-5.071 -4.111,-14.428 -9.182,-14.428 -5.071,0 -9.181,9.357 -9.181,14.428 0,5.071 4.11,9.182 9.181,9.182 C -4.111,9.182 0,5.071 0,0 Z" /></g></g></g></g></svg>