<?xml version="1.0" encoding="UTF-8" standalone="no"?>
<svg
   xmlns:dc="http://purl.org/dc/elements/1.1/"
   xmlns:cc="http://creativecommons.org/ns#"
   xmlns:rdf="http://www.w3.org/1999/02/22-rdf-syntax-ns#"
   xmlns:svg="http://www.w3.org/2000/svg"
   xmlns="http://www.w3.org/2000/svg"
   viewBox="0 0 377.95334 377.95334"
   height="377.95334"
   width="377.95334"
   xml:space="preserve"
   id="svg2"
   version="1.1"><metadata
     id="metadata8"><rdf:RDF><cc:Work
         rdf:about=""><dc:format>image/svg+xml</dc:format><dc:type
           rdf:resource="http://purl.org/dc/dcmitype/StillImage" /></cc:Work></rdf:RDF></metadata><defs
     id="defs6"><clipPath
       id="clipPath18"
       clipPathUnits="userSpaceOnUse"><path
         id="path16"
         d="M 0,0 H 283.465 V 283.465 H 0 Z" /></clipPath><clipPath
       id="clipPath54"
       clipPathUnits="userSpaceOnUse"><path
         id="path52"
         d="M 0,0 H 283.465 V 283.465 H 0 Z" /></clipPath><clipPath
       id="clipPath94"
       clipPathUnits="userSpaceOnUse"><path
         id="path92"
         d="M 0,0 H 283.465 V 283.465 H 0 Z" /></clipPath></defs><g
     transform="matrix(1.3333333,0,0,-1.3333333,0,377.95333)"
     id="g10"><g
       id="g12"><g
         clip-path="url(#clipPath18)"
         id="g14"><g
           transform="translate(265.7719,17.8174)"
           id="g20"><path
             id="path22"
             style="fill:none;stroke:#231f20;stroke-width:13.66499996;stroke-linecap:butt;stroke-linejoin:miter;stroke-miterlimit:10;stroke-dasharray:none;stroke-opacity:1"
             d="M 0,0 H -247.769 V 25.397 H 0 Z" /></g></g></g><g
       transform="translate(121.8513,191.6508)"
       id="g24"><path
         id="path26"
         style="fill:none;stroke:#231f20;stroke-width:13.66499996;stroke-linecap:butt;stroke-linejoin:miter;stroke-miterlimit:10;stroke-dasharray:none;stroke-opacity:1"
         d="M 0,0 V -148.436" /></g><g
       transform="translate(162.4877,191.6508)"
       id="g28"><path
         id="path30"
         style="fill:none;stroke:#231f20;stroke-width:13.66499996;stroke-linecap:butt;stroke-linejoin:miter;stroke-miterlimit:10;stroke-dasharray:none;stroke-opacity:1"
         d="M 0,0 V -146.178" /></g><g
       transform="translate(121.8513,160.2109)"
       id="g32"><path
         id="path34"
         style="fill:none;stroke:#231f20;stroke-width:13.66499996;stroke-linecap:butt;stroke-linejoin:miter;stroke-miterlimit:10;stroke-dasharray:none;stroke-opacity:1"
         d="M 0,0 40.637,21.819" /></g><g
       transform="translate(123.5811,126.4533)"
       id="g36"><path
         id="path38"
         style="fill:none;stroke:#231f20;stroke-width:13.66499996;stroke-linecap:butt;stroke-linejoin:miter;stroke-miterlimit:10;stroke-dasharray:none;stroke-opacity:1"
         d="M 0,0 40.637,21.819" /></g><g
       transform="translate(123.5811,92.6957)"
       id="g40"><path
         id="path42"
         style="fill:none;stroke:#231f20;stroke-width:13.66499996;stroke-linecap:butt;stroke-linejoin:miter;stroke-miterlimit:10;stroke-dasharray:none;stroke-opacity:1"
         d="M 0,0 40.637,21.819" /></g><g
       transform="translate(125.5984,61.2079)"
       id="g44"><path
         id="path46"
         style="fill:none;stroke:#231f20;stroke-width:13.66499996;stroke-linecap:butt;stroke-linejoin:miter;stroke-miterlimit:10;stroke-dasharray:none;stroke-opacity:1"
         d="M 0,0 40.637,21.819" /></g><g
       id="g48"><g
         clip-path="url(#clipPath54)"
         id="g50"><g
           transform="translate(18.0029,191.6508)"
           id="g56"><path
             id="path58"
             style="fill:none;stroke:#231f20;stroke-width:13.66499996;stroke-linecap:butt;stroke-linejoin:miter;stroke-miterlimit:10;stroke-dasharray:none;stroke-opacity:1"
             d="M 0,0 H 247.769" /></g><g
           transform="translate(18.0029,184.8997)"
           id="g60"><path
             id="path62"
             style="fill:none;stroke:#231f20;stroke-width:13.66499996;stroke-linecap:butt;stroke-linejoin:round;stroke-miterlimit:10;stroke-dasharray:none;stroke-opacity:1"
             d="M 0,0 V 36.895 H 243.907 L 244.234,0" /></g><g
           transform="translate(50.6669,221.7948)"
           id="g64"><path
             id="path66"
             style="fill:none;stroke:#231f20;stroke-width:13.66499996;stroke-linecap:butt;stroke-linejoin:round;stroke-miterlimit:10;stroke-dasharray:none;stroke-opacity:1"
             d="m 0,0 c 8.509,7.871 20.112,17.083 35.087,25.346 20.966,11.571 40.469,16.825 54.366,19.377 12.801,-2.836 29.03,-7.672 46.705,-16.234 C 155.066,19.329 169.673,8.791 180.148,0" /></g><g
           transform="translate(104.0829,221.7948)"
           id="g68"><path
             id="path70"
             style="fill:none;stroke:#231f20;stroke-width:13.66499996;stroke-linecap:butt;stroke-linejoin:round;stroke-miterlimit:10;stroke-dasharray:none;stroke-opacity:1"
             d="M 0,0 C 4.857,6.029 9.716,12.058 14.573,18.086 21.728,26.965 28.882,35.844 36.037,44.723 48.638,29.816 61.239,14.907 73.839,0" /></g></g></g><g
       transform="translate(53.809,191.6508)"
       id="g72"><path
         id="path74"
         style="fill:none;stroke:#231f20;stroke-width:4.55499983;stroke-linecap:butt;stroke-linejoin:round;stroke-miterlimit:10;stroke-dasharray:none;stroke-opacity:1"
         d="M 0,0 -17.281,-88.045" /></g><g
       transform="translate(85.7538,123.028)"
       id="g76"><path
         id="path78"
         style="fill:none;stroke:#231f20;stroke-width:4.55499983;stroke-linecap:butt;stroke-linejoin:round;stroke-miterlimit:10;stroke-dasharray:none;stroke-opacity:1"
         d="M 0,0 12.569,68.623" /></g><g
       transform="translate(196.7754,123.028)"
       id="g80"><path
         id="path82"
         style="fill:none;stroke:#231f20;stroke-width:4.55499983;stroke-linecap:butt;stroke-linejoin:round;stroke-miterlimit:10;stroke-dasharray:none;stroke-opacity:1"
         d="M 0,0 -8.379,68.623" /></g><g
       transform="translate(246.5255,103.6053)"
       id="g84"><path
         id="path86"
         style="fill:none;stroke:#231f20;stroke-width:4.55499983;stroke-linecap:butt;stroke-linejoin:round;stroke-miterlimit:10;stroke-dasharray:none;stroke-opacity:1"
         d="M 0,0 -17.805,88.045" /></g><g
       id="g88"><g
         clip-path="url(#clipPath94)"
         id="g90"><g
           transform="translate(20.2931,103.6053)"
           id="g96"><path
             id="path98"
             style="fill:none;stroke:#231f20;stroke-width:9.10999966;stroke-linecap:butt;stroke-linejoin:round;stroke-miterlimit:10;stroke-dasharray:none;stroke-opacity:1"
             d="m 0,0 33.516,-4.143 v -16.435 c -0.695,-0.66 -9.63,-8.862 -21.471,-6.084 -8.936,2.096 -13.432,9.014 -14.335,10.474 z" /></g><g
           transform="translate(68.9959,125.4803)"
           id="g100"><path
             id="path102"
             style="fill:none;stroke:#231f20;stroke-width:9.10999966;stroke-linecap:butt;stroke-linejoin:round;stroke-miterlimit:10;stroke-dasharray:none;stroke-opacity:1"
             d="m 0,0 29.327,-2.452 v -16.234 c -0.851,-0.865 -7.279,-7.181 -16.758,-6.21 C 5.595,-24.181 1.227,-19.961 0,-18.686 -0.404,-12.499 0.22,-5.158 0,0 Z" /></g><g
           transform="translate(182.1122,118.5618)"
           id="g104"><path
             id="path106"
             style="fill:none;stroke:#231f20;stroke-width:9.10999966;stroke-linecap:butt;stroke-linejoin:round;stroke-miterlimit:10;stroke-dasharray:none;stroke-opacity:1"
             d="M 0,0 27.755,7.892 32.469,-4.047 C 31.781,-5.375 26.694,-14.811 15.632,-17.08 8.079,-18.63 2.023,-15.96 0,-14.957 Z" /></g><g
           transform="translate(230.815,97.8911)"
           id="g108"><path
             id="path110"
             style="fill:none;stroke:#231f20;stroke-width:9.10999966;stroke-linecap:butt;stroke-linejoin:round;stroke-miterlimit:10;stroke-dasharray:none;stroke-opacity:1"
             d="M 0,0 31.421,8.903 34.957,-7.855 C 33.997,-9.257 28.038,-17.663 16.72,-19.287 6.866,-20.7 -0.404,-16.018 -2.094,-14.864 -1.397,-9.909 -0.698,-4.955 0,0 Z" /></g></g></g></g></svg>