<?xml version="1.0" encoding="UTF-8" standalone="no"?>
<svg
   xmlns:dc="http://purl.org/dc/elements/1.1/"
   xmlns:cc="http://creativecommons.org/ns#"
   xmlns:rdf="http://www.w3.org/1999/02/22-rdf-syntax-ns#"
   xmlns:svg="http://www.w3.org/2000/svg"
   xmlns="http://www.w3.org/2000/svg"
   viewBox="0 0 377.95334 377.95334"
   height="377.95334"
   width="377.95334"
   xml:space="preserve"
   id="svg2"
   version="1.1"><metadata
     id="metadata8"><rdf:RDF><cc:Work
         rdf:about=""><dc:format>image/svg+xml</dc:format><dc:type
           rdf:resource="http://purl.org/dc/dcmitype/StillImage" /></cc:Work></rdf:RDF></metadata><defs
     id="defs6"><clipPath
       id="clipPath18"
       clipPathUnits="userSpaceOnUse"><path
         id="path16"
         d="M 0,0 H 283.465 V 283.465 H 0 Z" /></clipPath></defs><g
     transform="matrix(1.3333333,0,0,-1.3333333,0,377.95333)"
     id="g10"><g
       id="g12"><g
         clip-path="url(#clipPath18)"
         id="g14"><g
           transform="translate(52.5008,9.5302)"
           id="g20"><path
             id="path22"
             style="fill:none;stroke:#231f20;stroke-width:14.85299969;stroke-linecap:round;stroke-linejoin:miter;stroke-miterlimit:10;stroke-dasharray:none;stroke-opacity:1"
             d="M 0,0 H 177.362" /></g><g
           transform="translate(93.078,63.1969)"
           id="g24"><path
             id="path26"
             style="fill:none;stroke:#231f20;stroke-width:14.85299969;stroke-linecap:round;stroke-linejoin:miter;stroke-miterlimit:10;stroke-dasharray:none;stroke-opacity:1"
             d="M 0,0 -26.834,-53.667" /></g><g
           transform="translate(187.9762,63.1969)"
           id="g28"><path
             id="path30"
             style="fill:none;stroke:#231f20;stroke-width:14.85299969;stroke-linecap:round;stroke-linejoin:miter;stroke-miterlimit:10;stroke-dasharray:none;stroke-opacity:1"
             d="M 0,0 27.488,-53.667" /></g><g
           transform="translate(43.712,175.1357)"
           id="g32"><path
             id="path34"
             style="fill:none;stroke:#231f20;stroke-width:14.85299969;stroke-linecap:round;stroke-linejoin:miter;stroke-miterlimit:10;stroke-dasharray:none;stroke-opacity:1"
             d="M 0,0 C 2.073,13.683 6.868,25.751 14.89,37.308" /></g><g
           transform="translate(58.6024,104.3017)"
           id="g36"><path
             id="path38"
             style="fill:none;stroke:#231f20;stroke-width:14.85299969;stroke-linecap:round;stroke-linejoin:miter;stroke-miterlimit:10;stroke-dasharray:none;stroke-opacity:1"
             d="M 0,0 C -7.095,11.64 -11.52,19.142 -13.794,33.701" /></g><g
           transform="translate(117.1341,61.4707)"
           id="g40"><path
             id="path42"
             style="fill:none;stroke:#231f20;stroke-width:14.85299969;stroke-linecap:round;stroke-linejoin:miter;stroke-miterlimit:10;stroke-dasharray:none;stroke-opacity:1"
             d="M 0,0 C -10.212,2.502 -21.155,7.925 -29.75,13.27" /></g><g
           transform="translate(194.4272,72.0309)"
           id="g44"><path
             id="path46"
             style="fill:none;stroke:#231f20;stroke-width:14.85299969;stroke-linecap:round;stroke-linejoin:miter;stroke-miterlimit:10;stroke-dasharray:none;stroke-opacity:1"
             d="M 0,0 C -9.227,-5.742 -18.722,-9.508 -29.126,-11.626" /></g><g
           transform="translate(239.7587,136.5407)"
           id="g48"><path
             id="path50"
             style="fill:none;stroke:#231f20;stroke-width:14.85299969;stroke-linecap:round;stroke-linejoin:miter;stroke-miterlimit:10;stroke-dasharray:none;stroke-opacity:1"
             d="M 0,0 C -1.886,-10.097 -7.401,-24.185 -12.034,-32.735" /></g><g
           transform="translate(224.272,214.9882)"
           id="g52"><path
             id="path54"
             style="fill:none;stroke:#231f20;stroke-width:14.85299969;stroke-linecap:round;stroke-linejoin:miter;stroke-miterlimit:10;stroke-dasharray:none;stroke-opacity:1"
             d="M 0,0 C 7.886,-11.335 13.48,-24.385 16.114,-38.476" /></g><g
           transform="translate(165.0524,255.2541)"
           id="g56"><path
             id="path58"
             style="fill:none;stroke:#231f20;stroke-width:14.85299969;stroke-linecap:round;stroke-linejoin:miter;stroke-miterlimit:10;stroke-dasharray:none;stroke-opacity:1"
             d="M 0,0 C 9.95,-2.321 16.695,-4.634 25.254,-9.686" /></g><g
           transform="translate(91.6427,244.0711)"
           id="g60"><path
             id="path62"
             style="fill:none;stroke:#231f20;stroke-width:14.85299969;stroke-linecap:round;stroke-linejoin:miter;stroke-miterlimit:10;stroke-dasharray:none;stroke-opacity:1"
             d="M 0,0 C 8.558,5.051 17.935,8.861 27.885,11.182" /></g><g
           transform="translate(173.2507,158.0661)"
           id="g64"><path
             id="path66"
             style="fill:none;stroke:#231f20;stroke-width:14.85299969;stroke-linecap:round;stroke-linejoin:miter;stroke-miterlimit:10;stroke-dasharray:none;stroke-opacity:1"
             d="m 0,0 c 0,-17.711 -14.357,-32.07 -32.07,-32.07 -17.711,0 -32.068,14.359 -32.068,32.07 0,17.711 14.357,32.07 32.068,32.07 C -14.357,32.07 0,17.711 0,0 Z" /></g><g
           transform="translate(153.8735,158.0661)"
           id="g68"><path
             id="path70"
             style="fill:none;stroke:#231f20;stroke-width:9.90200043;stroke-linecap:round;stroke-linejoin:miter;stroke-miterlimit:10;stroke-dasharray:none;stroke-opacity:1"
             d="m 0,0 c 0,-7.009 -5.683,-12.692 -12.692,-12.692 -7.009,0 -12.692,5.683 -12.692,12.692 0,7.009 5.683,12.692 12.692,12.692 C -5.683,12.692 0,7.009 0,0 Z" /></g><g
           transform="translate(47.7742,245.5686)"
           id="g72"><path
             id="path74"
             style="fill:none;stroke:#231f20;stroke-width:9.90200043;stroke-linecap:round;stroke-linejoin:round;stroke-miterlimit:10;stroke-dasharray:none;stroke-opacity:1"
             d="M 0,0 H 40.936 V -18.957 C 36.156,-27.843 26.662,-32.863 17.308,-31.594 5.895,-30.047 0.495,-19.923 0,-18.957 Z" /></g><g
           transform="translate(120.714,277.3575)"
           id="g76"><path
             id="path78"
             style="fill:none;stroke:#231f20;stroke-width:9.90200043;stroke-linecap:round;stroke-linejoin:round;stroke-miterlimit:10;stroke-dasharray:none;stroke-opacity:1"
             d="M 0,0 H 40.936 V -18.957 C 36.156,-27.842 26.662,-32.863 17.308,-31.594 5.895,-30.047 0.495,-19.923 0,-18.957 Z" /></g><g
           transform="translate(192.9402,246.777)"
           id="g80"><path
             id="path82"
             style="fill:none;stroke:#231f20;stroke-width:9.90200043;stroke-linecap:round;stroke-linejoin:round;stroke-miterlimit:10;stroke-dasharray:none;stroke-opacity:1"
             d="M 0,0 H 40.936 V -18.957 C 36.156,-27.842 26.662,-32.863 17.308,-31.594 5.895,-30.047 0.495,-19.923 0,-18.957 Z" /></g><g
           transform="translate(224.272,170.758)"
           id="g84"><path
             id="path86"
             style="fill:none;stroke:#231f20;stroke-width:9.90200043;stroke-linecap:round;stroke-linejoin:round;stroke-miterlimit:10;stroke-dasharray:none;stroke-opacity:1"
             d="M 0,0 H 40.936 V -18.957 C 36.156,-27.843 26.661,-32.863 17.308,-31.594 5.895,-30.047 0.495,-19.923 0,-18.957 Z" /></g><g
           transform="translate(191.323,101.7329)"
           id="g88"><path
             id="path90"
             style="fill:none;stroke:#231f20;stroke-width:9.90200043;stroke-linecap:round;stroke-linejoin:round;stroke-miterlimit:10;stroke-dasharray:none;stroke-opacity:1"
             d="M 0,0 H 40.936 V -18.957 C 36.156,-27.843 26.662,-32.863 17.308,-31.594 5.895,-30.047 0.495,-19.923 0,-18.957 Z" /></g><g
           transform="translate(120.714,68.1525)"
           id="g92"><path
             id="path94"
             style="fill:none;stroke:#231f20;stroke-width:9.90200043;stroke-linecap:round;stroke-linejoin:round;stroke-miterlimit:10;stroke-dasharray:none;stroke-opacity:1"
             d="M 0,0 H 40.936 V -18.957 C 36.156,-27.843 26.662,-32.863 17.308,-31.594 5.895,-30.047 0.495,-19.923 0,-18.957 Z" /></g><g
           transform="translate(47.8712,101.1972)"
           id="g96"><path
             id="path98"
             style="fill:none;stroke:#231f20;stroke-width:9.90200043;stroke-linecap:round;stroke-linejoin:round;stroke-miterlimit:10;stroke-dasharray:none;stroke-opacity:1"
             d="M 0,0 H 40.936 V -18.957 C 36.156,-27.843 26.662,-32.863 17.308,-31.594 5.895,-30.047 0.495,-19.923 0,-18.957 Z" /></g><g
           transform="translate(18.5944,171.7583)"
           id="g100"><path
             id="path102"
             style="fill:none;stroke:#231f20;stroke-width:9.90200043;stroke-linecap:round;stroke-linejoin:round;stroke-miterlimit:10;stroke-dasharray:none;stroke-opacity:1"
             d="M 0,0 H 40.936 V -18.957 C 36.156,-27.843 26.662,-32.863 17.308,-31.594 5.895,-30.047 0.495,-19.923 0,-18.957 Z" /></g></g></g><g
       transform="translate(141.1816,190.1352)"
       id="g104"><path
         id="path106"
         style="fill:none;stroke:#231f20;stroke-width:9.90200043;stroke-linecap:round;stroke-linejoin:miter;stroke-miterlimit:10;stroke-dasharray:none;stroke-opacity:1"
         d="M 0,0 V 55.434" /></g><g
       transform="translate(163.5556,181.0316)"
       id="g108"><path
         id="path110"
         style="fill:none;stroke:#231f20;stroke-width:9.90200043;stroke-linecap:round;stroke-linejoin:miter;stroke-miterlimit:10;stroke-dasharray:none;stroke-opacity:1"
         d="M 0,0 37.45,37.762" /></g><g
       transform="translate(173.2507,158.0661)"
       id="g112"><path
         id="path114"
         style="fill:none;stroke:#231f20;stroke-width:9.90200043;stroke-linecap:round;stroke-linejoin:miter;stroke-miterlimit:10;stroke-dasharray:none;stroke-opacity:1"
         d="M 0,0 H 51.021" /></g><g
       transform="translate(163.5556,135.1018)"
       id="g116"><path
         id="path118"
         style="fill:none;stroke:#231f20;stroke-width:9.90200043;stroke-linecap:round;stroke-linejoin:miter;stroke-miterlimit:10;stroke-dasharray:none;stroke-opacity:1"
         d="M 0,0 30.871,-31.296" /></g><g
       transform="translate(141.1816,125.997)"
       id="g120"><path
         id="path122"
         style="fill:none;stroke:#231f20;stroke-width:9.90200043;stroke-linecap:round;stroke-linejoin:miter;stroke-miterlimit:10;stroke-dasharray:none;stroke-opacity:1"
         d="M 0,0 V -57.891" /></g><g
       transform="translate(118.8069,135.1018)"
       id="g124"><path
         id="path126"
         style="fill:none;stroke:#231f20;stroke-width:9.90200043;stroke-linecap:round;stroke-linejoin:miter;stroke-miterlimit:10;stroke-dasharray:none;stroke-opacity:1"
         d="M 0,0 -30,-33.904" /></g><g
       transform="translate(109.1125,158.0661)"
       id="g128"><path
         id="path130"
         style="fill:none;stroke:#231f20;stroke-width:9.90200043;stroke-linecap:round;stroke-linejoin:miter;stroke-miterlimit:10;stroke-dasharray:none;stroke-opacity:1"
         d="M 0,0 H -49.583" /></g><g
       transform="translate(118.8027,181.0316)"
       id="g132"><path
         id="path134"
         style="fill:none;stroke:#231f20;stroke-width:9.90200043;stroke-linecap:round;stroke-linejoin:miter;stroke-miterlimit:10;stroke-dasharray:none;stroke-opacity:1"
         d="M 0,0 -36.657,37.762" /></g></g></svg>