<?xml version="1.0" encoding="UTF-8" standalone="no"?>
<svg
   xmlns:dc="http://purl.org/dc/elements/1.1/"
   xmlns:cc="http://creativecommons.org/ns#"
   xmlns:rdf="http://www.w3.org/1999/02/22-rdf-syntax-ns#"
   xmlns:svg="http://www.w3.org/2000/svg"
   xmlns="http://www.w3.org/2000/svg"
   viewBox="0 0 377.95334 377.95334"
   height="377.95334"
   width="377.95334"
   xml:space="preserve"
   id="svg2"
   version="1.1"><metadata
     id="metadata8"><rdf:RDF><cc:Work
         rdf:about=""><dc:format>image/svg+xml</dc:format><dc:type
           rdf:resource="http://purl.org/dc/dcmitype/StillImage" /></cc:Work></rdf:RDF></metadata><defs
     id="defs6"><clipPath
       id="clipPath18"
       clipPathUnits="userSpaceOnUse"><path
         id="path16"
         d="M 0,283.465 H 283.465 V 0 H 0 Z" /></clipPath></defs><g
     transform="matrix(1.3333333,0,0,-1.3333333,0,377.95333)"
     id="g10"><g
       id="g12"><g
         clip-path="url(#clipPath18)"
         id="g14"><g
           transform="translate(69.6249,27.7333)"
           id="g20"><path
             id="path22"
             style="fill:#231f20;fill-opacity:1;fill-rule:nonzero;stroke:none"
             d="m 0,0 c 2.064,-4.533 6.868,-7.185 11.738,-6.509 4.696,0.651 8.508,4.264 9.438,8.971 C 11.819,46.128 2.462,89.794 -6.895,133.46 L 68.453,200.436 153.159,130.012 126.565,3.447 c 0.628,-4.225 3.476,-7.724 7.312,-8.942 4.741,-1.505 10.227,0.72 12.879,5.495 8.865,38 17.729,75.999 26.594,113.999 l 10.342,-9.595 c 4.84,-3.22 11.146,-2.838 15.234,0.747 4.675,4.1 5.502,11.562 1.51,16.982 -20.52,17.729 -41.04,35.458 -61.559,53.187 v 57.126 H 107.851 L 106.866,202.652 72.107,232.446 -56.634,121.394 c -3.51,-4.726 -2.853,-11.301 1.277,-15.049 3.763,-3.414 9.623,-3.77 13.989,-0.71 4.925,4.268 9.85,8.536 14.775,12.804 z" /></g><g
           transform="translate(69.6249,27.7333)"
           id="g24"><path
             id="path26"
             style="fill:none;stroke:#231f20;stroke-width:2;stroke-linecap:round;stroke-linejoin:round;stroke-miterlimit:10;stroke-dasharray:none;stroke-opacity:1"
             d="m 0,0 c 2.064,-4.533 6.868,-7.185 11.738,-6.509 4.696,0.651 8.508,4.264 9.438,8.971 C 11.819,46.128 2.462,89.794 -6.895,133.46 L 68.453,200.436 153.159,130.012 126.565,3.447 c 0.628,-4.225 3.476,-7.724 7.312,-8.942 4.741,-1.505 10.227,0.72 12.879,5.495 8.865,38 17.729,75.999 26.594,113.999 l 10.342,-9.595 c 4.84,-3.22 11.146,-2.838 15.234,0.747 4.675,4.1 5.502,11.562 1.51,16.982 -20.52,17.729 -41.04,35.458 -61.559,53.187 v 57.126 H 107.851 L 106.866,202.652 72.107,232.446 -56.634,121.394 c -3.51,-4.726 -2.853,-11.301 1.277,-15.049 3.763,-3.414 9.623,-3.77 13.989,-0.71 4.925,4.268 9.85,8.536 14.775,12.804 z" /></g></g></g></g></svg>