<?xml version="1.0" encoding="UTF-8" standalone="no"?>
<svg
   xmlns:dc="http://purl.org/dc/elements/1.1/"
   xmlns:cc="http://creativecommons.org/ns#"
   xmlns:rdf="http://www.w3.org/1999/02/22-rdf-syntax-ns#"
   xmlns:svg="http://www.w3.org/2000/svg"
   xmlns="http://www.w3.org/2000/svg"
   viewBox="0 0 377.95334 377.95334"
   height="377.95334"
   width="377.95334"
   xml:space="preserve"
   id="svg2"
   version="1.1"><metadata
     id="metadata8"><rdf:RDF><cc:Work
         rdf:about=""><dc:format>image/svg+xml</dc:format><dc:type
           rdf:resource="http://purl.org/dc/dcmitype/StillImage" /></cc:Work></rdf:RDF></metadata><defs
     id="defs6"><clipPath
       id="clipPath22"
       clipPathUnits="userSpaceOnUse"><path
         id="path20"
         d="M 0,283.465 H 283.465 V 0 H 0 Z" /></clipPath></defs><g
     transform="matrix(1.3333333,0,0,-1.3333333,0,377.95333)"
     id="g10"><g
       transform="translate(227.9075,187.2437)"
       id="g12"><path
         id="path14"
         style="fill:#231f20;fill-opacity:1;fill-rule:nonzero;stroke:#231f20;stroke-width:2;stroke-linecap:round;stroke-linejoin:round;stroke-miterlimit:10;stroke-dasharray:none;stroke-opacity:1"
         d="M 0,0 V 57.127 H -31.026 L -32.011,27.332" /></g><g
       id="g16"><g
         clip-path="url(#clipPath22)"
         id="g18"><g
           transform="translate(176.4911,230.3851)"
           id="g24"><path
             id="path26"
             style="fill:#231f20;fill-opacity:1;fill-rule:nonzero;stroke:#231f20;stroke-width:2;stroke-linecap:round;stroke-linejoin:round;stroke-miterlimit:10;stroke-dasharray:none;stroke-opacity:1"
             d="M 0,0 -34.759,29.795 -163.5,-81.258 c -3.51,-4.726 -2.854,-11.301 1.277,-15.049 3.763,-3.414 9.623,-3.77 13.989,-0.71 4.925,4.268 9.85,8.536 14.774,12.804 l 26.594,-118.439 c 2.063,-4.533 6.867,-7.185 11.738,-6.509 4.695,0.651 8.508,4.264 9.438,8.971 -9.357,43.666 -18.714,87.332 -28.071,130.998 l 75.348,66.976 84.705,-70.423 -26.593,-126.566 c 0.628,-4.225 3.476,-7.724 7.312,-8.942 4.741,-1.505 10.227,0.72 12.879,5.495 8.865,38 17.729,75.999 26.594,113.999 l 10.342,-9.595 c 4.839,-3.22 11.146,-2.838 15.233,0.747 4.676,4.1 5.503,11.562 1.511,16.982 C 73.05,-62.79 20.52,-17.729 0,0" /></g></g></g></g></svg>