<?xml version="1.0" standalone="no"?>
<!DOCTYPE svg PUBLIC "-//W3C//DTD SVG 20010904//EN"
 "http://www.w3.org/TR/2001/REC-SVG-20010904/DTD/svg10.dtd">
<svg version="1.0" xmlns="http://www.w3.org/2000/svg"
 width="1452.000000pt" height="1469.000000pt" viewBox="0 0 1452.000000 1469.000000"
 preserveAspectRatio="xMidYMid meet">

<g transform="translate(0.000000,1469.000000) scale(0.100000,-0.100000)"
fill="#000000" stroke="none">
<path d="M3634 11318 c-3253 -3116 -3471 -3327 -3502 -3388 -41 -82 -56 -169
-42 -252 36 -225 256 -387 473 -349 126 22 160 47 489 362 l303 289 5 -3947 5
-3948 5898 -3 5899 -2 -6 522 c-11 898 -57 7074 -54 7247 l3 165 335 -308
c360 -330 395 -356 518 -377 266 -47 516 203 472 473 -15 95 -58 172 -142 254
-127 124 -7158 6575 -7172 6580 -8 3 -1410 -1333 -3482 -3318z m6065 -178
l2561 -2351 0 -142 c0 -78 14 -1847 30 -3931 17 -2084 29 -3790 27 -3792 -3
-3 -5724 -6 -8599 -5 l-1518 1 1 3938 1 3937 2456 2352 c1351 1294 2462 2351
2469 2348 6 -2 1164 -1062 2572 -2355z"/>
</g>
</svg>
