<?xml version="1.0" encoding="UTF-8" standalone="no"?>
<svg
   xmlns:dc="http://purl.org/dc/elements/1.1/"
   xmlns:cc="http://creativecommons.org/ns#"
   xmlns:rdf="http://www.w3.org/1999/02/22-rdf-syntax-ns#"
   xmlns:svg="http://www.w3.org/2000/svg"
   xmlns="http://www.w3.org/2000/svg"
   viewBox="0 0 377.95334 377.95334"
   height="377.95334"
   width="377.95334"
   xml:space="preserve"
   id="svg2"
   version="1.1"><metadata
     id="metadata8"><rdf:RDF><cc:Work
         rdf:about=""><dc:format>image/svg+xml</dc:format><dc:type
           rdf:resource="http://purl.org/dc/dcmitype/StillImage" /></cc:Work></rdf:RDF></metadata><defs
     id="defs6"><clipPath
       id="clipPath18"
       clipPathUnits="userSpaceOnUse"><path
         id="path16"
         d="M 0,283.465 H 283.465 V 0 H 0 Z" /></clipPath></defs><g
     transform="matrix(1.3333333,0,0,-1.3333333,0,377.95333)"
     id="g10"><g
       id="g12"><g
         clip-path="url(#clipPath18)"
         id="g14"><g
           transform="translate(47.1029,63.5925)"
           id="g20"><path
             id="path22"
             style="fill:none;stroke:#231f20;stroke-width:10;stroke-linecap:butt;stroke-linejoin:miter;stroke-miterlimit:10;stroke-dasharray:none;stroke-opacity:1"
             d="m 0,0 h 184.673 c 1.366,0.37 4.423,1.398 7.09,4.236 2.096,2.23 3.014,4.581 3.42,5.899 v 110.353 c -0.129,1.12 -0.66,4.444 -3.42,7.252 -3.842,3.91 -8.922,3.682 -9.717,3.633 h -28.902 l -20.269,34.533 H 50.297 L 35.658,129.497 H 0 c -1.169,-0.19 -3.893,-0.795 -6.422,-3.023 -3.046,-2.682 -3.865,-6.005 -4.088,-7.112 V 10.384 C -10.615,9.443 -10.782,6.776 -9.134,4.236 -7.251,1.333 -3.737,-0.264 0,0 Z" /></g><g
           transform="translate(56.4036,193.089)"
           id="g24"><path
             id="path26"
             style="fill:none;stroke:#231f20;stroke-width:10;stroke-linecap:butt;stroke-linejoin:miter;stroke-miterlimit:10;stroke-dasharray:none;stroke-opacity:1"
             d="m 0,0 v 15.697 c 0.152,0.256 2.961,4.808 8.408,4.882 3.546,0.048 6.863,-1.819 8.68,-4.882 V 0" /></g><g
           transform="translate(172.2257,135.7255)"
           id="g28"><path
             id="path30"
             style="fill:none;stroke:#231f20;stroke-width:10;stroke-linecap:butt;stroke-linejoin:miter;stroke-miterlimit:10;stroke-dasharray:none;stroke-opacity:1"
             d="m 0,0 c 0,-18.124 -14.693,-32.817 -32.817,-32.817 -18.124,0 -32.817,14.693 -32.817,32.817 0,18.124 14.693,32.817 32.817,32.817 C -14.693,32.817 0,18.124 0,0 Z" /></g><g
           transform="translate(193.6524,135.7255)"
           id="g32"><path
             id="path34"
             style="fill:none;stroke:#231f20;stroke-width:10;stroke-linecap:butt;stroke-linejoin:miter;stroke-miterlimit:10;stroke-dasharray:none;stroke-opacity:1"
             d="m 0,0 c 0,-29.958 -24.286,-54.244 -54.244,-54.244 -29.958,0 -54.243,24.286 -54.243,54.244 0,29.958 24.285,54.244 54.243,54.244 C -24.286,54.244 0,29.958 0,0 Z" /></g><g
           transform="translate(227.1191,169.4946)"
           id="g36"><path
             id="path38"
             style="fill:none;stroke:#231f20;stroke-width:10;stroke-linecap:butt;stroke-linejoin:miter;stroke-miterlimit:10;stroke-dasharray:none;stroke-opacity:1"
             d="m 0,0 c 0,-5.337 -4.326,-9.663 -9.663,-9.663 -5.336,0 -9.663,4.326 -9.663,9.663 0,5.337 4.327,9.663 9.663,9.663 C -4.326,9.663 0,5.337 0,0 Z" /></g></g></g></g></svg>