<?xml version="1.0" encoding="UTF-8" standalone="no"?>
<svg
   xmlns:dc="http://purl.org/dc/elements/1.1/"
   xmlns:cc="http://creativecommons.org/ns#"
   xmlns:rdf="http://www.w3.org/1999/02/22-rdf-syntax-ns#"
   xmlns:svg="http://www.w3.org/2000/svg"
   xmlns="http://www.w3.org/2000/svg"
   viewBox="0 0 377.95334 377.95334"
   height="377.95334"
   width="377.95334"
   xml:space="preserve"
   id="svg2"
   version="1.1"><metadata
     id="metadata8"><rdf:RDF><cc:Work
         rdf:about=""><dc:format>image/svg+xml</dc:format><dc:type
           rdf:resource="http://purl.org/dc/dcmitype/StillImage" /></cc:Work></rdf:RDF></metadata><defs
     id="defs6"><clipPath
       id="clipPath18"
       clipPathUnits="userSpaceOnUse"><path
         id="path16"
         d="M 0,283.465 H 283.465 V 0 H 0 Z" /></clipPath></defs><g
     transform="matrix(1.3333333,0,0,-1.3333333,0,377.95333)"
     id="g10"><g
       id="g12"><g
         clip-path="url(#clipPath18)"
         id="g14"><g
           transform="translate(165.2892,69.1445)"
           id="g20"><path
             id="path22"
             style="fill:none;stroke:#231f20;stroke-width:15;stroke-linecap:round;stroke-linejoin:miter;stroke-miterlimit:10;stroke-dasharray:none;stroke-opacity:1"
             d="m 0,0 c 24.437,-3.654 38.459,-14.244 38.459,-29.924 0,-19.674 -27.376,-31.335 -61.702,-31.335 -34.325,0 -62.151,11.661 -62.151,31.335 0,15.142 16.483,25.538 39.726,29.524" /></g><g
           transform="translate(141.8218,38.5148)"
           id="g24"><path
             id="path26"
             style="fill:none;stroke:#231f20;stroke-width:15;stroke-linecap:round;stroke-linejoin:round;stroke-miterlimit:10;stroke-dasharray:none;stroke-opacity:1"
             d="m 0,0 c -23.936,35.446 -47.872,70.893 -71.808,106.339 -20.033,35.072 -17.517,76.735 5.469,103.381 23.52,27.264 58.678,27.455 65.596,27.332 4.014,-0.072 49.009,-1.659 73.111,-40.314 C 89.939,168.557 89.352,131.99 71.002,102.959 47.334,68.639 23.667,34.32 0,0 Z" /></g><g
           transform="translate(176.1494,175.8904)"
           id="g28"><path
             id="path30"
             style="fill:none;stroke:#231f20;stroke-width:15;stroke-linecap:round;stroke-linejoin:miter;stroke-miterlimit:10;stroke-dasharray:none;stroke-opacity:1"
             d="m 0,0 c 0,-19.008 -15.409,-34.417 -34.417,-34.417 -19.008,0 -34.417,15.409 -34.417,34.417 0,19.008 15.409,34.417 34.417,34.417 C -15.409,34.417 0,19.008 0,0 Z" /></g></g></g></g></svg>