<?xml version="1.0" encoding="UTF-8" standalone="no"?>
<svg
   xmlns:dc="http://purl.org/dc/elements/1.1/"
   xmlns:cc="http://creativecommons.org/ns#"
   xmlns:rdf="http://www.w3.org/1999/02/22-rdf-syntax-ns#"
   xmlns:svg="http://www.w3.org/2000/svg"
   xmlns="http://www.w3.org/2000/svg"
   viewBox="0 0 377.95334 377.95334"
   height="377.95334"
   width="377.95334"
   xml:space="preserve"
   id="svg2"
   version="1.1"><metadata
     id="metadata8"><rdf:RDF><cc:Work
         rdf:about=""><dc:format>image/svg+xml</dc:format><dc:type
           rdf:resource="http://purl.org/dc/dcmitype/StillImage" /></cc:Work></rdf:RDF></metadata><defs
     id="defs6"><clipPath
       id="clipPath26"
       clipPathUnits="userSpaceOnUse"><path
         id="path24"
         d="M 0,283.465 H 283.465 V 0 H 0 Z" /></clipPath><clipPath
       id="clipPath58"
       clipPathUnits="userSpaceOnUse"><path
         id="path56"
         d="M 0,283.465 H 283.465 V 0 H 0 Z" /></clipPath></defs><g
     transform="matrix(1.3333333,0,0,-1.3333333,0,377.95333)"
     id="g10"><g
       transform="translate(24.8604,76.4058)"
       id="g12"><path
         id="path14"
         style="fill:#1d1d1b;fill-opacity:1;fill-rule:nonzero;stroke:none"
         d="m 0,0 56.811,10.308 -41.39,23.92 z" /></g><g
       transform="translate(24.8604,76.4058)"
       id="g16"><path
         id="path18"
         style="fill:none;stroke:#00000000;stroke-width:1;stroke-linecap:round;stroke-linejoin:round;stroke-miterlimit:10;stroke-dasharray:none;stroke-opacity:1"
         d="M 0,0 56.811,10.308 15.421,34.228 0,0" /></g><g
       id="g20"><g
         clip-path="url(#clipPath26)"
         id="g22"><g
           transform="translate(18.1019,61.4052)"
           id="g28"><path
             id="path30"
             style="fill:#1d1d1b;fill-opacity:1;fill-rule:nonzero;stroke:#00000000;stroke-width:1;stroke-linecap:round;stroke-linejoin:round;stroke-miterlimit:10;stroke-dasharray:none;stroke-opacity:1"
             d="m 0,0 81.407,15.001 85.723,-49.54 H -8.697 c -1.434,0.562 -2.531,1.244 -3.319,2.294 -0.641,0.856 -0.97,1.936 -0.97,3.424 C -8.657,-19.214 -4.329,-9.607 0,0" /></g><g
           transform="translate(107.4111,92.4268)"
           id="g32"><path
             id="path34"
             style="fill:#1d1d1b;fill-opacity:1;fill-rule:nonzero;stroke:none"
             d="m 0,0 7.887,-0.386 -26.6,30.167 h -32.585 z" /></g><g
           transform="translate(107.4111,92.4268)"
           id="g36"><path
             id="path38"
             style="fill:none;stroke:#00000000;stroke-width:1;stroke-linecap:round;stroke-linejoin:round;stroke-miterlimit:10;stroke-dasharray:none;stroke-opacity:1"
             d="m 0,0 7.887,-0.386 -26.6,30.167 H -51.298 L 0,0" /></g><g
           transform="translate(196.3566,122.2081)"
           id="g40"><path
             id="path42"
             style="fill:#1d1d1b;fill-opacity:1;fill-rule:nonzero;stroke:none"
             d="m 0,0 -15.612,-18.767 59.666,11.729 c -0.012,0.01 -3.204,3.644 -4.393,4.524 -0.92,0.68 -4.193,2.501 -4.209,2.514 z" /></g><g
           transform="translate(196.3566,122.2081)"
           id="g44"><path
             id="path46"
             style="fill:none;stroke:#00000000;stroke-width:1;stroke-linecap:round;stroke-linejoin:round;stroke-miterlimit:10;stroke-dasharray:none;stroke-opacity:1"
             d="m 0,0 -15.612,-18.767 59.666,11.729 c -0.012,0.01 -3.204,3.644 -4.393,4.524 -0.92,0.68 -4.193,2.501 -4.209,2.514 L 0,0" /></g><g
           transform="translate(246.3641,102.2367)"
           id="g48"><path
             id="path50"
             style="fill:#1d1d1b;fill-opacity:1;fill-rule:nonzero;stroke:#00000000;stroke-width:1;stroke-linecap:round;stroke-linejoin:round;stroke-miterlimit:10;stroke-dasharray:none;stroke-opacity:1"
             d="M 0,0 -79.229,-14.402 -93.05,-36.46 -26.025,-75.371 h 52.656 c 2.263,0.285 2.995,0.648 3.961,1.804 0.828,0.99 1.028,2.995 1.253,4.387 C 21.23,-46.12 10.615,-23.06 0,0" /></g></g></g><g
       id="g52"><g
         clip-path="url(#clipPath58)"
         id="g54"><g
           transform="translate(145.2632,81.7356)"
           id="g60"><path
             id="path62"
             style="fill:#1d1d1b;fill-opacity:1;fill-rule:nonzero;stroke:none"
             d="M 0,0 C -0.105,-0.144 -1.452,-1.932 -3.757,-1.838 -5.844,-1.753 -7.013,-0.196 -7.155,0 -12.264,10.241 -19.22,22.146 -28.68,34.534 c -7.289,9.544 -14.643,17.514 -21.409,24.057 -18.058,20.72 -21.985,49.948 -9.98,73.494 10.366,20.33 32.004,35.241 56.794,35.006 22.682,-0.216 42.031,-13.053 52.508,-29.648 C 63.936,114.156 61.77,82.515 43.458,58.592 36.381,51.981 28.515,43.684 20.741,33.5 11.521,21.42 4.836,9.837 0,0" /></g><g
           transform="translate(145.2632,81.7356)"
           id="g64"><path
             id="path66"
             style="fill:none;stroke:#00000000;stroke-width:1;stroke-linecap:round;stroke-linejoin:round;stroke-miterlimit:10;stroke-dasharray:none;stroke-opacity:1"
             d="M 0,0 C -0.105,-0.144 -1.452,-1.932 -3.757,-1.838 -5.844,-1.753 -7.013,-0.196 -7.155,0 -12.264,10.241 -19.22,22.146 -28.68,34.534 c -7.289,9.544 -14.643,17.514 -21.409,24.057 -18.058,20.72 -21.985,49.948 -9.98,73.494 10.366,20.33 32.004,35.241 56.794,35.006 22.682,-0.216 42.031,-13.053 52.508,-29.648 C 63.936,114.156 61.77,82.515 43.458,58.592 36.381,51.981 28.515,43.684 20.741,33.5 11.521,21.42 4.836,9.837 0,0 Z" /></g><g
           transform="translate(175.0806,185.1128)"
           id="g68"><path
             id="path70"
             style="fill:#FFFFFF00;fill-opacity:1;fill-rule:nonzero;stroke:none"
             d="m 0,0 c 0,-18.418 -14.931,-33.348 -33.348,-33.348 -18.418,0 -33.349,14.93 -33.349,33.348 0,18.418 14.931,33.348 33.349,33.348 C -14.931,33.348 0,18.418 0,0" /></g><g
           transform="translate(175.0806,185.1128)"
           id="g72"><path
             id="path74"
             style="fill:none;stroke:#00000000;stroke-width:1;stroke-linecap:round;stroke-linejoin:round;stroke-miterlimit:10;stroke-dasharray:none;stroke-opacity:1"
             d="m 0,0 c 0,-18.418 -14.931,-33.348 -33.348,-33.348 -18.418,0 -33.349,14.93 -33.349,33.348 0,18.418 14.931,33.348 33.349,33.348 C -14.931,33.348 0,18.418 0,0 Z" /></g></g></g></g></svg>