<?xml version="1.0" encoding="UTF-8"?>
<svg xmlns="http://www.w3.org/2000/svg" xmlns:xlink="http://www.w3.org/1999/xlink" width="283.465pt" height="283.465pt" viewBox="0 0 283.465 283.465" version="1.1">
<defs>
<clipPath id="clip1">
  <path d="M 0 0 L 283.464844 0 L 283.464844 283.464844 L 0 283.464844 Z M 0 0 "/>
</clipPath>
</defs>
<g id="surface1">
<path style=" stroke:none;fill-rule:nonzero;fill:rgb(13.729858%,12.159729%,12.548828%);fill-opacity:1;" d="M 223.84375 45.503906 C 223.84375 68.179688 205.464844 86.5625 182.789062 86.5625 C 160.113281 86.5625 141.730469 68.179688 141.730469 45.503906 C 141.730469 22.828125 160.113281 4.449219 182.789062 4.449219 C 205.464844 4.449219 223.84375 22.828125 223.84375 45.503906 "/>
<path style="fill:none;stroke-width:0.591;stroke-linecap:butt;stroke-linejoin:miter;stroke:rgb(13.729858%,12.159729%,12.548828%);stroke-opacity:1;stroke-miterlimit:10;" d="M -0.00045 0.00099375 C -0.00045 -22.674788 -18.379356 -41.0576 -41.055138 -41.0576 C -63.730919 -41.0576 -82.113731 -22.674788 -82.113731 0.00099375 C -82.113731 22.676775 -63.730919 41.055681 -41.055138 41.055681 C -18.379356 41.055681 -0.00045 22.676775 -0.00045 0.00099375 Z M -0.00045 0.00099375 " transform="matrix(1,0,0,-1,223.8442,45.5049)"/>
<path style=" stroke:none;fill-rule:nonzero;fill:rgb(13.729858%,12.159729%,12.548828%);fill-opacity:1;" d="M 139.136719 68.253906 C 141.070312 71.964844 144.425781 77.296875 149.984375 82.382812 C 157.121094 88.910156 164.511719 91.941406 168.894531 93.359375 C 145.007812 115.847656 121.125 138.339844 97.242188 160.828125 C 92.800781 163.019531 87.527344 162.414062 83.902344 159.316406 C 79.789062 155.800781 78.550781 149.722656 81.027344 144.613281 C 100.398438 119.160156 119.765625 93.707031 139.136719 68.253906 "/>
<path style="fill:none;stroke-width:0.591;stroke-linecap:butt;stroke-linejoin:miter;stroke:rgb(13.729858%,12.159729%,12.548828%);stroke-opacity:1;stroke-miterlimit:10;" d="M 0.00171875 0.00169375 C 1.935313 -3.709244 5.290781 -9.041275 10.849375 -14.127213 C 17.986094 -20.654556 25.376719 -23.685806 29.759531 -25.103775 C 5.872813 -47.592056 -18.01 -70.084244 -41.892812 -92.572525 C -46.334219 -94.763931 -51.607656 -94.158463 -55.232656 -91.060806 C -59.345937 -87.545181 -60.584219 -81.467056 -58.107656 -76.357681 C -38.736562 -50.904556 -19.369375 -25.451431 0.00171875 0.00169375 Z M 0.00171875 0.00169375 " transform="matrix(1,0,0,-1,139.135,68.2556)"/>
<path style="fill-rule:nonzero;fill:rgb(13.729858%,12.159729%,12.548828%);fill-opacity:1;stroke-width:0.591;stroke-linecap:butt;stroke-linejoin:miter;stroke:rgb(13.729858%,12.159729%,12.548828%);stroke-opacity:1;stroke-miterlimit:10;" d="M 0.0009625 0.00065 C 0.74315 -2.128256 2.325181 -5.761069 5.645494 -9.245444 C 9.438462 -13.229819 13.5869 -15.011069 15.782212 -15.7806 C 11.508775 -17.425131 7.231431 -19.069663 2.957994 -20.714194 L -1.827163 -15.503256 L -5.424819 -11.589194 Z M 0.0009625 0.00065 " transform="matrix(1,0,0,-1,74.0381,152.6569)"/>
<g clip-path="url(#clip1)" clip-rule="nonzero">
<path style="fill:none;stroke-width:13.002;stroke-linecap:round;stroke-linejoin:miter;stroke:rgb(13.729858%,12.159729%,12.548828%);stroke-opacity:1;stroke-miterlimit:10;" d="M 0.00183125 -0.0002625 C 8.509644 5.277081 44.736206 28.8513 46.244019 63.093487 C 46.474488 68.343487 47.494019 81.804425 38.798706 88.175519 C 27.478394 96.468487 12.63855 92.808331 6.396363 89.394269 C -24.783325 72.3513 -31.412231 51.878644 -57.998169 49.378644 C -67.916137 48.44505 -82.36145 50.433331 -86.607544 59.566144 C -91.619262 70.339581 -85.306762 89.124737 -66.123169 105.261456 " transform="matrix(1,0,0,-1,139.0177,274.1638)"/>
</g>
</g>
</svg>
