<?xml version="1.0" encoding="UTF-8"?>
<svg xmlns="http://www.w3.org/2000/svg" xmlns:xlink="http://www.w3.org/1999/xlink" width="283.465pt" height="283.465pt" viewBox="0 0 283.465 283.465" version="1.1">
<g id="surface1">
<path style="fill:none;stroke-width:9.302;stroke-linecap:butt;stroke-linejoin:round;stroke:rgb(13.729858%,12.159729%,12.548828%);stroke-opacity:1;stroke-miterlimit:10;" d="M -0.00004375 0.00073125 L 40.492144 -27.319581 L -46.835981 -143.432862 L -73.668013 -124.405519 Z M -0.00004375 0.00073125 " transform="matrix(1,0,0,-1,139.0977,70.2312)"/>
<path style="fill:none;stroke-width:9.302;stroke-linecap:round;stroke-linejoin:round;stroke:rgb(13.729858%,12.159729%,12.548828%);stroke-opacity:1;stroke-miterlimit:10;" d="M -0.0005125 -0.001625 C 12.640112 11.599937 14.405737 19.060875 13.171362 23.904625 C 11.308081 31.228844 2.573706 32.658531 0.97605 40.006187 C -0.625513 47.35775 6.097144 55.209312 12.815894 61.166344 " transform="matrix(1,0,0,-1,65.4302,264.889)"/>
<path style="fill:none;stroke-width:9.302;stroke-linecap:round;stroke-linejoin:round;stroke:rgb(13.729858%,12.159729%,12.548828%);stroke-opacity:1;stroke-miterlimit:10;" d="M -0.00163125 0.00005625 C -2.841475 5.722712 -4.634444 9.019587 -4.634444 15.8399 C -4.634444 21.285212 -3.618819 26.49615 -1.759444 31.285212 C 4.431962 47.257869 19.947587 58.582087 38.107744 58.582087 C 61.713212 58.582087 80.853837 39.445369 80.853837 15.8399 C 80.853837 -7.765569 61.713212 -26.902288 38.107744 -26.902288 " transform="matrix(1,0,0,-1,141.4821,71.8399)"/>
<path style="fill:none;stroke-width:9.302;stroke-linecap:round;stroke-linejoin:round;stroke:rgb(13.729858%,12.159729%,12.548828%);stroke-opacity:1;stroke-miterlimit:10;" d="M -0.0016375 0.00103125 L -66.943044 44.426812 " transform="matrix(1,0,0,-1,206.6657,84.9815)"/>
<path style="fill:none;stroke-width:9.302;stroke-linecap:round;stroke-linejoin:round;stroke:rgb(13.729858%,12.159729%,12.548828%);stroke-opacity:1;stroke-miterlimit:10;" d="M 0.0013 -0.0003625 L 15.03255 22.718387 " transform="matrix(1,0,0,-1,132.9987,125.5387)"/>
</g>
</svg>
