<?xml version="1.0" encoding="UTF-8"?>
<svg xmlns="http://www.w3.org/2000/svg" xmlns:xlink="http://www.w3.org/1999/xlink" width="283.465pt" height="283.465pt" viewBox="0 0 283.465 283.465" version="1.1">
<defs>
<clipPath id="clip1">
  <path d="M 0 0 L 283.464844 0 L 283.464844 283.464844 L 0 283.464844 Z M 0 0 "/>
</clipPath>
<clipPath id="clip2">
  <path d="M 0 0 L 283.464844 0 L 283.464844 246 L 0 246 Z M 0 0 "/>
</clipPath>
<clipPath id="clip3">
  <path d="M 0 3 L 283.464844 3 L 283.464844 283.464844 L 0 283.464844 Z M 0 3 "/>
</clipPath>
<clipPath id="clip4">
  <path d="M 9 0 L 283.464844 0 L 283.464844 283.464844 L 9 283.464844 Z M 9 0 "/>
</clipPath>
<clipPath id="clip5">
  <path d="M 51 0 L 283.464844 0 L 283.464844 283.464844 L 51 283.464844 Z M 51 0 "/>
</clipPath>
<clipPath id="clip6">
  <path d="M 66 22 L 283.464844 22 L 283.464844 283.464844 L 66 283.464844 Z M 66 22 "/>
</clipPath>
<clipPath id="clip7">
  <path d="M 0 0 L 283.464844 0 L 283.464844 283.464844 L 0 283.464844 Z M 0 0 "/>
</clipPath>
</defs>
<g id="surface1">
<path style=" stroke:none;fill-rule:nonzero;fill:rgb(13.729858%,12.159729%,12.548828%);fill-opacity:1;" d="M 52.164062 116.628906 C 51.882812 125.335938 56.230469 133.308594 63.1875 136.730469 C 72.519531 141.320312 85.5 137.207031 91.53125 126.074219 C 91.648438 125.792969 92.894531 122.953125 96.066406 122.21875 C 99.535156 121.417969 102.046875 123.894531 102.1875 124.035156 C 110.757812 127.753906 120.34375 126.710938 126.222656 121.3125 C 134.425781 113.78125 134.953125 98.207031 124.636719 87.753906 C 121.65625 84.40625 116.847656 79.773438 109.894531 75.964844 C 104.519531 73.019531 88.632812 64.3125 74.296875 70.976562 C 65.660156 74.988281 61.5625 82.730469 58.425781 88.660156 C 52.355469 100.132812 51.964844 111.03125 52.164062 116.628906 "/>
<g clip-path="url(#clip1)" clip-rule="nonzero">
<path style="fill:none;stroke-width:12.316;stroke-linecap:butt;stroke-linejoin:miter;stroke:rgb(13.729858%,12.159729%,12.548828%);stroke-opacity:1;stroke-miterlimit:10;" d="M -0.0003375 0.00019375 C -0.281588 -8.706838 4.066069 -16.679494 11.0231 -20.101369 C 20.355131 -24.691213 33.3356 -20.577931 39.36685 -9.445119 C 39.484037 -9.163869 40.730131 -6.324025 43.902006 -5.58965 C 47.370756 -4.788869 49.882475 -7.265431 50.0231 -7.406056 C 58.593412 -11.124806 68.17935 -10.081838 74.058256 -4.6834 C 82.261381 2.84785 82.788725 18.422069 72.472319 28.875194 C 69.49185 32.22285 64.683256 36.855662 57.730131 40.664256 C 52.355131 43.609569 36.468412 52.3166 22.132475 45.652537 C 13.495756 41.640819 9.3981 33.898631 6.261381 27.968944 C 0.191069 16.496287 -0.199556 5.59785 -0.0003375 0.00019375 Z M -0.0003375 0.00019375 " transform="matrix(1,0,0,-1,52.1644,116.6291)"/>
</g>
<path style=" stroke:none;fill-rule:nonzero;fill:rgb(13.729858%,12.159729%,12.548828%);fill-opacity:1;" d="M 59.066406 42.523438 C 62.21875 51.167969 59.765625 60.007812 53.589844 62.257812 C 47.410156 64.507812 39.847656 59.324219 36.695312 50.675781 C 33.542969 42.027344 35.996094 33.191406 42.171875 30.941406 C 48.351562 28.6875 55.914062 33.875 59.066406 42.523438 "/>
<path style="fill:none;stroke-width:12.316;stroke-linecap:butt;stroke-linejoin:miter;stroke:rgb(13.729858%,12.159729%,12.548828%);stroke-opacity:1;stroke-miterlimit:10;" d="M 0.00130625 -0.0015375 C 3.15365 -8.646069 0.700525 -17.485913 -5.475256 -19.735913 C -11.654944 -21.985913 -19.217444 -16.802319 -22.369788 -8.153881 C -25.522131 0.494556 -23.069006 9.330494 -16.893225 11.580494 C -10.713538 13.8344 -3.151038 8.6469 0.00130625 -0.0015375 Z M 0.00130625 -0.0015375 " transform="matrix(1,0,0,-1,59.0651,42.5219)"/>
<path style=" stroke:none;fill-rule:nonzero;fill:rgb(13.729858%,12.159729%,12.548828%);fill-opacity:1;" d="M 106.519531 33.835938 C 107.886719 42.9375 103.722656 51.105469 97.222656 52.082031 C 90.71875 53.058594 84.34375 46.472656 82.976562 37.367188 C 81.609375 28.265625 85.773438 20.09375 92.273438 19.121094 C 98.777344 18.144531 105.15625 24.730469 106.519531 33.835938 "/>
<path style="fill:none;stroke-width:12.316;stroke-linecap:butt;stroke-linejoin:miter;stroke:rgb(13.729858%,12.159729%,12.548828%);stroke-opacity:1;stroke-miterlimit:10;" d="M -0.00076875 -0.0016375 C 1.366419 -9.1032 -2.797644 -17.271169 -9.297644 -18.247731 C -15.80155 -19.224294 -22.17655 -12.638356 -23.543737 -3.532888 C -24.910925 5.568675 -20.746862 13.74055 -14.246862 14.713206 C -7.742956 15.689769 -1.36405 9.103831 -0.00076875 -0.0016375 Z M -0.00076875 -0.0016375 " transform="matrix(1,0,0,-1,106.5203,33.8343)"/>
<path style=" stroke:none;fill-rule:nonzero;fill:rgb(13.729858%,12.159729%,12.548828%);fill-opacity:1;" d="M 140.90625 61.980469 C 138.863281 68.570312 133.394531 72.730469 128.683594 71.273438 C 123.976562 69.816406 121.816406 63.292969 123.855469 56.699219 C 125.898438 50.109375 131.367188 45.949219 136.074219 47.40625 C 140.785156 48.863281 142.945312 55.390625 140.90625 61.980469 "/>
<g clip-path="url(#clip2)" clip-rule="nonzero">
<path style="fill:none;stroke-width:12.316;stroke-linecap:butt;stroke-linejoin:miter;stroke:rgb(13.729858%,12.159729%,12.548828%);stroke-opacity:1;stroke-miterlimit:10;" d="M 0.00135 -0.00036875 C -2.041619 -6.590213 -7.510369 -10.750369 -12.221306 -9.293338 C -16.928337 -7.836306 -19.088494 -1.312869 -17.049431 5.280881 C -15.006462 11.870725 -9.537712 16.030881 -4.830681 14.57385 C -0.119744 13.116819 2.040413 6.589475 0.00135 -0.00036875 Z M 0.00135 -0.00036875 " transform="matrix(1,0,0,-1,140.9049,61.9801)"/>
</g>
<path style=" stroke:none;fill-rule:nonzero;fill:rgb(13.729858%,12.159729%,12.548828%);fill-opacity:1;" d="M 34.273438 81.679688 C 38.796875 86.890625 39.441406 93.738281 35.71875 96.964844 C 31.996094 100.195312 25.3125 98.585938 20.792969 93.375 C 16.273438 88.160156 15.625 81.320312 19.347656 78.089844 C 23.070312 74.859375 29.753906 76.46875 34.273438 81.679688 "/>
<path style="fill:none;stroke-width:12.316;stroke-linecap:butt;stroke-linejoin:miter;stroke:rgb(13.729858%,12.159729%,12.548828%);stroke-opacity:1;stroke-miterlimit:10;" d="M -0.0011625 0.0008125 C 4.522275 -5.210125 5.166806 -12.057781 1.44415 -15.284344 C -2.278506 -18.514813 -8.9621 -16.905438 -13.481631 -11.6945 C -18.001162 -6.479656 -18.6496 0.360187 -14.926944 3.590656 C -11.204287 6.821125 -4.520694 5.21175 -0.0011625 0.0008125 Z M -0.0011625 0.0008125 " transform="matrix(1,0,0,-1,34.2746,81.6805)"/>
<path style=" stroke:none;fill-rule:nonzero;fill:rgb(13.729858%,12.159729%,12.548828%);fill-opacity:1;" d="M 154.253906 199.074219 C 148.457031 205.578125 146.679688 214.484375 149.824219 221.570312 C 154.046875 231.074219 166.644531 236.242188 178.410156 231.5625 C 178.683594 231.421875 181.457031 230.039062 184.363281 231.511719 C 187.539062 233.121094 187.882812 236.628906 187.898438 236.828125 C 192.089844 245.179688 200.113281 250.523438 208.089844 250.148438 C 219.214844 249.628906 229.601562 238.015625 228.386719 223.378906 C 228.246094 218.898438 227.527344 212.257812 224.632812 204.878906 C 222.398438 199.171875 215.785156 182.304688 200.511719 178.226562 C 191.308594 175.769531 183.199219 179.085938 176.992188 181.625 C 164.980469 186.535156 157.6875 194.652344 154.253906 199.074219 "/>
<g clip-path="url(#clip3)" clip-rule="nonzero">
<path style="fill:none;stroke-width:12.316;stroke-linecap:butt;stroke-linejoin:miter;stroke:rgb(13.729858%,12.159729%,12.548828%);stroke-opacity:1;stroke-miterlimit:10;" d="M -0.00169375 0.00128125 C -5.798569 -6.502625 -7.575912 -15.408875 -4.431381 -22.494813 C -0.208725 -31.998719 12.388931 -37.166688 24.154556 -32.487 C 24.427994 -32.346375 27.201431 -30.963563 30.107681 -32.436219 C 33.283463 -34.045594 33.627213 -37.553406 33.642838 -37.752625 C 37.834244 -46.104188 45.857681 -51.447938 53.834244 -51.072938 C 64.959244 -50.553406 75.345963 -38.940125 74.131119 -24.303406 C 73.990494 -19.822938 73.271744 -13.182313 70.377213 -5.803406 C 68.142838 -0.096375 61.529556 16.770812 46.256119 20.848937 C 37.052994 23.305969 28.943619 19.989562 22.736588 17.4505 C 10.724869 12.540344 3.4319 4.423156 -0.00169375 0.00128125 Z M -0.00169375 0.00128125 " transform="matrix(1,0,0,-1,154.2556,199.0755)"/>
</g>
<path style=" stroke:none;fill-rule:nonzero;fill:rgb(13.729858%,12.159729%,12.548828%);fill-opacity:1;" d="M 207.0625 146.625 C 203.9375 155.285156 196.390625 160.492188 190.207031 158.261719 C 184.023438 156.027344 181.542969 147.199219 184.667969 138.542969 C 187.792969 129.886719 195.339844 124.675781 201.523438 126.90625 C 207.707031 129.140625 210.1875 137.96875 207.0625 146.625 "/>
<g clip-path="url(#clip4)" clip-rule="nonzero">
<path style="fill:none;stroke-width:12.316;stroke-linecap:butt;stroke-linejoin:miter;stroke:rgb(13.729858%,12.159729%,12.548828%);stroke-opacity:1;stroke-miterlimit:10;" d="M 0.0002 0.0009 C -3.1248 -8.659256 -10.671675 -13.866288 -16.855269 -11.635819 C -23.038863 -9.401444 -25.519331 -0.573319 -22.394331 8.082931 C -19.269331 16.739181 -11.722456 21.950119 -5.538863 19.71965 C 0.644731 17.485275 3.1252 8.65715 0.0002 0.0009 Z M 0.0002 0.0009 " transform="matrix(1,0,0,-1,207.0623,146.6259)"/>
</g>
<path style=" stroke:none;fill-rule:nonzero;fill:rgb(13.729858%,12.159729%,12.548828%);fill-opacity:1;" d="M 249.050781 170.382812 C 244.261719 178.246094 235.832031 181.84375 230.214844 178.425781 C 224.601562 175.007812 223.929688 165.863281 228.714844 158 C 233.503906 150.136719 241.9375 146.539062 247.550781 149.957031 C 253.167969 153.375 253.839844 162.519531 249.050781 170.382812 "/>
<g clip-path="url(#clip5)" clip-rule="nonzero">
<path style="fill:none;stroke-width:12.316;stroke-linecap:butt;stroke-linejoin:miter;stroke:rgb(13.729858%,12.159729%,12.548828%);stroke-opacity:1;stroke-miterlimit:10;" d="M -0.00071875 -0.0002125 C -4.789781 -7.863494 -13.219469 -11.46115 -18.836656 -8.043181 C -24.449938 -4.625213 -25.121813 4.519319 -20.336656 12.3826 C -15.547594 20.245881 -7.114 23.843537 -1.500719 20.425569 C 4.116469 17.0076 4.788344 7.863069 -0.00071875 -0.0002125 Z M -0.00071875 -0.0002125 " transform="matrix(1,0,0,-1,249.0515,170.3826)"/>
</g>
<path style=" stroke:none;fill-rule:nonzero;fill:rgb(13.729858%,12.159729%,12.548828%);fill-opacity:1;" d="M 257.394531 214.027344 C 251.601562 217.777344 244.738281 217.460938 242.058594 213.324219 C 239.378906 209.1875 241.90625 202.796875 247.695312 199.046875 C 253.488281 195.296875 260.355469 195.609375 263.035156 199.746094 C 265.710938 203.882812 263.1875 210.277344 257.394531 214.027344 "/>
<g clip-path="url(#clip6)" clip-rule="nonzero">
<path style="fill:none;stroke-width:12.316;stroke-linecap:butt;stroke-linejoin:miter;stroke:rgb(13.729858%,12.159729%,12.548828%);stroke-opacity:1;stroke-miterlimit:10;" d="M -0.00086875 -0.00004375 C -5.793837 -3.750044 -12.657119 -3.433638 -15.336806 0.703081 C -18.016494 4.8398 -15.48915 11.230425 -9.700087 14.980425 C -3.907119 18.730425 2.960069 18.417925 5.639756 14.281206 C 8.315538 10.144487 5.7921 3.749956 -0.00086875 -0.00004375 Z M -0.00086875 -0.00004375 " transform="matrix(1,0,0,-1,257.3954,214.0273)"/>
</g>
<path style=" stroke:none;fill-rule:nonzero;fill:rgb(13.729858%,12.159729%,12.548828%);fill-opacity:1;" d="M 162.933594 160.785156 C 163.058594 167.683594 159.167969 173.351562 154.242188 173.441406 C 149.3125 173.53125 145.214844 168.015625 145.089844 161.117188 C 144.960938 154.21875 148.851562 148.550781 153.777344 148.457031 C 158.707031 148.367188 162.804688 153.886719 162.933594 160.785156 "/>
<g clip-path="url(#clip7)" clip-rule="nonzero">
<path style="fill:none;stroke-width:12.316;stroke-linecap:butt;stroke-linejoin:miter;stroke:rgb(13.729858%,12.159729%,12.548828%);stroke-opacity:1;stroke-miterlimit:10;" d="M 0.00159375 -0.00035625 C 0.126594 -6.898794 -3.764031 -12.566763 -8.689813 -12.656606 C -13.6195 -12.74645 -17.717156 -7.230825 -17.842156 -0.332388 C -17.971063 6.56605 -14.080438 12.234019 -9.154656 12.327769 C -4.224969 12.417612 -0.127313 6.898081 0.00159375 -0.00035625 Z M 0.00159375 -0.00035625 " transform="matrix(1,0,0,-1,162.932,160.7848)"/>
</g>
</g>
</svg>
