<svg version="1.1" id="Layer_1" xmlns="http://www.w3.org/2000/svg" xmlns:xlink="http://www.w3.org/1999/xlink" x="0px" y="0px"
	 width="100%" viewBox="0 0 1128 959" enable-background="new 0 0 1128 959" xml:space="preserve">
<path fill="#FFFFFF00" opacity="1.000000" stroke="none" 
	d="
M1129.000000,342.000000 
	C1129.000000,546.808899 1128.989380,751.117737 1129.085083,955.426575 
	C1129.086792,959.039062 1128.491699,960.105408 1124.574463,960.104187 
	C751.619080,959.992371 378.663727,959.990906 5.708412,960.115662 
	C1.567065,960.117004 0.893695,959.177551 0.895126,955.209473 
	C1.009231,638.747437 1.008669,322.285278 0.899770,5.823187 
	C0.898428,1.923248 1.464683,0.878775 5.675752,0.880235 
	C378.464417,1.009513 751.253174,1.009813 1124.041870,0.880126 
	C1128.383057,0.878615 1129.109741,1.919579 1129.104858,6.040767 
	C1128.973633,117.860397 1129.000000,229.680222 1129.000000,342.000000 
z"/>
<path fill="#221F20" opacity="1.000000" stroke="none" 
	d="
M1120.724365,546.745728 
	C1120.932617,547.429443 1120.989746,547.887085 1120.961182,548.682739 
	C1119.177856,556.146118 1116.878540,562.973145 1112.787354,569.200195 
	C1107.049683,577.933533 1099.548340,584.640686 1090.275757,589.192871 
	C1045.870850,610.992371 1001.463867,632.786865 957.115723,654.702087 
	C947.268188,659.568298 937.321716,664.261963 927.493958,669.179504 
	C897.255859,684.310059 866.826172,699.052551 836.503845,714.011108 
	C796.623718,733.684692 756.724304,753.321472 716.804688,772.915222 
	C676.137146,792.876221 635.512756,812.924683 594.847351,832.889099 
	C554.780762,852.559631 514.758240,872.320679 474.662323,891.929321 
	C445.787689,906.050232 417.107025,920.568298 388.079651,934.378113 
	C381.766083,937.381775 375.574921,940.580444 369.869354,944.733887 
	C364.444336,948.683167 358.269531,951.205994 351.321350,952.655640 
	C349.612701,952.933105 348.204712,952.990540 346.381409,952.961792 
	C345.815186,952.774597 345.664307,952.673645 345.275299,952.704651 
	C340.984192,952.886230 336.931213,952.935791 332.416931,952.911377 
	C331.797180,952.749268 331.638733,952.661133 331.254303,952.724304 
	C329.621887,952.933105 328.215424,952.990601 326.394165,952.961853 
	C315.998932,950.365723 306.301178,946.684692 299.302734,939.091675 
	C292.505890,931.717407 284.797638,925.375366 277.909149,918.154724 
	C274.344757,914.418457 270.598724,910.856201 266.973907,907.176697 
	C262.331329,902.464050 262.223358,901.495239 266.797943,897.038513 
	C275.510925,888.549866 283.813354,879.673645 292.028351,870.713928 
	C296.725220,865.591125 299.768036,859.810730 297.833740,852.563599 
	C296.129456,846.178284 290.804321,843.067383 284.398712,844.757812 
	C278.922546,846.203064 274.377930,849.240417 270.831055,853.654175 
	C263.511780,862.762268 254.297272,870.075989 246.902359,879.135498 
	C243.928894,882.778198 242.012451,882.527222 238.412460,879.602417 
	C234.401596,876.343689 230.605438,872.862793 226.949707,869.202576 
	C210.358185,852.591003 192.725311,837.060669 176.181412,820.397583 
	C175.242249,819.451721 174.274445,818.533203 173.364899,817.559143 
	C169.941879,813.893677 169.786972,812.900085 173.540359,809.330200 
	C182.723267,800.596191 190.740646,790.754578 199.840897,781.952393 
	C204.629761,777.320312 206.424698,771.706787 205.731216,765.165161 
	C205.008102,758.344055 199.837814,754.448059 193.113464,755.771301 
	C187.490219,756.877930 182.865799,759.791992 179.275269,764.155029 
	C172.158203,772.803345 163.789993,780.220642 155.956894,788.161011 
	C152.300339,791.867615 150.520950,791.828125 146.749023,787.888123 
	C135.569077,776.209595 123.203804,765.755554 111.987213,754.131104 
	C103.419800,745.252075 93.999168,737.283752 85.322838,728.531982 
	C80.204338,723.369019 80.438354,722.939148 85.068802,717.614929 
	C92.077019,709.556763 99.871010,702.278992 107.166130,694.515869 
	C112.184807,689.175293 115.053123,682.957947 112.555939,675.374268 
	C110.958214,670.522156 108.062172,668.355530 102.914566,668.250488 
	C97.795090,668.145996 93.414062,669.946411 90.032356,673.797058 
	C82.336136,682.560547 73.420242,690.146851 65.934807,699.132935 
	C62.031788,703.818481 60.480927,703.629639 56.208889,699.396912 
	C45.681553,688.966370 34.548077,679.169250 23.997261,668.777527 
	C15.884933,660.787537 10.860213,650.846680 8.373357,639.319031 
	C8.114408,633.979004 8.064491,628.931885 8.088628,623.420166 
	C8.250793,622.797119 8.338905,622.638672 8.275712,622.254272 
	C8.066888,620.295898 8.009370,618.563416 8.038128,616.405151 
	C9.944781,608.498596 12.827599,601.493042 17.164116,595.084656 
	C19.136400,592.170105 21.294930,589.458313 23.806879,586.994324 
	C28.208134,582.677002 32.601006,578.347778 36.887177,573.916992 
	C63.180614,546.736206 90.220688,520.283203 116.467842,493.070587 
	C136.365448,472.441162 157.219009,452.762268 176.798981,431.853455 
	C196.625458,410.681488 217.965088,391.016449 237.773880,369.866058 
	C257.374084,348.938446 278.476105,329.508911 298.053284,308.598114 
	C317.762817,287.545898 338.984344,267.999664 358.673187,246.966614 
	C377.926453,226.398911 398.662048,207.310486 417.894409,186.761703 
	C437.942871,165.340942 459.533203,145.454834 479.572540,124.063896 
	C498.833984,103.503296 519.539612,84.386131 538.781738,63.845329 
	C551.660400,50.097401 565.139648,36.972141 578.317505,23.536900 
	C585.839539,15.867926 594.720520,10.536974 605.699524,8.340436 
	C607.387268,8.066887 608.795166,8.009369 610.618530,8.038128 
	C611.184753,8.225387 611.335632,8.326367 611.724609,8.295338 
	C616.015808,8.113767 620.068848,8.064203 624.583130,8.088661 
	C625.202881,8.250793 625.361328,8.338905 625.745728,8.275711 
	C627.378113,8.066887 628.784485,8.009370 630.605774,8.038129 
	C645.751404,11.434690 656.845581,20.277992 667.212402,30.800850 
	C694.335693,58.332443 722.167480,85.161484 749.783203,112.194992 
	C768.591858,130.607010 787.151367,149.267517 805.880615,167.756714 
	C808.912354,170.749588 811.338806,171.070145 815.052368,169.172989 
	C831.820007,160.606903 848.728271,152.316528 865.544128,143.843491 
	C881.375122,135.866669 897.608337,134.200699 914.349365,140.664581 
	C930.122559,146.754807 940.823242,158.162659 947.961182,173.179764 
	C967.419617,214.117294 988.241272,254.378220 1008.374207,294.980865 
	C1020.070312,318.568665 1032.184937,341.952332 1043.624146,365.663483 
	C1066.722534,413.541168 1091.036865,460.810486 1114.618896,508.445404 
	C1117.295044,513.850952 1119.201660,519.497620 1120.656494,525.682800 
	C1120.933105,527.387268 1120.990601,528.795288 1120.961792,530.618591 
	C1120.774658,531.184753 1120.673584,531.335632 1120.704590,531.724609 
	C1120.886230,536.348206 1120.935913,540.733704 1120.911377,545.581787 
	C1120.749268,546.202820 1120.661133,546.361267 1120.724365,546.745728 
z"/>
<path fill="#00000000" opacity="1.000000" stroke="none" 
	d="
M605.515137,8.066591 
	C605.927856,9.689713 604.808228,9.781683 603.600586,10.073502 
	C593.613220,12.487017 585.428833,17.909775 578.290649,25.173429 
	C569.646790,33.969204 560.608215,42.389839 552.198303,51.400143 
	C530.940002,74.176125 508.072845,95.370323 486.708160,118.012810 
	C466.924622,138.979568 445.736420,158.542587 426.083466,179.595291 
	C406.523773,200.548126 385.373138,219.914948 365.834045,240.845703 
	C346.388031,261.676697 325.357391,280.927856 305.936707,301.741241 
	C286.154144,322.942444 264.752136,342.529144 244.980270,363.698883 
	C225.415619,384.646759 204.272461,404.020782 184.729797,424.948303 
	C165.053024,446.019562 143.786850,465.506134 124.125839,486.551361 
	C104.444695,507.618073 83.182533,527.109985 63.548019,548.178528 
	C50.482468,562.198425 36.543217,575.318298 23.356064,589.190613 
	C17.323507,595.536621 13.144076,603.005798 10.626989,611.443237 
	C10.189674,612.909119 10.688085,614.917114 8.486816,615.922913 
	C8.082937,614.149170 8.005199,612.318970 8.005149,610.488770 
	C7.999656,411.567200 8.021192,212.645615 7.875079,13.724155 
	C7.871506,8.861097 9.036263,7.878615 13.784160,7.882003 
	C210.873001,8.022664 407.961975,8.005851 605.515137,8.066591 
z"/>
<path fill="#00000000" opacity="1.000000" stroke="none" 
	d="
M351.484863,952.933472 
	C351.110748,951.987671 351.419464,951.298767 352.414917,951.086731 
	C360.369476,949.392517 366.985687,945.084656 373.701050,940.727051 
	C383.766113,934.195740 394.790466,929.334106 405.638336,924.296753 
	C422.855377,916.301758 439.644073,907.470642 456.677795,899.123474 
	C479.542572,887.918823 502.223785,876.327637 525.255554,865.479492 
	C545.438965,855.972961 565.075317,845.374878 585.283142,835.950562 
	C606.106506,826.239380 626.299622,815.259033 647.103943,805.541504 
	C667.318848,796.099365 686.930725,785.450134 707.135864,776.021362 
	C727.353455,766.586609 746.961731,755.926331 767.169739,746.506348 
	C787.392334,737.079529 806.997070,726.416443 827.202637,716.987915 
	C848.023865,707.272217 868.218994,696.296204 889.025574,686.583496 
	C909.393616,677.075562 929.149231,666.342224 949.506348,656.843994 
	C970.176941,647.199646 990.225952,636.304260 1010.880005,626.657532 
	C1030.793335,617.356934 1050.170532,606.992798 1070.009399,597.563660 
	C1078.565918,593.496826 1087.400391,589.961365 1095.353760,584.770874 
	C1107.975220,576.533936 1116.231934,565.160583 1119.165894,550.177551 
	C1119.243164,549.783264 1119.805908,549.484009 1120.508911,549.080566 
	C1120.917114,550.517639 1120.994751,552.014587 1120.994873,553.511597 
	C1121.000366,684.958374 1120.982178,816.405151 1121.086548,947.851868 
	C1121.089600,951.747437 1120.554199,953.117432 1116.139404,953.115112 
	C861.409302,952.983093 606.679138,952.994202 351.484863,952.933472 
z"/>
<path fill="#00000000" opacity="1.000000" stroke="none" 
	d="
M1120.933350,525.515137 
	C1119.692139,525.904541 1119.240479,525.240540 1118.980591,524.097168 
	C1117.309570,516.747559 1114.063721,510.028503 1110.705811,503.330750 
	C1089.966797,461.963989 1068.969360,420.722504 1048.670288,379.140442 
	C1017.493958,315.276672 985.141174,252.002441 953.710449,188.268188 
	C950.113403,180.974197 946.799377,173.562302 942.820190,166.439133 
	C931.798767,146.709473 906.692932,134.524429 884.596863,138.760071 
	C878.119202,140.001801 872.102417,142.091995 866.318176,144.923508 
	C848.677612,153.558975 831.094727,162.317276 813.621887,171.285873 
	C810.457825,172.909943 808.793640,172.388870 806.422302,170.029526 
	C771.244019,135.028763 736.172363,99.916069 700.606201,65.312164 
	C686.173767,51.270226 671.987427,36.977272 657.427612,23.073635 
	C650.764526,16.710823 642.623718,12.464830 633.630432,10.084568 
	C632.692261,9.836271 631.582214,10.035000 631.075562,8.484281 
	C632.850708,8.082936 634.680725,8.005220 636.510803,8.005157 
	C796.102173,7.999585 955.693542,8.026633 1115.284790,7.873739 
	C1120.163330,7.869065 1121.121216,9.061035 1121.117188,13.792365 
	C1120.974487,184.211792 1120.994141,354.631348 1120.933350,525.515137 
z"/>
<path fill="#00000000" opacity="1.000000" stroke="none" 
	d="
M8.087971,639.487549 
	C9.717090,639.117371 9.738848,640.270081 10.087502,641.440796 
	C13.503017,652.910583 19.001814,662.910522 28.280899,671.006226 
	C38.543705,679.960205 48.077415,689.760193 57.757008,699.364807 
	C60.137188,701.726501 61.807911,702.378479 64.067184,699.463257 
	C71.624008,689.712402 81.451111,682.077637 89.255226,672.548096 
	C92.753044,668.277039 101.444710,665.717102 106.600983,667.347351 
	C113.333900,669.476074 116.659851,678.235962 113.612488,686.532837 
	C112.360481,689.941650 110.584793,693.102417 107.835777,695.745972 
	C99.564941,703.699402 91.572975,711.931030 83.918091,720.491699 
	C82.253677,722.353088 81.871033,723.525330 83.833992,725.386414 
	C98.428612,739.223450 112.998314,753.087585 127.476395,767.046387 
	C134.432159,773.752563 141.258499,780.599182 147.965424,787.553955 
	C150.459366,790.140015 152.286728,790.536560 154.882874,787.693665 
	C162.506073,779.345886 171.273697,772.108154 178.376251,763.227234 
	C182.333893,758.278564 187.753159,755.326294 194.001999,754.173157 
	C203.220749,752.471985 210.223190,763.361816 206.488647,773.786316 
	C205.381790,776.876038 203.777573,779.770630 201.344238,782.237976 
	C192.003006,791.710022 182.876404,801.393616 173.542068,810.872681 
	C171.672989,812.770630 171.199158,813.876709 173.379684,815.969055 
	C193.660553,835.429443 213.828262,855.007751 234.061157,874.518311 
	C235.483765,875.890015 237.422852,876.778137 238.670242,878.268921 
	C241.352402,881.474487 243.688385,881.566406 246.274979,878.244812 
	C252.739151,869.943481 261.093628,863.394836 267.824554,855.399597 
	C272.132446,850.282593 276.622467,845.972229 283.004486,843.878113 
	C291.080261,841.228333 297.022980,844.626343 299.150543,852.881226 
	C300.964752,859.920288 298.226532,865.717163 293.780334,870.576904 
	C285.027863,880.143738 275.948181,889.419678 266.779358,898.591553 
	C264.202667,901.169128 263.812531,902.701843 266.696320,905.306274 
	C274.714020,912.547119 281.512115,921.081360 290.168335,927.659302 
	C295.087097,931.397156 297.882965,937.082642 302.990021,940.802917 
	C309.423065,945.489075 316.242249,948.957458 323.870544,950.964539 
	C324.691315,951.180542 325.507599,951.240906 325.924377,952.515747 
	C324.316345,952.917053 322.653320,952.994690 320.990326,952.994751 
	C218.400925,953.000549 115.811462,952.965759 13.222276,953.115784 
	C8.776609,953.122314 7.889298,952.016846 7.895114,947.717041 
	C8.033879,845.127869 8.007746,742.538391 8.087971,639.487549 
z"/>
<path fill="#00000000" opacity="1.000000" stroke="none" 
	d="
M1120.927612,546.737366 
	C1120.760620,546.721130 1120.645752,546.470581 1120.684082,546.132202 
	C1120.837402,546.044434 1120.979614,546.502991 1120.927612,546.737366 
z"/>
<path fill="#00000000" opacity="1.000000" stroke="none" 
	d="
M8.072461,622.262695 
	C8.239408,622.278809 8.354418,622.529358 8.316053,622.867676 
	C8.162681,622.955566 8.020522,622.497009 8.072461,622.262695 
z"/>
<path fill="#00000000" opacity="1.000000" stroke="none" 
	d="
M1120.907959,531.733154 
	C1120.681274,531.799438 1120.509277,531.647461 1120.383301,531.463989 
	C1120.355347,531.423279 1120.489746,531.271179 1120.712524,531.102173 
	C1120.875610,531.033936 1120.979370,531.503540 1120.907959,531.733154 
z"/>
<path fill="#00000000" opacity="1.000000" stroke="none" 
	d="
M625.737305,8.072466 
	C625.721191,8.239417 625.470642,8.354426 625.132324,8.316057 
	C625.044434,8.162681 625.502991,8.020522 625.737305,8.072466 
z"/>
<path fill="#00000000" opacity="1.000000" stroke="none" 
	d="
M611.733154,8.092051 
	C611.698669,8.259061 611.434509,8.354785 611.102112,8.287457 
	C611.033875,8.124406 611.503540,8.020763 611.733154,8.092051 
z"/>
<path fill="#00000000" opacity="1.000000" stroke="none" 
	d="
M331.262695,952.927612 
	C331.278870,952.760620 331.529419,952.645630 331.867798,952.683960 
	C331.955627,952.837341 331.497040,952.979553 331.262695,952.927612 
z"/>
<path fill="#00000000" opacity="1.000000" stroke="none" 
	d="
M345.266785,952.907959 
	C345.301300,952.740906 345.565460,952.645142 345.897827,952.712524 
	C345.966034,952.875610 345.496429,952.979309 345.266785,952.907959 
z"/>
<path fill="#00000000" opacity="1.000000" stroke="none" 
	d="
M274.223663,799.011292 
	C262.320068,802.279053 251.521500,806.829102 242.996124,815.544006 
	C240.730240,817.860229 239.597565,815.979126 238.139252,814.658447 
	C236.478226,813.153992 235.703110,812.005066 237.617020,809.768005 
	C248.201813,797.396484 253.348831,782.733459 252.848251,766.677490 
	C252.022141,740.181458 237.681671,717.543152 209.894363,710.633789 
	C191.085007,705.956726 173.365631,709.936035 157.408127,721.123779 
	C156.052811,722.074036 154.578049,722.940491 153.467484,724.133362 
	C151.702774,726.028870 150.387589,726.004517 148.538605,724.142578 
	C146.760651,722.352234 146.088379,721.003723 147.780914,718.668274 
	C152.899216,711.605469 156.507919,703.819519 158.408600,695.250977 
	C163.678314,671.494690 156.641663,645.674500 135.195236,630.929077 
	C127.067680,625.341064 117.810295,622.431824 107.660004,621.861633 
	C93.299385,621.054810 80.068710,623.794678 67.931519,631.548706 
	C66.121132,632.705261 64.245560,633.817078 62.637894,635.221802 
	C59.336430,638.106445 57.450428,636.689453 55.716450,633.442871 
	C52.754189,627.896423 53.266609,624.513184 57.420940,620.034973 
	C79.060860,596.707886 102.452225,575.094727 124.287727,551.983765 
	C143.739792,531.395447 164.543930,512.159729 183.854919,491.474548 
	C203.754395,470.159058 225.261978,450.444855 245.153351,429.162537 
	C264.610016,408.345245 285.628296,389.085358 305.048157,368.274445 
	C324.829834,347.075775 346.226593,327.487396 365.999542,306.321960 
	C385.565155,285.378510 406.701813,266.001282 426.244507,245.077103 
	C445.921356,224.009308 467.182709,204.521408 486.843750,183.479477 
	C506.524811,162.416138 527.856262,142.989471 547.422119,121.863289 
	C568.137512,99.495842 590.750000,79.025993 611.386841,56.603733 
	C615.395020,52.248730 621.964050,52.807983 626.894104,57.363735 
	C648.182129,77.035454 667.897888,98.315094 688.926758,118.230736 
	C710.094177,138.277573 729.976685,159.617249 751.238037,179.528717 
	C770.332764,197.411240 788.050049,216.667358 807.148743,234.504669 
	C828.336304,254.292755 848.054016,275.558044 869.149963,295.404663 
	C878.973389,304.646362 888.434570,314.229095 898.082153,323.632996 
	C904.830994,330.211487 904.586182,335.629425 898.133118,342.415680 
	C874.031311,367.762054 848.696106,391.901703 824.563171,417.196869 
	C804.899048,437.808044 784.057190,457.241821 764.626831,478.043610 
	C744.835632,499.231720 723.458557,518.840820 703.682251,540.002319 
	C683.998840,561.064331 662.732056,580.546814 643.080750,601.597839 
	C623.522705,622.548889 602.376282,641.916260 582.835327,662.842224 
	C563.160339,683.911743 541.894653,703.395691 522.236633,724.440369 
	C502.217072,745.872192 480.581543,765.694275 460.599213,787.119080 
	C446.278870,802.473267 431.061676,816.903137 416.494537,831.989929 
	C415.829651,832.678650 415.051636,833.258057 413.353333,834.733948 
	C414.919373,829.419495 416.890778,825.514160 417.066498,821.074707 
	C417.343475,814.074158 414.625977,808.250488 409.948700,803.575256 
	C394.174652,787.808105 378.303925,772.128357 362.115997,756.788940 
	C355.538727,750.556396 347.058197,749.966980 338.919617,753.180603 
	C330.215210,756.617676 325.233734,763.250183 324.941071,773.081116 
	C324.728699,780.212891 327.150482,785.855591 332.253723,790.856201 
	C346.774078,805.084412 361.119934,819.492798 375.408234,833.955017 
	C384.159332,842.812622 393.943542,845.827087 405.626678,840.262390 
	C406.016846,840.076599 406.572723,840.238770 407.998413,840.238770 
	C403.618256,845.228577 399.488586,849.661926 395.359436,853.923218 
	C378.894836,870.915222 362.011383,887.501587 345.266907,904.222046 
	C341.758331,907.725647 337.364288,908.336792 333.074036,906.023621 
	C328.328766,903.465088 327.896729,901.432983 331.204376,897.229858 
	C350.115692,873.197815 349.834229,838.569885 329.766541,815.512817 
	C320.157257,804.471985 307.320923,798.609192 292.506744,798.075989 
	C286.565277,797.862122 280.525940,797.282227 274.223663,799.011292 
z"/>
<path fill="#00000000" opacity="1.000000" stroke="none" 
	d="
M475.356171,838.959106 
	C474.927155,837.035400 476.449768,836.079956 477.592865,834.923645 
	C508.033081,804.129456 538.699768,773.555481 568.869385,742.498596 
	C593.470093,717.174255 618.816040,692.580750 643.187805,667.053223 
	C662.858643,646.449646 683.703308,627.017761 703.118347,606.203003 
	C722.895386,585.000000 744.299561,565.419800 764.069946,544.252502 
	C783.633118,523.307251 804.774963,503.935394 824.312378,483.007080 
	C843.984375,461.934631 865.264221,442.464661 884.898438,421.398956 
	C900.690552,404.455444 917.700500,388.740143 933.501770,371.843201 
	C942.699341,362.007874 947.714966,350.323151 948.178467,336.375977 
	C948.796753,317.769714 942.121033,302.954865 928.874817,290.223145 
	C912.538574,274.521545 896.810547,258.188934 880.703735,242.246155 
	C869.826355,231.479553 858.828918,220.830551 847.708862,210.315414 
	C844.621582,207.396057 845.174194,206.273941 848.743469,204.549973 
	C861.634521,198.323532 874.369751,191.775406 887.194641,185.410843 
	C894.677185,181.697525 898.985291,182.821045 903.542297,190.006424 
	C908.898987,198.452667 912.896118,207.639297 917.241089,216.616028 
	C947.627930,279.396027 979.792419,341.292969 1010.366455,403.975281 
	C1031.017334,446.313293 1052.461426,488.250610 1073.235962,530.523254 
	C1077.255005,538.701172 1075.516113,544.245911 1067.553101,548.188904 
	C1041.604858,561.037292 1015.783203,574.153992 989.629089,586.569885 
	C970.531677,595.635803 951.897522,605.625122 932.749695,614.555786 
	C911.476990,624.477417 890.839539,635.679321 869.587708,645.609436 
	C850.583313,654.489380 832.126709,664.456848 813.149536,673.362488 
	C791.149536,683.686646 769.724365,695.174805 747.748779,705.521790 
	C727.717529,714.953308 708.232422,725.476440 688.182800,734.835327 
	C667.817932,744.341309 648.056396,755.058228 627.706421,764.560181 
	C607.643921,773.927734 588.183228,784.500793 568.132812,793.858032 
	C547.163696,803.644104 526.707825,814.444885 505.898956,824.539734 
	C495.874115,829.403015 485.788940,834.142090 475.356171,838.959106 
z"/>
<path fill="#00000000" opacity="1.000000" stroke="none" 
	d="
M475.003967,839.006042 
	C474.646545,839.472900 474.380310,840.299072 473.650391,839.374878 
	C473.929810,839.243591 474.209198,839.112305 474.734924,838.980957 
	C474.981232,838.980896 474.997650,838.997437 475.003967,839.006042 
z"/>
<path fill="#221F20" opacity="1.000000" stroke="none" 
	d="
M229.929718,666.168945 
	C240.887955,650.685791 257.748627,652.657288 268.478455,663.847839 
	C281.372131,677.295166 294.780579,690.248352 307.935028,703.446533 
	C317.528351,713.071655 317.298431,726.298645 307.427612,736.072449 
	C298.823425,744.592041 284.786438,744.158875 275.713623,735.240112 
	C262.087402,721.845276 248.309265,708.604553 234.720016,695.172546 
	C226.352310,686.901672 224.759735,676.902954 229.929718,666.168945 
z"/>
<path fill="#221F20" opacity="1.000000" stroke="none" 
	d="
M194.750000,591.250000 
	C199.922440,596.892029 205.904388,601.297485 209.972778,607.481812 
	C215.641800,616.099243 213.945038,629.070251 206.250214,636.245728 
	C198.646851,643.335938 185.222641,644.307556 177.361343,637.739685 
	C161.507278,624.494141 147.661743,609.137207 133.207245,594.447998 
	C126.029823,587.153992 127.595886,571.692993 135.148117,564.352478 
	C143.605621,556.132080 156.841904,555.690674 165.492203,562.910522 
	C175.865540,571.568420 184.748398,581.724182 194.750000,591.250000 
z"/>
</svg>