<svg version="1.1" id="Layer_1" xmlns="http://www.w3.org/2000/svg" xmlns:xlink="http://www.w3.org/1999/xlink" x="0px" y="0px"
	 width="100%" viewBox="0 0 1056 1056" enable-background="new 0 0 1056 1056" xml:space="preserve">
<path fill="none" opacity="1.000000" stroke="none" 
	d="
M569.000000,1057.000000 
	C379.355652,1057.000000 190.211319,1057.000000 1.033487,1057.000000 
	C1.033487,705.063843 1.033487,353.127747 1.033487,1.095801 
	C352.894562,1.095801 704.789124,1.095801 1056.841797,1.095801 
	C1056.841797,352.999939 1056.841797,704.999939 1056.841797,1057.000000 
	C894.460632,1057.000000 731.980286,1057.000000 569.000000,1057.000000 
M62.024982,724.516296 
	C67.627335,718.589600 73.142769,712.577087 78.871712,706.775391 
	C81.424889,704.189697 84.118004,701.487915 87.263664,699.801270 
	C91.980652,697.272278 97.433899,696.566895 101.957016,699.993896 
	C106.481758,703.421936 107.445251,708.756775 105.835922,714.006409 
	C104.797333,717.394348 103.061821,720.866455 100.735901,723.505188 
	C94.135834,730.992981 87.092583,738.091675 80.183777,745.305298 
	C75.281303,750.424072 75.290672,751.022034 80.594246,755.395264 
	C81.877083,756.453003 83.079132,757.614258 84.268791,758.778564 
	C101.529518,775.671692 118.780151,792.575073 136.040436,809.468628 
	C136.991241,810.399109 137.916977,811.866211 139.009171,812.026123 
	C140.819336,812.291138 143.446838,812.404907 144.528961,811.350159 
	C152.993225,803.099854 160.983627,794.358521 169.545471,786.215820 
	C172.304459,783.591980 176.137802,781.619751 179.827438,780.557739 
	C186.340469,778.682922 191.364594,781.916443 193.167648,788.432373 
	C195.214462,795.829041 192.211685,801.848633 187.338867,807.062683 
	C179.495941,815.454895 171.592102,823.797729 163.471039,831.918518 
	C160.374985,835.014526 160.385483,837.190918 163.559891,840.125793 
	C171.504562,847.471069 179.224319,855.059021 187.076660,862.504944 
	C198.915039,873.730652 210.802948,884.904053 222.636200,896.135132 
	C224.768967,898.159302 226.842697,899.609436 229.444595,896.932373 
	C235.245102,890.964355 240.865112,884.808594 246.875351,879.060486 
	C251.992767,874.166260 257.151611,869.110535 263.056244,865.315063 
	C267.100281,862.715637 272.577240,862.814758 276.630188,866.456848 
	C280.527435,869.958801 281.629303,874.753357 280.143890,879.723633 
	C279.211761,882.842346 278.001740,886.247437 275.876892,888.575073 
	C267.574463,897.669983 258.918060,906.446411 250.258881,915.208374 
	C247.611023,917.887634 247.346268,919.977783 250.164902,922.734802 
	C260.631012,932.971985 270.737091,943.585815 281.389069,953.622375 
	C298.681610,969.915833 328.973297,971.331970 348.045441,957.153870 
	C349.640350,955.968201 351.261230,954.751831 353.032166,953.878540 
	C374.397064,943.344238 395.799957,932.886841 417.178467,922.380066 
	C458.888580,901.881042 500.592010,881.368530 542.293579,860.852112 
	C583.546753,840.556213 624.789795,820.239807 666.045349,799.948792 
	C707.451721,779.583862 748.870178,759.243286 790.279602,738.884521 
	C830.791687,718.966980 871.323730,699.089966 911.801331,679.102539 
	C949.743042,660.367493 987.636047,641.533630 1025.529175,622.700256 
	C1049.617310,610.728088 1060.798462,579.980164 1049.960938,555.190918 
	C1046.159668,546.496155 1041.962402,537.967468 1037.740723,529.464844 
	C1009.884766,473.361176 982.003479,417.270050 954.069519,361.205200 
	C932.075317,317.061584 910.154907,272.879974 887.891052,228.872452 
	C874.352051,202.110840 842.422485,191.876068 815.677124,205.201630 
	C799.422363,213.300385 783.194275,221.452530 766.941223,229.554535 
	C764.418701,230.811996 761.935974,232.342590 759.196777,229.685471 
	C756.333008,226.907455 753.109680,224.497757 750.271301,221.696274 
	C718.850708,190.683716 687.505920,159.594269 656.070923,128.596313 
	C643.145569,115.850670 630.156250,103.166039 617.009949,90.649132 
	C597.190125,71.778229 563.772278,72.454460 544.546631,91.971382 
	C524.909058,111.906448 505.304962,131.874451 485.685577,151.827454 
	C465.714905,172.137680 445.741669,192.445419 425.772858,212.757492 
	C406.387329,232.476257 387.014404,252.207413 367.620575,271.918030 
	C347.409546,292.459229 327.171387,312.973755 306.961395,333.515961 
	C287.687927,353.106232 268.462677,372.743958 249.167282,392.312561 
	C222.032303,419.831726 194.823730,447.278320 167.703995,474.812500 
	C155.082428,487.626953 142.635788,500.613556 130.038849,513.452454 
	C109.391151,534.496948 88.725777,555.524353 67.990913,576.482849 
	C52.873211,591.763611 37.555096,606.846313 22.463745,622.152771 
	C1.056915,643.864685 1.261901,677.934265 22.904751,699.346619 
	C31.662861,708.011475 40.670376,716.423828 49.524437,724.992371 
	C55.328117,730.608887 55.785152,730.643188 62.024982,724.516296 
z"/>
<path fill="#231F20" opacity="1.000000" stroke="none" 
	d="
M61.776543,724.764771 
	C55.785152,730.643188 55.328117,730.608887 49.524437,724.992371 
	C40.670376,716.423828 31.662861,708.011475 22.904751,699.346619 
	C1.261901,677.934265 1.056915,643.864685 22.463745,622.152771 
	C37.555096,606.846313 52.873211,591.763611 67.990913,576.482849 
	C88.725777,555.524353 109.391151,534.496948 130.038849,513.452454 
	C142.635788,500.613556 155.082428,487.626953 167.703995,474.812500 
	C194.823730,447.278320 222.032303,419.831726 249.167282,392.312561 
	C268.462677,372.743958 287.687927,353.106232 306.961395,333.515961 
	C327.171387,312.973755 347.409546,292.459229 367.620575,271.918030 
	C387.014404,252.207413 406.387329,232.476257 425.772858,212.757492 
	C445.741669,192.445419 465.714905,172.137680 485.685577,151.827454 
	C505.304962,131.874451 524.909058,111.906448 544.546631,91.971382 
	C563.772278,72.454460 597.190125,71.778229 617.009949,90.649132 
	C630.156250,103.166039 643.145569,115.850670 656.070923,128.596313 
	C687.505920,159.594269 718.850708,190.683716 750.271301,221.696274 
	C753.109680,224.497757 756.333008,226.907455 759.196777,229.685471 
	C761.935974,232.342590 764.418701,230.811996 766.941223,229.554535 
	C783.194275,221.452530 799.422363,213.300385 815.677124,205.201630 
	C842.422485,191.876068 874.352051,202.110840 887.891052,228.872452 
	C910.154907,272.879974 932.075317,317.061584 954.069519,361.205200 
	C982.003479,417.270050 1009.884766,473.361176 1037.740723,529.464844 
	C1041.962402,537.967468 1046.159668,546.496155 1049.960938,555.190918 
	C1060.798462,579.980164 1049.617310,610.728088 1025.529175,622.700256 
	C987.636047,641.533630 949.743042,660.367493 911.801331,679.102539 
	C871.323730,699.089966 830.791687,718.966980 790.279602,738.884521 
	C748.870178,759.243286 707.451721,779.583862 666.045349,799.948792 
	C624.789795,820.239807 583.546753,840.556213 542.293579,860.852112 
	C500.592010,881.368530 458.888580,901.881042 417.178467,922.380066 
	C395.799957,932.886841 374.397064,943.344238 353.032166,953.878540 
	C351.261230,954.751831 349.640350,955.968201 348.045441,957.153870 
	C328.973297,971.331970 298.681610,969.915833 281.389069,953.622375 
	C270.737091,943.585815 260.631012,932.971985 250.164902,922.734802 
	C247.346268,919.977783 247.611023,917.887634 250.258881,915.208374 
	C258.918060,906.446411 267.574463,897.669983 275.876892,888.575073 
	C278.001740,886.247437 279.211761,882.842346 280.143890,879.723633 
	C281.629303,874.753357 280.527435,869.958801 276.630188,866.456848 
	C272.577240,862.814758 267.100281,862.715637 263.056244,865.315063 
	C257.151611,869.110535 251.992767,874.166260 246.875351,879.060486 
	C240.865112,884.808594 235.245102,890.964355 229.444595,896.932373 
	C226.842697,899.609436 224.768967,898.159302 222.636200,896.135132 
	C210.802948,884.904053 198.915039,873.730652 187.076660,862.504944 
	C179.224319,855.059021 171.504562,847.471069 163.559891,840.125793 
	C160.385483,837.190918 160.374985,835.014526 163.471039,831.918518 
	C171.592102,823.797729 179.495941,815.454895 187.338867,807.062683 
	C192.211685,801.848633 195.214462,795.829041 193.167648,788.432373 
	C191.364594,781.916443 186.340469,778.682922 179.827438,780.557739 
	C176.137802,781.619751 172.304459,783.591980 169.545471,786.215820 
	C160.983627,794.358521 152.993225,803.099854 144.528961,811.350159 
	C143.446838,812.404907 140.819336,812.291138 139.009171,812.026123 
	C137.916977,811.866211 136.991241,810.399109 136.040436,809.468628 
	C118.780151,792.575073 101.529518,775.671692 84.268791,758.778564 
	C83.079132,757.614258 81.877083,756.453003 80.594246,755.395264 
	C75.290672,751.022034 75.281303,750.424072 80.183777,745.305298 
	C87.092583,738.091675 94.135834,730.992981 100.735901,723.505188 
	C103.061821,720.866455 104.797333,717.394348 105.835922,714.006409 
	C107.445251,708.756775 106.481758,703.421936 101.957016,699.993896 
	C97.433899,696.566895 91.980652,697.272278 87.263664,699.801270 
	C84.118004,701.487915 81.424889,704.189697 78.871712,706.775391 
	C73.142769,712.577087 67.627335,718.589600 61.776543,724.764771 
M447.742188,858.874695 
	C477.112946,844.619446 506.522400,830.443359 535.845032,816.089783 
	C575.793945,796.534546 615.677063,776.844971 655.587524,757.211121 
	C697.739136,736.474792 739.889648,715.736267 782.040710,694.998840 
	C822.547668,675.070251 863.067810,655.168579 903.557373,635.204834 
	C936.430237,618.996582 969.273315,602.727722 1002.114746,586.455872 
	C1011.529541,581.791321 1012.997986,577.174622 1008.302124,567.544495 
	C1002.315796,555.268066 996.414307,542.949524 990.333313,530.720154 
	C955.099792,459.861786 919.837036,389.017883 884.555420,318.183441 
	C873.338318,295.663116 862.094849,273.155487 850.736511,250.706238 
	C846.462646,242.259064 841.075195,240.566650 832.752686,244.677994 
	C822.296143,249.843506 811.841980,255.015564 801.444702,260.298676 
	C793.946350,264.108734 793.890686,264.444611 799.754700,270.181030 
	C808.087036,278.331848 816.615112,286.283630 824.904480,294.477325 
	C841.140015,310.525330 856.749634,327.248108 873.569519,342.653168 
	C895.750671,362.968567 898.035645,398.578949 877.270203,420.158142 
	C860.756226,437.319336 843.973999,454.222687 827.290039,471.220032 
	C808.505066,490.357910 789.702026,509.478027 770.897339,528.596558 
	C750.457092,549.377930 730.006042,570.148682 709.559509,590.923828 
	C690.280212,610.512939 670.996399,630.097595 651.722290,649.691833 
	C631.279785,670.473755 610.849182,691.267273 590.408203,712.050598 
	C571.134033,731.647583 551.858582,751.243408 532.573730,770.829895 
	C510.251221,793.501526 487.887115,816.132385 465.608521,838.847168 
	C459.212067,845.368774 453.048859,852.119202 446.645294,858.870605 
	C446.645294,858.870605 446.615295,859.271729 446.615295,859.271729 
	C446.615295,859.271729 447.052734,859.074463 447.742188,858.874695 
M386.648163,856.801880 
	C389.469421,854.019104 392.326691,851.271790 395.106232,848.447876 
	C416.021149,827.199341 436.924286,805.939148 457.824036,784.675659 
	C476.273438,765.905151 494.706482,747.118530 513.159790,728.351929 
	C534.532654,706.616272 555.920654,684.895447 577.300598,663.166748 
	C595.758545,644.407715 614.214905,625.647095 632.671021,606.886292 
	C652.530029,586.699402 672.390930,566.514343 692.245605,546.323181 
	C711.867188,526.369019 731.446045,506.372650 751.108032,486.458313 
	C782.009033,455.160858 812.954590,423.907318 843.904480,392.658112 
	C850.080200,386.422699 850.470703,380.875824 844.602234,374.297150 
	C842.071960,371.460754 838.841614,369.262665 836.115356,366.585175 
	C815.555847,346.392731 795.053101,326.142517 774.512024,305.931244 
	C754.801147,286.536896 735.044800,267.188751 715.346008,247.782135 
	C690.067932,222.878906 664.850708,197.913910 639.562378,173.021088 
	C622.942627,156.661224 606.269470,140.355209 589.565430,124.081390 
	C584.022888,118.681602 578.685364,118.538773 573.852295,123.461037 
	C552.961121,144.737473 532.093323,166.036880 511.197235,187.308502 
	C491.469849,207.390381 471.718231,227.448471 451.976349,247.516068 
	C432.118195,267.701843 412.260132,287.887695 392.399780,308.071320 
	C372.773071,328.017609 353.137634,347.955353 333.516998,367.907593 
	C313.778168,387.980072 294.054321,408.067261 274.321075,428.145264 
	C254.704636,448.104431 235.088623,468.064026 215.465210,488.016357 
	C195.608719,508.205658 175.763641,528.406250 155.877060,548.565857 
	C127.448540,577.384644 98.991592,606.175476 70.534966,634.966553 
	C65.146309,640.418579 59.631603,645.748169 54.325741,651.278748 
	C52.629246,653.047119 51.083786,655.126465 50.058987,657.336975 
	C48.196903,661.353455 49.916241,664.976196 52.675430,667.798340 
	C55.666180,670.857300 57.691589,667.234253 59.955704,666.017334 
	C62.152176,664.836853 64.122444,663.220947 66.350769,662.116516 
	C87.044182,651.860962 107.630272,651.611450 127.041565,664.716614 
	C148.483917,679.193115 154.075562,708.289978 145.308151,731.985413 
	C143.423660,737.078613 140.093628,741.621765 137.863861,746.612366 
	C137.251083,747.983826 137.731094,750.404358 138.644836,751.666321 
	C139.119308,752.321594 141.889038,751.965454 143.185959,751.262268 
	C148.869156,748.180664 154.065918,743.935669 160.032913,741.691284 
	C182.448044,733.259949 203.747421,735.297180 221.034668,752.888672 
	C236.378403,768.502380 239.954254,788.200012 234.177032,808.967346 
	C231.962143,816.929199 226.689316,824.020142 223.053452,831.624268 
	C222.347031,833.101807 222.768799,835.118835 222.670166,836.886963 
	C224.420486,836.834595 226.189682,836.914246 227.912262,836.667908 
	C228.648758,836.562622 229.322876,835.820496 229.966354,835.295471 
	C242.352310,825.189819 256.435211,820.478516 272.503754,820.954285 
	C299.855591,821.764221 322.541656,844.925964 323.110565,872.285645 
	C323.434723,887.873779 320.117676,902.011475 310.401459,914.379883 
	C307.985077,917.455933 308.734283,919.782654 311.685669,921.926819 
	C315.765656,924.890991 320.374542,924.696594 324.773682,920.495117 
	C329.580872,915.903992 333.842896,910.747925 338.527924,906.021851 
	C352.488403,891.939148 366.565521,877.971924 380.522797,863.885925 
	C382.242432,862.150452 383.512054,859.968994 385.374908,857.711731 
	C385.617859,857.502258 385.824005,857.261292 386.648163,856.801880 
z"/>
<path fill="#00000000" opacity="1.000000" stroke="none" 
	d="
M384.990173,857.994202 
	C383.512054,859.968994 382.242432,862.150452 380.522797,863.885925 
	C366.565521,877.971924 352.488403,891.939148 338.527924,906.021851 
	C333.842896,910.747925 329.580872,915.903992 324.773682,920.495117 
	C320.374542,924.696594 315.765656,924.890991 311.685669,921.926819 
	C308.734283,919.782654 307.985077,917.455933 310.401459,914.379883 
	C320.117676,902.011475 323.434723,887.873779 323.110565,872.285645 
	C322.541656,844.925964 299.855591,821.764221 272.503754,820.954285 
	C256.435211,820.478516 242.352310,825.189819 229.966354,835.295471 
	C229.322876,835.820496 228.648758,836.562622 227.912262,836.667908 
	C226.189682,836.914246 224.420486,836.834595 222.670166,836.886963 
	C222.768799,835.118835 222.347031,833.101807 223.053452,831.624268 
	C226.689316,824.020142 231.962143,816.929199 234.177032,808.967346 
	C239.954254,788.200012 236.378403,768.502380 221.034668,752.888672 
	C203.747421,735.297180 182.448044,733.259949 160.032913,741.691284 
	C154.065918,743.935669 148.869156,748.180664 143.185959,751.262268 
	C141.889038,751.965454 139.119308,752.321594 138.644836,751.666321 
	C137.731094,750.404358 137.251083,747.983826 137.863861,746.612366 
	C140.093628,741.621765 143.423660,737.078613 145.308151,731.985413 
	C154.075562,708.289978 148.483917,679.193115 127.041565,664.716614 
	C107.630272,651.611450 87.044182,651.860962 66.350769,662.116516 
	C64.122444,663.220947 62.152176,664.836853 59.955704,666.017334 
	C57.691589,667.234253 55.666180,670.857300 52.675430,667.798340 
	C49.916241,664.976196 48.196903,661.353455 50.058987,657.336975 
	C51.083786,655.126465 52.629246,653.047119 54.325741,651.278748 
	C59.631603,645.748169 65.146309,640.418579 70.534966,634.966553 
	C98.991592,606.175476 127.448540,577.384644 155.877060,548.565857 
	C175.763641,528.406250 195.608719,508.205658 215.465210,488.016357 
	C235.088623,468.064026 254.704636,448.104431 274.321075,428.145264 
	C294.054321,408.067261 313.778168,387.980072 333.516998,367.907593 
	C353.137634,347.955353 372.773071,328.017609 392.399780,308.071320 
	C412.260132,287.887695 432.118195,267.701843 451.976349,247.516068 
	C471.718231,227.448471 491.469849,207.390381 511.197235,187.308502 
	C532.093323,166.036880 552.961121,144.737473 573.852295,123.461037 
	C578.685364,118.538773 584.022888,118.681602 589.565430,124.081390 
	C606.269470,140.355209 622.942627,156.661224 639.562378,173.021088 
	C664.850708,197.913910 690.067932,222.878906 715.346008,247.782135 
	C735.044800,267.188751 754.801147,286.536896 774.512024,305.931244 
	C795.053101,326.142517 815.555847,346.392731 836.115356,366.585175 
	C838.841614,369.262665 842.071960,371.460754 844.602234,374.297150 
	C850.470703,380.875824 850.080200,386.422699 843.904480,392.658112 
	C812.954590,423.907318 782.009033,455.160858 751.108032,486.458313 
	C731.446045,506.372650 711.867188,526.369019 692.245605,546.323181 
	C672.390930,566.514343 652.530029,586.699402 632.671021,606.886292 
	C614.214905,625.647095 595.758545,644.407715 577.300598,663.166748 
	C555.920654,684.895447 534.532654,706.616272 513.159790,728.351929 
	C494.706482,747.118530 476.273438,765.905151 457.824036,784.675659 
	C436.924286,805.939148 416.021149,827.199341 395.106232,848.447876 
	C392.326691,851.271790 389.469421,854.019104 386.324097,856.900635 
	C386.000000,856.999451 386.006134,857.005188 386.163391,856.693176 
	C393.796844,845.758484 391.299347,832.745605 384.493713,826.080383 
	C369.874268,811.762512 355.352905,797.340454 340.524353,783.241943 
	C333.724091,776.776428 325.431671,775.927246 316.823883,779.370667 
	C308.818420,782.572937 305.252289,788.946838 304.751007,797.301697 
	C304.337402,804.195740 306.657166,810.109802 311.514252,814.894775 
	C326.090302,829.254578 340.586975,843.705383 355.553589,857.649536 
	C358.579407,860.468750 363.391541,861.935303 367.626495,862.759277 
	C373.931793,863.986084 379.730896,861.520325 385.002075,858.002563 
	C384.999634,857.999939 384.990173,857.994202 384.990173,857.994202 
M220.479263,725.004272 
	C233.479233,737.627625 246.373428,750.362427 259.519257,762.831970 
	C267.258301,770.172791 281.731262,769.633667 289.166779,762.148132 
	C296.278351,754.988708 296.789490,740.666016 289.679016,733.366943 
	C276.100494,719.428101 262.463531,705.528687 248.395386,692.089661 
	C237.271561,681.463196 218.138763,686.417603 213.771591,700.769592 
	C211.033875,709.766724 213.088089,717.850708 220.479263,725.004272 
M126.468254,631.998779 
	C138.130203,643.639038 149.718857,655.354065 161.477570,666.895691 
	C170.679214,675.927490 184.904495,676.149658 193.512421,667.948914 
	C199.679810,662.073242 202.070450,645.677795 192.005066,636.343872 
	C179.931046,625.147400 168.701660,613.045898 156.884872,601.564392 
	C148.237762,593.162659 134.157120,592.945801 126.017776,600.678772 
	C118.071716,608.228088 118.051582,622.497864 126.468254,631.998779 
z"/>
<path fill="#00000000" opacity="1.000000" stroke="none" 
	d="
M446.778687,858.764771 
	C453.048859,852.119202 459.212067,845.368774 465.608521,838.847168 
	C487.887115,816.132385 510.251221,793.501526 532.573730,770.829895 
	C551.858582,751.243408 571.134033,731.647583 590.408203,712.050598 
	C610.849182,691.267273 631.279785,670.473755 651.722290,649.691833 
	C670.996399,630.097595 690.280212,610.512939 709.559509,590.923828 
	C730.006042,570.148682 750.457092,549.377930 770.897339,528.596558 
	C789.702026,509.478027 808.505066,490.357910 827.290039,471.220032 
	C843.973999,454.222687 860.756226,437.319336 877.270203,420.158142 
	C898.035645,398.578949 895.750671,362.968567 873.569519,342.653168 
	C856.749634,327.248108 841.140015,310.525330 824.904480,294.477325 
	C816.615112,286.283630 808.087036,278.331848 799.754700,270.181030 
	C793.890686,264.444611 793.946350,264.108734 801.444702,260.298676 
	C811.841980,255.015564 822.296143,249.843506 832.752686,244.677994 
	C841.075195,240.566650 846.462646,242.259064 850.736511,250.706238 
	C862.094849,273.155487 873.338318,295.663116 884.555420,318.183441 
	C919.837036,389.017883 955.099792,459.861786 990.333313,530.720154 
	C996.414307,542.949524 1002.315796,555.268066 1008.302124,567.544495 
	C1012.997986,577.174622 1011.529541,581.791321 1002.114746,586.455872 
	C969.273315,602.727722 936.430237,618.996582 903.557373,635.204834 
	C863.067810,655.168579 822.547668,675.070251 782.040710,694.998840 
	C739.889648,715.736267 697.739136,736.474792 655.587524,757.211121 
	C615.677063,776.844971 575.793945,796.534546 535.845032,816.089783 
	C506.522400,830.443359 477.112946,844.619446 447.329102,858.896973 
	C446.916016,858.919312 446.778717,858.764771 446.778687,858.764771 
z"/>
<path fill="#00000000" opacity="1.000000" stroke="none" 
	d="
M446.984375,858.996887 
	C447.052734,859.074463 446.615295,859.271729 446.615295,859.271729 
	C446.615295,859.271729 446.645294,858.870605 446.712006,858.817688 
	C446.778717,858.764771 446.916016,858.919312 446.984375,858.996887 
z"/>
<path fill="#00000000" opacity="1.000000" stroke="none" 
	d="
M385.996704,856.994141 
	C385.824005,857.261292 385.617859,857.502258 385.182556,857.852966 
	C384.990173,857.994202 384.999634,857.999939 385.149902,857.817505 
	C385.511993,857.398682 385.747314,857.188721 386.006134,857.005188 
	C386.006134,857.005188 386.000000,856.999451 385.996704,856.994141 
z"/>
<path fill="#231F20" opacity="1.000000" stroke="none" 
	d="
M386.163391,856.693176 
	C385.747314,857.188721 385.511993,857.398682 385.152374,857.820068 
	C379.730896,861.520325 373.931793,863.986084 367.626495,862.759277 
	C363.391541,861.935303 358.579407,860.468750 355.553589,857.649536 
	C340.586975,843.705383 326.090302,829.254578 311.514252,814.894775 
	C306.657166,810.109802 304.337402,804.195740 304.751007,797.301697 
	C305.252289,788.946838 308.818420,782.572937 316.823883,779.370667 
	C325.431671,775.927246 333.724091,776.776428 340.524353,783.241943 
	C355.352905,797.340454 369.874268,811.762512 384.493713,826.080383 
	C391.299347,832.745605 393.796844,845.758484 386.163391,856.693176 
z"/>
<path fill="#231F20" opacity="1.000000" stroke="none" 
	d="
M220.228516,724.752319 
	C213.088089,717.850708 211.033875,709.766724 213.771591,700.769592 
	C218.138763,686.417603 237.271561,681.463196 248.395386,692.089661 
	C262.463531,705.528687 276.100494,719.428101 289.679016,733.366943 
	C296.789490,740.666016 296.278351,754.988708 289.166779,762.148132 
	C281.731262,769.633667 267.258301,770.172791 259.519257,762.831970 
	C246.373428,750.362427 233.479233,737.627625 220.228516,724.752319 
z"/>
<path fill="#231F20" opacity="1.000000" stroke="none" 
	d="
M126.221291,631.740601 
	C118.051582,622.497864 118.071716,608.228088 126.017776,600.678772 
	C134.157120,592.945801 148.237762,593.162659 156.884872,601.564392 
	C168.701660,613.045898 179.931046,625.147400 192.005066,636.343872 
	C202.070450,645.677795 199.679810,662.073242 193.512421,667.948914 
	C184.904495,676.149658 170.679214,675.927490 161.477570,666.895691 
	C149.718857,655.354065 138.130203,643.639038 126.221291,631.740601 
z"/>
</svg>