<?xml version="1.0" standalone="no"?>
<!DOCTYPE svg PUBLIC "-//W3C//DTD SVG 20010904//EN"
 "http://www.w3.org/TR/2001/REC-SVG-20010904/DTD/svg10.dtd">
<svg version="1.0" xmlns="http://www.w3.org/2000/svg"
 width="1128.000000pt" height="959.000000pt" viewBox="0 0 1128.000000 959.000000"
 preserveAspectRatio="xMidYMid meet">

<g transform="translate(0.000000,959.000000) scale(0.100000,-0.100000)"
fill="#000000" stroke="none">
<path d="M6032 9494 c-56 -15 -93 -31 -160 -73 -55 -34 -5655 -5725 -5704
-5796 -60 -90 -83 -172 -83 -300 0 -81 5 -125 19 -165 45 -133 83 -181 313
-399 l183 -173 152 158 c188 193 236 220 323 178 59 -28 84 -129 51 -208 -8
-18 -80 -102 -160 -187 -80 -84 -145 -157 -144 -161 2 -4 156 -156 343 -337
l340 -330 164 166 c91 91 180 172 198 179 40 17 110 18 142 1 13 -6 33 -28 43
-47 24 -43 19 -135 -9 -180 -10 -16 -89 -103 -176 -194 l-157 -165 351 -335
352 -336 127 133 c70 72 139 147 155 165 60 72 171 107 233 73 59 -31 80 -135
44 -214 -9 -20 -89 -112 -176 -203 l-160 -166 201 -198 c162 -158 215 -204
271 -233 90 -47 168 -67 265 -67 127 0 215 29 336 109 31 21 1464 730 3186
1576 1722 846 3342 1643 3600 1770 449 221 473 234 531 292 71 72 127 171 150
269 20 86 14 225 -14 305 -27 75 -1734 3508 -1774 3567 -72 104 -191 189 -317
226 -72 21 -221 21 -291 0 -30 -9 -197 -88 -373 -175 l-318 -160 -567 558
c-1021 1005 -999 985 -1077 1025 -38 20 -98 43 -131 52 -75 20 -210 20 -282 0z
m197 -439 c47 -24 2774 -2710 2789 -2747 8 -17 11 -46 8 -63 -5 -26 -510 -544
-2582 -2651 -3185 -3239 -3021 -3074 -3062 -3074 -38 0 -79 19 -106 49 -18 20
-18 21 19 63 45 52 98 162 119 244 20 79 21 232 1 309 -52 203 -193 353 -390
411 -90 27 -239 25 -335 -5 -92 -28 -179 -75 -243 -132 l-49 -42 -30 31 -31
30 35 44 c49 61 72 102 104 188 25 67 28 88 28 205 1 103 -3 142 -18 185 -69
202 -206 336 -392 385 -76 20 -229 19 -308 -1 -80 -21 -168 -63 -235 -115
l-54 -41 -28 29 -28 28 31 45 c73 107 108 225 108 365 0 176 -51 306 -166 421
-201 202 -526 218 -777 38 -27 -19 -55 -33 -62 -30 -22 8 -46 53 -52 95 -5 39
-3 43 63 113 210 220 5521 5615 5539 5625 27 17 70 16 104 -2z m2771 -1312
c40 -37 1750 -3474 1750 -3518 0 -77 193 22 -3050 -1573 -1658 -815 -3015
-1481 -3015 -1479 -1 1 1041 1062 2317 2357 1275 1295 2339 2383 2364 2418 26
34 58 95 72 135 23 62 26 88 26 182 0 124 -20 198 -79 295 -31 50 -319 343
-813 825 -78 77 -141 143 -139 148 1 5 106 60 232 122 257 126 284 134 335 88z"/>
<path d="M1455 4011 c-104 -26 -175 -117 -175 -222 0 -74 39 -125 256 -340
115 -113 223 -216 241 -228 101 -69 257 -28 315 82 30 57 30 147 1 202 -27 51
-447 466 -493 487 -45 20 -107 28 -145 19z"/>
<path d="M2395 3023 c-44 -23 -84 -63 -106 -105 -26 -50 -25 -139 1 -193 23
-49 474 -491 529 -519 47 -25 137 -24 187 2 108 56 154 182 105 287 -26 55
-482 508 -533 529 -48 20 -144 20 -183 -1z"/>
<path d="M3395 2069 c-16 -4 -47 -22 -68 -40 -67 -56 -96 -142 -76 -226 11
-44 32 -68 278 -316 169 -170 281 -275 306 -287 51 -25 143 -27 188 -4 45 23
86 63 108 106 26 50 25 139 -1 193 -13 28 -109 128 -288 301 -216 210 -275
262 -308 272 -47 14 -95 14 -139 1z"/>
</g>
</svg>
