<?xml version="1.0" encoding="UTF-8" standalone="no"?>
<!DOCTYPE svg PUBLIC "-//W3C//DTD SVG 1.1//EN" "http://www.w3.org/Graphics/SVG/1.1/DTD/svg11.dtd">
<!-- Created with Vectornator (http://vectornator.io/) -->
<svg height="100%" stroke-miterlimit="10" style="fill-rule:nonzero;clip-rule:evenodd;stroke-linecap:round;stroke-linejoin:round;" version="1.1" viewBox="0 0 7680 4320" width="100%" xml:space="preserve" xmlns="http://www.w3.org/2000/svg" xmlns:vectornator="http://vectornator.io" xmlns:xlink="http://www.w3.org/1999/xlink">
<defs/>
<g id="Foreground" vectornator:layerName="Foreground">
<path d="M1060.68 1506.9L758.28 1506.9L758.28 1259.93L1642.8 1259.93L1642.8 1506.9L1340.4 1506.9L1340.4 2918.1L1060.68 2918.1L1060.68 1506.9ZM1597.44 2296.16C1597.44 1877.84 1753.68 1658.6 2053.56 1658.6C2353.45 1658.6 2507.17 1877.84 2507.17 2296.16C2507.17 2714.48 2350.93 2933.73 2053.56 2933.73C1756.2 2933.73 1597.44 2714.48 1597.44 2296.16ZM2245.09 2296.16C2245.09 2016.44 2179.57 1880.36 2053.56 1880.36C1927.56 1880.36 1859.52 2016.44 1859.52 2296.16C1859.52 2575.88 1927.56 2709.44 2053.56 2709.44C2179.57 2709.44 2245.09 2575.88 2245.09 2296.16ZM2658.37 1673.22L2920.45 1673.22L2907.85 1963.02L2912.89 1963.02C2953.21 1776.54 3041.41 1658.1 3250.57 1658.1C3459.73 1658.1 3570.61 1816.86 3570.61 2063.82L3570.61 2918.1L3308.53 2918.1L3308.53 2106.66C3308.53 1970.58 3260.65 1894.98 3139.69 1894.98C3008.65 1894.98 2920.45 2023.5 2920.45 2230.14L2920.45 2918.1L2658.37 2918.1L2658.37 1673.22ZM5215.67 1189.37L5477.75 1189.37L5477.75 1698.42C5477.75 1731.18 5470.19 1907.58 5465.15 1963.02L5470.19 1963.02C5505.47 1804.26 5588.64 1658.1 5807.88 1658.1C6027.12 1658.1 6127.92 1811.82 6127.92 2063.82L6127.92 2918.1L5865.84 2918.1L5865.84 2106.66C5865.84 1970.58 5817.96 1894.98 5697 1894.98C5565.95 1894.98 5477.75 2028.54 5477.75 2235.18L5477.75 2918.1L5215.67 2918.1L5215.67 1189.37ZM6357.24 2490.2L6357.24 1903.04L6213.6 1903.04L6213.6 1673.72L6324.48 1673.72C6367.32 1673.72 6384.96 1651.04 6392.52 1572.92L6400.08 1391.48L6619.32 1391.48L6619.32 1673.72L6921.72 1673.72L6921.72 1903.04L6619.32 1903.04L6619.32 2482.64C6619.32 2626.28 6654.6 2704.4 6783.12 2704.4C6851.16 2704.4 6891.48 2696.84 6906.6 2694.32L6906.6 2908.53C6883.92 2916.09 6810.84 2928.69 6722.64 2928.69C6445.44 2928.69 6357.24 2754.8 6357.24 2490.2ZM4963.82 1423.47C4830.26 1423.47 4762.22 1481.43 4762.22 1574.67C4762.21 1625.08 4784.58 1673.9 4817.34 1711.7L4815.77 1713.28C4755.28 1675.48 4679.69 1658.15 4588.97 1658.15C4324.37 1658.14 4185.77 1815.02 4185.77 2114.9C4185.77 2293.81 4236.48 2421.4 4332.24 2494.48L4332.24 2502.35C4269.25 2535.12 4233.02 2608.19 4233.02 2703.95C4233.01 2774.5 4251.83 2848.14 4319.64 2891.38C4386.04 2933.73 4462.07 2948.08 4546.44 2948.08L4677.17 2948.08C4775.44 2948.09 4817.34 3001.95 4817.34 3085.11C4817.34 3087.48 4815.83 3089.07 4815.77 3091.41L5072.5 3091.41C5074.12 3075.15 5080.37 3061.2 5080.37 3044.16C5080.38 2850.11 4959.72 2727.58 4722.84 2727.58L4535.42 2727.58C4469.88 2727.59 4439.34 2694.5 4439.34 2631.5C4439.35 2591.19 4450.68 2565.98 4458.24 2555.9C4498.55 2565.98 4541.09 2570.08 4588.97 2570.08C4853.58 2570.09 4989.02 2414.78 4989.02 2114.9C4989.02 2009.06 4971.38 1919.92 4938.62 1851.88C4923.49 1793.91 4911.84 1748.87 4911.84 1708.55C4911.85 1655.62 4942.08 1628.22 5000.04 1628.22C5025.24 1628.24 5042.57 1631.06 5055.17 1636.1L5055.17 1434.5C5037.54 1429.45 5006.66 1423.47 4963.82 1423.47ZM4588.97 1850.3C4689.76 1850.3 4741.74 1933.46 4741.74 2114.9C4741.75 2296.34 4689.77 2379.5 4588.97 2379.5C4488.18 2379.51 4434.62 2296.34 4434.62 2114.9C4434.61 1933.46 4488.17 1850.3 4588.97 1850.3ZM3872.66 1311.81L3623.81 1711.86L3741.93 1711.86L3741.93 1861.49L3893.13 1711.86L4121.51 1711.86L3872.66 1311.81ZM4003.38 1785.89L3741.93 2047.34L3741.93 2239.49L4003.38 1979.62L4003.38 1785.89ZM4003.38 2163.89L3741.93 2425.34L3741.93 2617.49L4003.38 2357.62L4003.38 2163.89ZM4003.38 2541.89L3741.93 2803.34L3741.93 2918.32L3872.66 2918.32L3872.66 3491.62L4003.38 3491.62L4003.38 2918.32L4003.38 2541.89Z" fill="#000000" fill-rule="nonzero" opacity="1" stroke="none" vectornator:layerName="Curva 1"/>
</g>
</svg>
