<?xml version="1.0" standalone="no"?>
<!DOCTYPE svg PUBLIC "-//W3C//DTD SVG 20010904//EN"
 "http://www.w3.org/TR/2001/REC-SVG-20010904/DTD/svg10.dtd">
<svg version="1.0" xmlns="http://www.w3.org/2000/svg"
 width="1160.000000pt" height="886.000000pt" viewBox="0 0 1160.000000 886.000000"
 preserveAspectRatio="xMidYMid meet">

<g transform="translate(0.000000,886.000000) scale(0.100000,-0.100000)"
fill="#000000" stroke="none">
<path d="M3205 8810 c-243 -37 -437 -179 -548 -400 l-42 -85 -3 -782 -2 -781
-143 -4 c-152 -4 -194 -15 -244 -70 -32 -34 -698 -1107 -711 -1147 -28 -79 -7
-167 54 -228 71 -71 137 -78 324 -34 194 46 344 63 602 68 357 8 588 -18 889
-101 895 -246 1611 -984 1854 -1908 98 -374 117 -779 54 -1146 -10 -63 -19
-134 -19 -158 0 -84 48 -160 125 -195 38 -18 96 -19 1365 -19 1260 0 1327 1
1365 19 57 26 102 81 120 149 106 394 240 638 479 878 284 283 599 430 1004
466 276 24 649 -37 902 -149 116 -51 204 -40 280 37 31 30 50 60 58 90 10 34
12 203 10 715 -4 749 -1 714 -78 870 -69 140 -168 240 -312 315 -141 74 -175
79 -713 100 -264 10 -481 19 -482 19 -2 1 -3 227 -3 502 0 347 -4 513 -11 540
-16 52 -61 103 -112 128 -42 20 -56 21 -551 21 -479 0 -509 -1 -544 -19 -43
-22 -83 -63 -106 -108 -14 -28 -16 -99 -16 -618 l0 -585 -455 0 -455 0 0 1190
c0 1179 0 1191 -20 1233 -25 51 -1136 1157 -1190 1184 -33 17 -116 18 -1355
19 -726 1 -1342 -2 -1370 -6z m3017 -917 l478 -478 0 -1253 c0 -1108 2 -1257
15 -1290 19 -44 47 -76 95 -105 35 -22 39 -22 635 -27 l600 -5 5 -266 5 -266
27 -41 c15 -22 49 -54 75 -69 l48 -28 480 -3 c558 -4 563 -3 635 66 31 30 52
61 59 87 7 25 11 157 11 353 l0 312 128 -6 c70 -3 278 -11 463 -18 335 -12
337 -13 393 -40 30 -15 71 -45 89 -67 65 -76 67 -90 67 -595 0 -276 -4 -454
-9 -454 -6 0 -47 9 -93 20 -222 53 -511 78 -723 61 -835 -67 -1513 -591 -1810
-1399 l-43 -117 -1047 -3 -1047 -2 8 117 c60 878 -207 1697 -767 2348 -326
379 -745 676 -1212 860 -187 73 -490 153 -679 180 l-48 6 0 1220 c0 1348 -5
1246 66 1308 37 33 65 47 119 61 17 4 586 8 1265 9 l1235 1 477 -477z m-3614
-1835 l-3 -253 -194 -7 c-106 -4 -200 -9 -208 -13 -11 -4 -13 -1 -9 11 5 13
121 202 293 477 22 35 26 37 73 37 l50 0 -2 -252z m6332 -763 l0 -785 -222 2
-223 3 -3 770 c-1 424 0 776 3 783 3 9 58 12 225 12 l220 0 0 -785z"/>
<path d="M3402 8039 c-24 -12 -54 -36 -67 -53 -58 -76 -55 -23 -55 -1053 0
-662 3 -960 11 -988 15 -53 91 -129 144 -144 27 -7 197 -11 510 -11 434 0 473
2 510 19 51 23 93 65 116 116 18 38 19 90 19 994 0 686 -3 964 -11 992 -16 52
-61 103 -112 128 -42 20 -57 21 -533 21 -479 0 -490 0 -532 -21z m738 -1109
l0 -690 -205 0 -205 0 0 690 0 690 205 0 205 0 0 -690z"/>
<path d="M4862 8039 c-48 -24 -88 -71 -108 -126 -20 -58 -20 -2333 0 -2391 22
-60 52 -97 106 -126 l48 -26 637 0 637 0 49 26 c56 31 93 80 109 144 7 31 10
294 8 865 -3 777 -4 822 -22 855 -28 54 -733 758 -781 781 -36 17 -68 19 -340
19 -286 0 -302 -1 -343 -21z m761 -697 l277 -277 -2 -625 -3 -625 -350 0 -350
0 -3 903 -2 902 78 0 77 0 278 -278z"/>
<path d="M2459 5179 c-911 -65 -1711 -604 -2114 -1424 -398 -810 -336 -1775
163 -2525 895 -1346 2787 -1539 3933 -400 352 350 600 808 698 1290 37 183 46
282 46 515 0 233 -9 332 -46 515 -153 750 -653 1406 -1336 1753 -326 166 -639
252 -1003 277 -159 11 -186 11 -341 -1z m483 -465 c815 -113 1504 -721 1723
-1520 57 -206 70 -312 70 -559 0 -247 -13 -353 -70 -559 -158 -576 -560 -1061
-1100 -1326 -205 -101 -396 -161 -625 -196 -156 -24 -444 -24 -598 0 -937 143
-1642 845 -1788 1782 -23 148 -23 450 0 598 80 511 324 957 701 1283 336 290
755 471 1191 512 126 12 351 5 496 -15z"/>
<path d="M2490 4170 c-259 -27 -495 -112 -715 -257 -136 -90 -328 -282 -418
-418 -349 -529 -349 -1191 0 -1720 90 -136 282 -328 419 -418 404 -268 887
-334 1344 -186 523 170 912 608 1032 1163 32 147 32 455 0 602 -154 713 -740
1209 -1462 1238 -63 3 -153 1 -200 -4z m275 -451 c242 -30 453 -130 629 -299
447 -429 448 -1140 2 -1568 -97 -93 -177 -149 -289 -202 -458 -218 -1005 -93
-1321 301 -322 403 -322 965 1 1368 233 292 608 445 978 400z"/>
<path d="M9816 3159 c-242 -26 -483 -110 -681 -239 -358 -234 -603 -602 -681
-1025 -26 -135 -26 -412 -1 -540 95 -487 386 -879 816 -1099 506 -259 1092
-224 1572 95 130 87 324 282 412 415 71 108 151 268 186 374 127 391 93 830
-95 1189 -294 566 -903 896 -1528 830z m289 -450 c443 -54 812 -377 925 -808
106 -403 -31 -839 -349 -1107 -448 -377 -1105 -340 -1503 84 -125 133 -217
299 -265 479 -24 88 -27 116 -27 268 0 152 3 180 27 268 53 197 159 378 301
515 138 132 282 216 461 267 151 43 275 53 430 34z"/>
<path d="M9800 2485 c-139 -28 -286 -100 -404 -199 -121 -101 -236 -292 -276
-456 -27 -117 -27 -293 0 -410 82 -342 370 -606 721 -661 91 -14 261 -6 349
16 286 74 519 293 616 578 49 143 56 340 18 487 -82 320 -352 578 -676 644
-92 19 -256 19 -348 1z m296 -450 c79 -23 168 -86 219 -156 215 -293 -4 -696
-369 -677 -227 12 -397 193 -397 423 0 193 117 351 306 411 55 17 181 17 241
-1z"/>
</g>
</svg>
