<?xml version="1.0" encoding="utf-8"?>
<!-- Generator: Adobe Illustrator 27.4.0, SVG Export Plug-In . SVG Version: 6.00 Build 0)  -->
<svg version="1.1" id="Livello_2" xmlns="http://www.w3.org/2000/svg" xmlns:xlink="http://www.w3.org/1999/xlink" x="0px" y="0px"
	 viewBox="0 0 382.1 293.25" style="enable-background:new 0 0 382.1 293.25;" xml:space="preserve">
<style type="text/css">
	.st0{fill:#000000;stroke:#00000000;stroke-width:15;stroke-miterlimit:10;}
	.st1{fill:#000000;stroke:#00000000;stroke-width:15;stroke-linejoin:round;stroke-miterlimit:10;}
</style>
<circle class="st0" cx="85.83" cy="206.77" r="77.61"/>
<circle class="st0" cx="85.83" cy="206.77" r="43.94"/>
<circle class="st0" cx="330.27" cy="240.44" r="43.94"/>
<circle class="st0" cx="330.27" cy="240.44" r="21.76"/>
<path class="st1" d="M273.51,129.16h-44.96V44.08L192.48,8.02h-84.14c-1.42-0.01-6.66,0.14-11.18,4.11
	c-3.11,2.73-4.36,5.93-4.85,7.47c-0.01,29.76-0.02,59.52-0.02,89.28"/>
<path class="st1" d="M87.85,76.75H77.37l-22.01,35.44c1.54-0.47,16.84-4.83,36.93-3.32c17.49,1.32,38.61,7.1,57.45,23.8
	c26.37,23.37,38.26,59.26,31.16,93.93c28.2,0,56.39,0,84.59,0c0.88-4.23,6.21-27.87,28.94-41.85c28.88-17.76,59.61-3.75,61.88-2.67
	c0-13.65,0-27.3,0-40.96c-0.11-1.53-0.63-5.87-4.01-9.79c-4.39-5.1-10.34-5.69-11.57-5.79c-12.02-0.45-24.04-0.89-36.06-1.34"/>
<rect x="273.51" y="84.5" class="st1" width="29.88" height="67.18"/>
<rect x="114.74" y="33.13" class="st1" width="28.71" height="60.94"/>
<polygon class="st1" points="163.44,33.13 179.44,33.13 201.98,55.79 201.98,108.19 163.44,108.19 "/>
</svg>
