<?xml version="1.0" encoding="UTF-8" standalone="no"?>
<svg
   xmlns:dc="http://purl.org/dc/elements/1.1/"
   xmlns:cc="http://creativecommons.org/ns#"
   xmlns:rdf="http://www.w3.org/1999/02/22-rdf-syntax-ns#"
   xmlns:svg="http://www.w3.org/2000/svg"
   xmlns="http://www.w3.org/2000/svg"
   viewBox="0 0 377.95334 377.95334"
   height="377.95334"
   width="377.95334"
   xml:space="preserve"
   id="svg2"
   version="1.1"><metadata
     id="metadata8"><rdf:RDF><cc:Work
         rdf:about=""><dc:format>image/svg+xml</dc:format><dc:type
           rdf:resource="http://purl.org/dc/dcmitype/StillImage" /></cc:Work></rdf:RDF></metadata><defs
     id="defs6"><clipPath
       id="clipPath18"
       clipPathUnits="userSpaceOnUse"><path
         id="path16"
         d="M 0,0 H 283.465 V 283.465 H 0 Z" /></clipPath></defs><g
     transform="matrix(1.3333333,0,0,-1.3333333,0,377.95333)"
     id="g10"><g
       id="g12"><g
         clip-path="url(#clipPath18)"
         id="g14"><g
           transform="translate(119.2094,92.5142)"
           id="g20"><path
             id="path22"
             style="fill:none;stroke:#231f20;stroke-width:10.00199986;stroke-linecap:butt;stroke-linejoin:miter;stroke-miterlimit:10;stroke-dasharray:none;stroke-opacity:1"
             d="m 0,0 c 0,-28.581 -23.17,-51.75 -51.75,-51.75 -28.581,0 -51.751,23.169 -51.751,51.75 0,28.581 23.17,51.75 51.751,51.75 C -23.17,51.75 0,28.581 0,0 Z" /></g><g
           transform="translate(86.3602,92.5142)"
           id="g24"><path
             id="path26"
             style="fill:#231f20;fill-opacity:1;fill-rule:nonzero;stroke:none"
             d="m 0,0 c 0,-10.439 -8.462,-18.901 -18.901,-18.901 -10.439,0 -18.901,8.462 -18.901,18.901 0,10.439 8.462,18.901 18.901,18.901 C -8.462,18.901 0,10.439 0,0" /></g><g
           transform="translate(267.7494,70.0609)"
           id="g28"><path
             id="path30"
             style="fill:none;stroke:#231f20;stroke-width:10.00199986;stroke-linecap:butt;stroke-linejoin:miter;stroke-miterlimit:10;stroke-dasharray:none;stroke-opacity:1"
             d="m 0,0 c 0,-16.18 -13.117,-29.297 -29.297,-29.297 -16.181,0 -29.297,13.117 -29.297,29.297 0,16.18 13.116,29.297 29.297,29.297 C -13.117,29.297 0,16.18 0,0 Z" /></g><g
           transform="translate(199.1928,149.5393)"
           id="g32"><path
             id="path34"
             style="fill:none;stroke:#231f20;stroke-width:10.00199986;stroke-linecap:butt;stroke-linejoin:round;stroke-miterlimit:10;stroke-dasharray:none;stroke-opacity:1"
             d="m 0,0 h -29.982 v 56.727 l -24.044,24.045 h -56.104 c -0.944,0.004 -4.442,-0.096 -7.454,-2.739 -2.072,-1.818 -2.908,-3.957 -3.233,-4.98 -0.005,-19.843 -0.436,-23.238 -0.441,-43.082" /></g><g
           transform="translate(75.4014,184.4812)"
           id="g36"><path
             id="path38"
             style="fill:none;stroke:#231f20;stroke-width:10.00199986;stroke-linecap:butt;stroke-linejoin:round;stroke-miterlimit:10;stroke-dasharray:none;stroke-opacity:1"
             d="m 0,0 h -6.989 l -14.675,-23.632 c 1.03,0.312 11.229,3.223 24.623,2.211 11.662,-0.88 25.747,-4.735 38.309,-15.867 17.585,-15.583 25.512,-39.516 20.779,-62.634 h 56.401 c 0.585,2.819 4.14,18.586 19.295,27.903 19.26,11.841 39.748,2.503 41.262,1.781 v 27.311 c -0.074,1.019 -0.419,3.915 -2.672,6.53 -2.927,3.399 -6.897,3.795 -7.718,3.859 l -24.044,0.891" /></g><g
           transform="translate(199.1928,144.6052)"
           id="g40"><path
             id="path42"
             style="fill:none;stroke:#231f20;stroke-width:10.00199986;stroke-linecap:butt;stroke-linejoin:round;stroke-miterlimit:10;stroke-dasharray:none;stroke-opacity:1"
             d="M 0,0 V 34.711 H 19.925 L 19.752,3.121" /></g><g
           transform="translate(125.8027,213.5715)"
           id="g44"><path
             id="path46"
             style="fill:none;stroke:#231f20;stroke-width:10.00199986;stroke-linecap:butt;stroke-linejoin:round;stroke-miterlimit:10;stroke-dasharray:none;stroke-opacity:1"
             d="M 0,0 H 10.671 L 25.697,-14.459 V -37.346 L 0,-37.346 Z" /></g></g></g></g></svg>